<?xml version="1.0" encoding="utf-8" standalone="no"?>
<!DOCTYPE svg PUBLIC "-//W3C//DTD SVG 1.1//EN"
  "http://www.w3.org/Graphics/SVG/1.1/DTD/svg11.dtd">
<!-- Created with matplotlib (http://matplotlib.org/) -->
<svg height="345.6pt" version="1.1" viewBox="0 0 460.8 345.6" width="460.8pt" xmlns="http://www.w3.org/2000/svg" xmlns:xlink="http://www.w3.org/1999/xlink">
 <defs>
  <style type="text/css">
*{stroke-linecap:butt;stroke-linejoin:round;}
  </style>
 </defs>
 <g id="figure_1">
  <g id="patch_1">
   <path d="M 0 345.6 
L 460.8 345.6 
L 460.8 0 
L 0 0 
z
" style="fill:#ffffff;"/>
  </g>
  <g id="axes_1">
   <g id="patch_2">
    <path d="M 57.6 307.584 
L 414.72 307.584 
L 414.72 41.472 
L 57.6 41.472 
z
" style="fill:#ffffff;"/>
   </g>
   <g id="matplotlib.axis_1">
    <g id="xtick_1">
     <g id="line2d_1">
      <defs>
       <path d="M 0 0 
L 0 3.5 
" id="m01e4108b91" style="stroke:#000000;stroke-width:0.8;"/>
      </defs>
      <g>
       <use style="stroke:#000000;stroke-width:0.8;" x="82.379111" xlink:href="#m01e4108b91" y="307.584"/>
      </g>
     </g>
     <g id="text_1">
      <!-- −100 -->
      <defs>
       <path d="M 10.59375 35.5 
L 73.1875 35.5 
L 73.1875 27.203125 
L 10.59375 27.203125 
z
" id="DejaVuSans-2212"/>
       <path d="M 12.40625 8.296875 
L 28.515625 8.296875 
L 28.515625 63.921875 
L 10.984375 60.40625 
L 10.984375 69.390625 
L 28.421875 72.90625 
L 38.28125 72.90625 
L 38.28125 8.296875 
L 54.390625 8.296875 
L 54.390625 0 
L 12.40625 0 
z
" id="DejaVuSans-31"/>
       <path d="M 31.78125 66.40625 
Q 24.171875 66.40625 20.328125 58.90625 
Q 16.5 51.421875 16.5 36.375 
Q 16.5 21.390625 20.328125 13.890625 
Q 24.171875 6.390625 31.78125 6.390625 
Q 39.453125 6.390625 43.28125 13.890625 
Q 47.125 21.390625 47.125 36.375 
Q 47.125 51.421875 43.28125 58.90625 
Q 39.453125 66.40625 31.78125 66.40625 
z
M 31.78125 74.21875 
Q 44.046875 74.21875 50.515625 64.515625 
Q 56.984375 54.828125 56.984375 36.375 
Q 56.984375 17.96875 50.515625 8.265625 
Q 44.046875 -1.421875 31.78125 -1.421875 
Q 19.53125 -1.421875 13.0625 8.265625 
Q 6.59375 17.96875 6.59375 36.375 
Q 6.59375 54.828125 13.0625 64.515625 
Q 19.53125 74.21875 31.78125 74.21875 
z
" id="DejaVuSans-30"/>
      </defs>
      <g transform="translate(68.645518 322.182437)scale(0.1 -0.1)">
       <use xlink:href="#DejaVuSans-2212"/>
       <use x="83.789062" xlink:href="#DejaVuSans-31"/>
       <use x="147.412109" xlink:href="#DejaVuSans-30"/>
       <use x="211.035156" xlink:href="#DejaVuSans-30"/>
      </g>
     </g>
    </g>
    <g id="xtick_2">
     <g id="line2d_2">
      <g>
       <use style="stroke:#000000;stroke-width:0.8;" x="148.26243" xlink:href="#m01e4108b91" y="307.584"/>
      </g>
     </g>
     <g id="text_2">
      <!-- −50 -->
      <defs>
       <path d="M 10.796875 72.90625 
L 49.515625 72.90625 
L 49.515625 64.59375 
L 19.828125 64.59375 
L 19.828125 46.734375 
Q 21.96875 47.46875 24.109375 47.828125 
Q 26.265625 48.1875 28.421875 48.1875 
Q 40.625 48.1875 47.75 41.5 
Q 54.890625 34.8125 54.890625 23.390625 
Q 54.890625 11.625 47.5625 5.09375 
Q 40.234375 -1.421875 26.90625 -1.421875 
Q 22.3125 -1.421875 17.546875 -0.640625 
Q 12.796875 0.140625 7.71875 1.703125 
L 7.71875 11.625 
Q 12.109375 9.234375 16.796875 8.0625 
Q 21.484375 6.890625 26.703125 6.890625 
Q 35.15625 6.890625 40.078125 11.328125 
Q 45.015625 15.765625 45.015625 23.390625 
Q 45.015625 31 40.078125 35.4375 
Q 35.15625 39.890625 26.703125 39.890625 
Q 22.75 39.890625 18.8125 39.015625 
Q 14.890625 38.140625 10.796875 36.28125 
z
" id="DejaVuSans-35"/>
      </defs>
      <g transform="translate(137.710086 322.182437)scale(0.1 -0.1)">
       <use xlink:href="#DejaVuSans-2212"/>
       <use x="83.789062" xlink:href="#DejaVuSans-35"/>
       <use x="147.412109" xlink:href="#DejaVuSans-30"/>
      </g>
     </g>
    </g>
    <g id="xtick_3">
     <g id="line2d_3">
      <g>
       <use style="stroke:#000000;stroke-width:0.8;" x="214.145748" xlink:href="#m01e4108b91" y="307.584"/>
      </g>
     </g>
     <g id="text_3">
      <!-- 0 -->
      <g transform="translate(210.964498 322.182437)scale(0.1 -0.1)">
       <use xlink:href="#DejaVuSans-30"/>
      </g>
     </g>
    </g>
    <g id="xtick_4">
     <g id="line2d_4">
      <g>
       <use style="stroke:#000000;stroke-width:0.8;" x="280.029066" xlink:href="#m01e4108b91" y="307.584"/>
      </g>
     </g>
     <g id="text_4">
      <!-- 50 -->
      <g transform="translate(273.666566 322.182437)scale(0.1 -0.1)">
       <use xlink:href="#DejaVuSans-35"/>
       <use x="63.623047" xlink:href="#DejaVuSans-30"/>
      </g>
     </g>
    </g>
    <g id="xtick_5">
     <g id="line2d_5">
      <g>
       <use style="stroke:#000000;stroke-width:0.8;" x="345.912385" xlink:href="#m01e4108b91" y="307.584"/>
      </g>
     </g>
     <g id="text_5">
      <!-- 100 -->
      <g transform="translate(336.368635 322.182437)scale(0.1 -0.1)">
       <use xlink:href="#DejaVuSans-31"/>
       <use x="63.623047" xlink:href="#DejaVuSans-30"/>
       <use x="127.246094" xlink:href="#DejaVuSans-30"/>
      </g>
     </g>
    </g>
    <g id="xtick_6">
     <g id="line2d_6">
      <g>
       <use style="stroke:#000000;stroke-width:0.8;" x="411.795703" xlink:href="#m01e4108b91" y="307.584"/>
      </g>
     </g>
     <g id="text_6">
      <!-- 150 -->
      <g transform="translate(402.251953 322.182437)scale(0.1 -0.1)">
       <use xlink:href="#DejaVuSans-31"/>
       <use x="63.623047" xlink:href="#DejaVuSans-35"/>
       <use x="127.246094" xlink:href="#DejaVuSans-30"/>
      </g>
     </g>
    </g>
   </g>
   <g id="matplotlib.axis_2">
    <g id="ytick_1">
     <g id="line2d_7">
      <defs>
       <path d="M 0 0 
L -3.5 0 
" id="ma210852210" style="stroke:#000000;stroke-width:0.8;"/>
      </defs>
      <g>
       <use style="stroke:#000000;stroke-width:0.8;" x="57.6" xlink:href="#ma210852210" y="260.638059"/>
      </g>
     </g>
     <g id="text_7">
      <!-- −20 -->
      <defs>
       <path d="M 19.1875 8.296875 
L 53.609375 8.296875 
L 53.609375 0 
L 7.328125 0 
L 7.328125 8.296875 
Q 12.9375 14.109375 22.625 23.890625 
Q 32.328125 33.6875 34.8125 36.53125 
Q 39.546875 41.84375 41.421875 45.53125 
Q 43.3125 49.21875 43.3125 52.78125 
Q 43.3125 58.59375 39.234375 62.25 
Q 35.15625 65.921875 28.609375 65.921875 
Q 23.96875 65.921875 18.8125 64.3125 
Q 13.671875 62.703125 7.8125 59.421875 
L 7.8125 69.390625 
Q 13.765625 71.78125 18.9375 73 
Q 24.125 74.21875 28.421875 74.21875 
Q 39.75 74.21875 46.484375 68.546875 
Q 53.21875 62.890625 53.21875 53.421875 
Q 53.21875 48.921875 51.53125 44.890625 
Q 49.859375 40.875 45.40625 35.40625 
Q 44.1875 33.984375 37.640625 27.21875 
Q 31.109375 20.453125 19.1875 8.296875 
z
" id="DejaVuSans-32"/>
      </defs>
      <g transform="translate(29.495313 264.437278)scale(0.1 -0.1)">
       <use xlink:href="#DejaVuSans-2212"/>
       <use x="83.789062" xlink:href="#DejaVuSans-32"/>
       <use x="147.412109" xlink:href="#DejaVuSans-30"/>
      </g>
     </g>
    </g>
    <g id="ytick_2">
     <g id="line2d_8">
      <g>
       <use style="stroke:#000000;stroke-width:0.8;" x="57.6" xlink:href="#ma210852210" y="208.816585"/>
      </g>
     </g>
     <g id="text_8">
      <!-- 0 -->
      <g transform="translate(44.2375 212.615804)scale(0.1 -0.1)">
       <use xlink:href="#DejaVuSans-30"/>
      </g>
     </g>
    </g>
    <g id="ytick_3">
     <g id="line2d_9">
      <g>
       <use style="stroke:#000000;stroke-width:0.8;" x="57.6" xlink:href="#ma210852210" y="156.995111"/>
      </g>
     </g>
     <g id="text_9">
      <!-- 20 -->
      <g transform="translate(37.875 160.79433)scale(0.1 -0.1)">
       <use xlink:href="#DejaVuSans-32"/>
       <use x="63.623047" xlink:href="#DejaVuSans-30"/>
      </g>
     </g>
    </g>
    <g id="ytick_4">
     <g id="line2d_10">
      <g>
       <use style="stroke:#000000;stroke-width:0.8;" x="57.6" xlink:href="#ma210852210" y="105.173637"/>
      </g>
     </g>
     <g id="text_10">
      <!-- 40 -->
      <defs>
       <path d="M 37.796875 64.3125 
L 12.890625 25.390625 
L 37.796875 25.390625 
z
M 35.203125 72.90625 
L 47.609375 72.90625 
L 47.609375 25.390625 
L 58.015625 25.390625 
L 58.015625 17.1875 
L 47.609375 17.1875 
L 47.609375 0 
L 37.796875 0 
L 37.796875 17.1875 
L 4.890625 17.1875 
L 4.890625 26.703125 
z
" id="DejaVuSans-34"/>
      </defs>
      <g transform="translate(37.875 108.972856)scale(0.1 -0.1)">
       <use xlink:href="#DejaVuSans-34"/>
       <use x="63.623047" xlink:href="#DejaVuSans-30"/>
      </g>
     </g>
    </g>
    <g id="ytick_5">
     <g id="line2d_11">
      <g>
       <use style="stroke:#000000;stroke-width:0.8;" x="57.6" xlink:href="#ma210852210" y="53.352164"/>
      </g>
     </g>
     <g id="text_11">
      <!-- 60 -->
      <defs>
       <path d="M 33.015625 40.375 
Q 26.375 40.375 22.484375 35.828125 
Q 18.609375 31.296875 18.609375 23.390625 
Q 18.609375 15.53125 22.484375 10.953125 
Q 26.375 6.390625 33.015625 6.390625 
Q 39.65625 6.390625 43.53125 10.953125 
Q 47.40625 15.53125 47.40625 23.390625 
Q 47.40625 31.296875 43.53125 35.828125 
Q 39.65625 40.375 33.015625 40.375 
z
M 52.59375 71.296875 
L 52.59375 62.3125 
Q 48.875 64.0625 45.09375 64.984375 
Q 41.3125 65.921875 37.59375 65.921875 
Q 27.828125 65.921875 22.671875 59.328125 
Q 17.53125 52.734375 16.796875 39.40625 
Q 19.671875 43.65625 24.015625 45.921875 
Q 28.375 48.1875 33.59375 48.1875 
Q 44.578125 48.1875 50.953125 41.515625 
Q 57.328125 34.859375 57.328125 23.390625 
Q 57.328125 12.15625 50.6875 5.359375 
Q 44.046875 -1.421875 33.015625 -1.421875 
Q 20.359375 -1.421875 13.671875 8.265625 
Q 6.984375 17.96875 6.984375 36.375 
Q 6.984375 53.65625 15.1875 63.9375 
Q 23.390625 74.21875 37.203125 74.21875 
Q 40.921875 74.21875 44.703125 73.484375 
Q 48.484375 72.75 52.59375 71.296875 
z
" id="DejaVuSans-36"/>
      </defs>
      <g transform="translate(37.875 57.151382)scale(0.1 -0.1)">
       <use xlink:href="#DejaVuSans-36"/>
       <use x="63.623047" xlink:href="#DejaVuSans-30"/>
      </g>
     </g>
    </g>
   </g>
   <g id="line2d_12">
    <path clip-path="url(#p723c942a78)" d="M 157.021222 265.176843 
L 156.952835 267.794604 
L 152.72049 270.225032 
L 146.747113 269.188602 
L 129.946867 231.531673 
L 114.585513 192.396122 
L 107.621251 117.541091 
L 73.83668 126.593266 
L 73.832727 126.527712 
L 83.382778 158.344024 
L 99.223236 172.282446 
L 110.708938 209.377985 
L 119.886484 251.307343 
L 121.030614 295.488 
L 136.622033 280.020845 
L 150.260934 212.573642 
L 193.612158 178.112362 
L 191.16815 170.803461 
L 191.833308 170.468694 
L 234.030124 124.922024 
L 240.586964 125.599849 
L 255.322822 130.954821 
L 272.642097 122.433816 
L 272.639857 116.916124 
L 273.536134 111.508035 
L 279.479863 112.219285 
L 285.78292 145.421562 
L 302.537707 144.28434 
L 304.239473 143.023005 
L 310.598926 151.035642 
L 312.487537 143.132867 
L 315.891597 134.539053 
L 318.636691 157.124665 
L 310.105855 159.650962 
L 313.190381 169.043604 
L 316.374653 175.175898 
L 314.57393 181.56704 
L 276.756905 257.831149 
L 251.450596 276.679137 
L 250.943031 277.928553 
L 251.527152 276.797549 
L 260.264071 249.712278 
L 265.883523 247.992842 
L 265.908031 226.435886 
L 266.413224 219.310433 
L 257.056344 207.998956 
L 250.337695 239.045864 
L 243.684929 224.093115 
L 234.306043 219.958202 
L 226.597695 207.823341 
L 226.927112 198.322011 
L 225.111368 195.986365 
L 225.872979 183.121762 
L 218.55993 190.290408 
L 220.14113 186.792459 
L 218.620319 192.096231 
L 217.242264 192.10416 
L 212.015516 191.499584 
L 201.974227 125.126459 
L 203.593507 126.857038 
L 206.485297 116.106414 
L 217.644442 106.276657 
L 221.229601 96.660924 
L 252.438582 104.676929 
L 252.311559 102.53437 
L 260.903534 108.458601 
L 266.490967 95.847845 
L 257.125126 87.927969 
L 260.514823 84.903927 
L 265.777582 74.930625 
L 273.150453 82.408982 
L 291.075459 110.485338 
L 300.729737 126.904195 
L 312.105809 127.068987 
L 311.901176 125.48325 
L 312.795081 124.002193 
L 313.733918 127.649647 
L 314.815854 130.237871 
L 319.449296 136.5689 
L 326.564694 137.000573 
L 325.861851 158.765592 
L 332.142771 149.740105 
L 333.27412 147.348285 
L 348.159006 140.02902 
L 354.717031 154.776893 
L 356.871416 149.696834 
L 354.902822 137.450383 
L 361.915443 125.792884 
L 368.682977 126.254872 
L 373.253962 129.135369 
L 373.08003 127.68644 
L 371.157555 119.166213 
L 362.322602 118.948822 
L 365.06203 114.069571 
L 367.381123 111.784503 
L 365.218832 110.668786 
L 367.506301 105.357863 
L 375.563831 103.522346 
L 377.382211 100.768812 
L 381.460388 111.396101 
L 398.29094 116.35412 
L 392.46949 118.863057 
L 389.878958 119.467814 
L 398.487273 116.099418 
L 398.25141 116.043192 
L 387.947259 97.0685 
L 384.682082 97.992736 
L 374.110445 128.375148 
L 374.167105 134.503814 
L 369.177102 145.300818 
L 373.55966 170.976027 
L 375.644209 181.100129 
L 374.995917 190.911592 
L 369.785864 193.684196 
L 371.504101 222.134704 
L 355.19798 226.307058 
L 354.910728 224.815014 
L 354.648513 224.824394 
L 346.397286 211.286277 
L 350.864175 205.019367 
L 346.572536 173.178957 
L 356.74492 167.183731 
L 360.274948 152.71984 
L 350.908976 115.391796 
L 355.026683 84.660884 
L 351.573079 73.309131 
L 324.518226 70.555338 
L 315.540175 73.303431 
L 293.159612 58.743151 
L 263.710559 64.358526 
L 263.748376 68.37495 
L 256.36391 66.872904 
L 245.80993 79.675659 
L 238.731162 67.963746 
L 225.38983 73.99447 
L 223.654911 75.419561 
L 223.962362 75.333019 
L 226.246313 82.458472 
L 225.938862 93.729642 
L 224.247861 92.088715 
L 220.532095 90.27885 
L 214.022297 75.339756 
L 210.192749 70.409979 
L 206.327599 67.387232 
L 228.310661 53.568 
L 228.310661 53.568 
" style="fill:none;stroke:#0000ff;stroke-linecap:square;stroke-width:1.1;"/>
   </g>
   <g id="patch_3">
    <path d="M 57.6 307.584 
L 57.6 41.472 
" style="fill:none;stroke:#000000;stroke-linecap:square;stroke-linejoin:miter;stroke-width:0.8;"/>
   </g>
   <g id="patch_4">
    <path d="M 414.72 307.584 
L 414.72 41.472 
" style="fill:none;stroke:#000000;stroke-linecap:square;stroke-linejoin:miter;stroke-width:0.8;"/>
   </g>
   <g id="patch_5">
    <path d="M 57.6 307.584 
L 414.72 307.584 
" style="fill:none;stroke:#000000;stroke-linecap:square;stroke-linejoin:miter;stroke-width:0.8;"/>
   </g>
   <g id="patch_6">
    <path d="M 57.6 41.472 
L 414.72 41.472 
" style="fill:none;stroke:#000000;stroke-linecap:square;stroke-linejoin:miter;stroke-width:0.8;"/>
   </g>
   <g id="text_12">
    <!-- Grafica de la ruta [658, 666, 818, 655, 1073, 1037, 814, 494, 167, 495, 328, 326, 169, 330, 28, 819, 166, 822, 74, 1001, 826, 444, 17, 25, 492, 491, 499, 489, 4, 174, 165, 988, 6, 5, 981, 3, 333, 27, 990, 171, 483, 652, 1075, 512, 821, 75, 346, 183, 179, 671, 16, 520, 186, 675, 339, 502, 340, 1038, 12, 828, 151, 980, 297, 336, 840, 350, 164, 11, 501, 984, 1003, 349, 331, 995, 347, 817, 23, 176, 668, 352, 978, 1004, 351, 991, 185, 22, 676, 490, 344, 665, 673, 173, 667, 184, 815, 172, 182, 839, 496, 19, 505, 168, 9, 1, 829, 661, 832, 657, 663, 508, 986, 2, 656, 507, 7, 823, 678, 816, 187, 982, 14, 181, 332, 345, 820, 26, 654, 653, 163, 329, 509, 493, 979, 837, 8, 662, 999, 334, 674, 985, 825, 500, 504, 511, 327, 670, 20, 660, 510, 343] -->
    <defs>
     <path d="M 59.515625 10.40625 
L 59.515625 29.984375 
L 43.40625 29.984375 
L 43.40625 38.09375 
L 69.28125 38.09375 
L 69.28125 6.78125 
Q 63.578125 2.734375 56.6875 0.65625 
Q 49.8125 -1.421875 42 -1.421875 
Q 24.90625 -1.421875 15.25 8.5625 
Q 5.609375 18.5625 5.609375 36.375 
Q 5.609375 54.25 15.25 64.234375 
Q 24.90625 74.21875 42 74.21875 
Q 49.125 74.21875 55.546875 72.453125 
Q 61.96875 70.703125 67.390625 67.28125 
L 67.390625 56.78125 
Q 61.921875 61.421875 55.765625 63.765625 
Q 49.609375 66.109375 42.828125 66.109375 
Q 29.4375 66.109375 22.71875 58.640625 
Q 16.015625 51.171875 16.015625 36.375 
Q 16.015625 21.625 22.71875 14.15625 
Q 29.4375 6.6875 42.828125 6.6875 
Q 48.046875 6.6875 52.140625 7.59375 
Q 56.25 8.5 59.515625 10.40625 
z
" id="DejaVuSans-47"/>
     <path d="M 41.109375 46.296875 
Q 39.59375 47.171875 37.8125 47.578125 
Q 36.03125 48 33.890625 48 
Q 26.265625 48 22.1875 43.046875 
Q 18.109375 38.09375 18.109375 28.8125 
L 18.109375 0 
L 9.078125 0 
L 9.078125 54.6875 
L 18.109375 54.6875 
L 18.109375 46.1875 
Q 20.953125 51.171875 25.484375 53.578125 
Q 30.03125 56 36.53125 56 
Q 37.453125 56 38.578125 55.875 
Q 39.703125 55.765625 41.0625 55.515625 
z
" id="DejaVuSans-72"/>
     <path d="M 34.28125 27.484375 
Q 23.390625 27.484375 19.1875 25 
Q 14.984375 22.515625 14.984375 16.5 
Q 14.984375 11.71875 18.140625 8.90625 
Q 21.296875 6.109375 26.703125 6.109375 
Q 34.1875 6.109375 38.703125 11.40625 
Q 43.21875 16.703125 43.21875 25.484375 
L 43.21875 27.484375 
z
M 52.203125 31.203125 
L 52.203125 0 
L 43.21875 0 
L 43.21875 8.296875 
Q 40.140625 3.328125 35.546875 0.953125 
Q 30.953125 -1.421875 24.3125 -1.421875 
Q 15.921875 -1.421875 10.953125 3.296875 
Q 6 8.015625 6 15.921875 
Q 6 25.140625 12.171875 29.828125 
Q 18.359375 34.515625 30.609375 34.515625 
L 43.21875 34.515625 
L 43.21875 35.40625 
Q 43.21875 41.609375 39.140625 45 
Q 35.0625 48.390625 27.6875 48.390625 
Q 23 48.390625 18.546875 47.265625 
Q 14.109375 46.140625 10.015625 43.890625 
L 10.015625 52.203125 
Q 14.9375 54.109375 19.578125 55.046875 
Q 24.21875 56 28.609375 56 
Q 40.484375 56 46.34375 49.84375 
Q 52.203125 43.703125 52.203125 31.203125 
z
" id="DejaVuSans-61"/>
     <path d="M 37.109375 75.984375 
L 37.109375 68.5 
L 28.515625 68.5 
Q 23.6875 68.5 21.796875 66.546875 
Q 19.921875 64.59375 19.921875 59.515625 
L 19.921875 54.6875 
L 34.71875 54.6875 
L 34.71875 47.703125 
L 19.921875 47.703125 
L 19.921875 0 
L 10.890625 0 
L 10.890625 47.703125 
L 2.296875 47.703125 
L 2.296875 54.6875 
L 10.890625 54.6875 
L 10.890625 58.5 
Q 10.890625 67.625 15.140625 71.796875 
Q 19.390625 75.984375 28.609375 75.984375 
z
" id="DejaVuSans-66"/>
     <path d="M 9.421875 54.6875 
L 18.40625 54.6875 
L 18.40625 0 
L 9.421875 0 
z
M 9.421875 75.984375 
L 18.40625 75.984375 
L 18.40625 64.59375 
L 9.421875 64.59375 
z
" id="DejaVuSans-69"/>
     <path d="M 48.78125 52.59375 
L 48.78125 44.1875 
Q 44.96875 46.296875 41.140625 47.34375 
Q 37.3125 48.390625 33.40625 48.390625 
Q 24.65625 48.390625 19.8125 42.84375 
Q 14.984375 37.3125 14.984375 27.296875 
Q 14.984375 17.28125 19.8125 11.734375 
Q 24.65625 6.203125 33.40625 6.203125 
Q 37.3125 6.203125 41.140625 7.25 
Q 44.96875 8.296875 48.78125 10.40625 
L 48.78125 2.09375 
Q 45.015625 0.34375 40.984375 -0.53125 
Q 36.96875 -1.421875 32.421875 -1.421875 
Q 20.0625 -1.421875 12.78125 6.34375 
Q 5.515625 14.109375 5.515625 27.296875 
Q 5.515625 40.671875 12.859375 48.328125 
Q 20.21875 56 33.015625 56 
Q 37.15625 56 41.109375 55.140625 
Q 45.0625 54.296875 48.78125 52.59375 
z
" id="DejaVuSans-63"/>
     <path id="DejaVuSans-20"/>
     <path d="M 45.40625 46.390625 
L 45.40625 75.984375 
L 54.390625 75.984375 
L 54.390625 0 
L 45.40625 0 
L 45.40625 8.203125 
Q 42.578125 3.328125 38.25 0.953125 
Q 33.9375 -1.421875 27.875 -1.421875 
Q 17.96875 -1.421875 11.734375 6.484375 
Q 5.515625 14.40625 5.515625 27.296875 
Q 5.515625 40.1875 11.734375 48.09375 
Q 17.96875 56 27.875 56 
Q 33.9375 56 38.25 53.625 
Q 42.578125 51.265625 45.40625 46.390625 
z
M 14.796875 27.296875 
Q 14.796875 17.390625 18.875 11.75 
Q 22.953125 6.109375 30.078125 6.109375 
Q 37.203125 6.109375 41.296875 11.75 
Q 45.40625 17.390625 45.40625 27.296875 
Q 45.40625 37.203125 41.296875 42.84375 
Q 37.203125 48.484375 30.078125 48.484375 
Q 22.953125 48.484375 18.875 42.84375 
Q 14.796875 37.203125 14.796875 27.296875 
z
" id="DejaVuSans-64"/>
     <path d="M 56.203125 29.59375 
L 56.203125 25.203125 
L 14.890625 25.203125 
Q 15.484375 15.921875 20.484375 11.0625 
Q 25.484375 6.203125 34.421875 6.203125 
Q 39.59375 6.203125 44.453125 7.46875 
Q 49.3125 8.734375 54.109375 11.28125 
L 54.109375 2.78125 
Q 49.265625 0.734375 44.1875 -0.34375 
Q 39.109375 -1.421875 33.890625 -1.421875 
Q 20.796875 -1.421875 13.15625 6.1875 
Q 5.515625 13.8125 5.515625 26.8125 
Q 5.515625 40.234375 12.765625 48.109375 
Q 20.015625 56 32.328125 56 
Q 43.359375 56 49.78125 48.890625 
Q 56.203125 41.796875 56.203125 29.59375 
z
M 47.21875 32.234375 
Q 47.125 39.59375 43.09375 43.984375 
Q 39.0625 48.390625 32.421875 48.390625 
Q 24.90625 48.390625 20.390625 44.140625 
Q 15.875 39.890625 15.1875 32.171875 
z
" id="DejaVuSans-65"/>
     <path d="M 9.421875 75.984375 
L 18.40625 75.984375 
L 18.40625 0 
L 9.421875 0 
z
" id="DejaVuSans-6c"/>
     <path d="M 8.5 21.578125 
L 8.5 54.6875 
L 17.484375 54.6875 
L 17.484375 21.921875 
Q 17.484375 14.15625 20.5 10.265625 
Q 23.53125 6.390625 29.59375 6.390625 
Q 36.859375 6.390625 41.078125 11.03125 
Q 45.3125 15.671875 45.3125 23.6875 
L 45.3125 54.6875 
L 54.296875 54.6875 
L 54.296875 0 
L 45.3125 0 
L 45.3125 8.40625 
Q 42.046875 3.421875 37.71875 1 
Q 33.40625 -1.421875 27.6875 -1.421875 
Q 18.265625 -1.421875 13.375 4.4375 
Q 8.5 10.296875 8.5 21.578125 
z
M 31.109375 56 
z
" id="DejaVuSans-75"/>
     <path d="M 18.3125 70.21875 
L 18.3125 54.6875 
L 36.8125 54.6875 
L 36.8125 47.703125 
L 18.3125 47.703125 
L 18.3125 18.015625 
Q 18.3125 11.328125 20.140625 9.421875 
Q 21.96875 7.515625 27.59375 7.515625 
L 36.8125 7.515625 
L 36.8125 0 
L 27.59375 0 
Q 17.1875 0 13.234375 3.875 
Q 9.28125 7.765625 9.28125 18.015625 
L 9.28125 47.703125 
L 2.6875 47.703125 
L 2.6875 54.6875 
L 9.28125 54.6875 
L 9.28125 70.21875 
z
" id="DejaVuSans-74"/>
     <path d="M 8.59375 75.984375 
L 29.296875 75.984375 
L 29.296875 69 
L 17.578125 69 
L 17.578125 -6.203125 
L 29.296875 -6.203125 
L 29.296875 -13.1875 
L 8.59375 -13.1875 
z
" id="DejaVuSans-5b"/>
     <path d="M 31.78125 34.625 
Q 24.75 34.625 20.71875 30.859375 
Q 16.703125 27.09375 16.703125 20.515625 
Q 16.703125 13.921875 20.71875 10.15625 
Q 24.75 6.390625 31.78125 6.390625 
Q 38.8125 6.390625 42.859375 10.171875 
Q 46.921875 13.96875 46.921875 20.515625 
Q 46.921875 27.09375 42.890625 30.859375 
Q 38.875 34.625 31.78125 34.625 
z
M 21.921875 38.8125 
Q 15.578125 40.375 12.03125 44.71875 
Q 8.5 49.078125 8.5 55.328125 
Q 8.5 64.0625 14.71875 69.140625 
Q 20.953125 74.21875 31.78125 74.21875 
Q 42.671875 74.21875 48.875 69.140625 
Q 55.078125 64.0625 55.078125 55.328125 
Q 55.078125 49.078125 51.53125 44.71875 
Q 48 40.375 41.703125 38.8125 
Q 48.828125 37.15625 52.796875 32.3125 
Q 56.78125 27.484375 56.78125 20.515625 
Q 56.78125 9.90625 50.3125 4.234375 
Q 43.84375 -1.421875 31.78125 -1.421875 
Q 19.734375 -1.421875 13.25 4.234375 
Q 6.78125 9.90625 6.78125 20.515625 
Q 6.78125 27.484375 10.78125 32.3125 
Q 14.796875 37.15625 21.921875 38.8125 
z
M 18.3125 54.390625 
Q 18.3125 48.734375 21.84375 45.5625 
Q 25.390625 42.390625 31.78125 42.390625 
Q 38.140625 42.390625 41.71875 45.5625 
Q 45.3125 48.734375 45.3125 54.390625 
Q 45.3125 60.0625 41.71875 63.234375 
Q 38.140625 66.40625 31.78125 66.40625 
Q 25.390625 66.40625 21.84375 63.234375 
Q 18.3125 60.0625 18.3125 54.390625 
z
" id="DejaVuSans-38"/>
     <path d="M 11.71875 12.40625 
L 22.015625 12.40625 
L 22.015625 4 
L 14.015625 -11.625 
L 7.71875 -11.625 
L 11.71875 4 
z
" id="DejaVuSans-2c"/>
     <path d="M 8.203125 72.90625 
L 55.078125 72.90625 
L 55.078125 68.703125 
L 28.609375 0 
L 18.3125 0 
L 43.21875 64.59375 
L 8.203125 64.59375 
z
" id="DejaVuSans-37"/>
     <path d="M 40.578125 39.3125 
Q 47.65625 37.796875 51.625 33 
Q 55.609375 28.21875 55.609375 21.1875 
Q 55.609375 10.40625 48.1875 4.484375 
Q 40.765625 -1.421875 27.09375 -1.421875 
Q 22.515625 -1.421875 17.65625 -0.515625 
Q 12.796875 0.390625 7.625 2.203125 
L 7.625 11.71875 
Q 11.71875 9.328125 16.59375 8.109375 
Q 21.484375 6.890625 26.8125 6.890625 
Q 36.078125 6.890625 40.9375 10.546875 
Q 45.796875 14.203125 45.796875 21.1875 
Q 45.796875 27.640625 41.28125 31.265625 
Q 36.765625 34.90625 28.71875 34.90625 
L 20.21875 34.90625 
L 20.21875 43.015625 
L 29.109375 43.015625 
Q 36.375 43.015625 40.234375 45.921875 
Q 44.09375 48.828125 44.09375 54.296875 
Q 44.09375 59.90625 40.109375 62.90625 
Q 36.140625 65.921875 28.71875 65.921875 
Q 24.65625 65.921875 20.015625 65.03125 
Q 15.375 64.15625 9.8125 62.3125 
L 9.8125 71.09375 
Q 15.4375 72.65625 20.34375 73.4375 
Q 25.25 74.21875 29.59375 74.21875 
Q 40.828125 74.21875 47.359375 69.109375 
Q 53.90625 64.015625 53.90625 55.328125 
Q 53.90625 49.265625 50.4375 45.09375 
Q 46.96875 40.921875 40.578125 39.3125 
z
" id="DejaVuSans-33"/>
     <path d="M 10.984375 1.515625 
L 10.984375 10.5 
Q 14.703125 8.734375 18.5 7.8125 
Q 22.3125 6.890625 25.984375 6.890625 
Q 35.75 6.890625 40.890625 13.453125 
Q 46.046875 20.015625 46.78125 33.40625 
Q 43.953125 29.203125 39.59375 26.953125 
Q 35.25 24.703125 29.984375 24.703125 
Q 19.046875 24.703125 12.671875 31.3125 
Q 6.296875 37.9375 6.296875 49.421875 
Q 6.296875 60.640625 12.9375 67.421875 
Q 19.578125 74.21875 30.609375 74.21875 
Q 43.265625 74.21875 49.921875 64.515625 
Q 56.59375 54.828125 56.59375 36.375 
Q 56.59375 19.140625 48.40625 8.859375 
Q 40.234375 -1.421875 26.421875 -1.421875 
Q 22.703125 -1.421875 18.890625 -0.6875 
Q 15.09375 0.046875 10.984375 1.515625 
z
M 30.609375 32.421875 
Q 37.25 32.421875 41.125 36.953125 
Q 45.015625 41.5 45.015625 49.421875 
Q 45.015625 57.28125 41.125 61.84375 
Q 37.25 66.40625 30.609375 66.40625 
Q 23.96875 66.40625 20.09375 61.84375 
Q 16.21875 57.28125 16.21875 49.421875 
Q 16.21875 41.5 20.09375 36.953125 
Q 23.96875 32.421875 30.609375 32.421875 
z
" id="DejaVuSans-39"/>
     <path d="M 30.421875 75.984375 
L 30.421875 -13.1875 
L 9.71875 -13.1875 
L 9.71875 -6.203125 
L 21.390625 -6.203125 
L 21.390625 69 
L 9.71875 69 
L 9.71875 75.984375 
z
" id="DejaVuSans-5d"/>
    </defs>
    <g transform="translate(-2009.708437 35.472)scale(0.12 -0.12)">
     <use xlink:href="#DejaVuSans-47"/>
     <use x="77.490234" xlink:href="#DejaVuSans-72"/>
     <use x="118.603516" xlink:href="#DejaVuSans-61"/>
     <use x="179.882812" xlink:href="#DejaVuSans-66"/>
     <use x="215.087891" xlink:href="#DejaVuSans-69"/>
     <use x="242.871094" xlink:href="#DejaVuSans-63"/>
     <use x="297.851562" xlink:href="#DejaVuSans-61"/>
     <use x="359.130859" xlink:href="#DejaVuSans-20"/>
     <use x="390.917969" xlink:href="#DejaVuSans-64"/>
     <use x="454.394531" xlink:href="#DejaVuSans-65"/>
     <use x="515.917969" xlink:href="#DejaVuSans-20"/>
     <use x="547.705078" xlink:href="#DejaVuSans-6c"/>
     <use x="575.488281" xlink:href="#DejaVuSans-61"/>
     <use x="636.767578" xlink:href="#DejaVuSans-20"/>
     <use x="668.554688" xlink:href="#DejaVuSans-72"/>
     <use x="709.667969" xlink:href="#DejaVuSans-75"/>
     <use x="773.046875" xlink:href="#DejaVuSans-74"/>
     <use x="812.255859" xlink:href="#DejaVuSans-61"/>
     <use x="873.535156" xlink:href="#DejaVuSans-20"/>
     <use x="905.322266" xlink:href="#DejaVuSans-5b"/>
     <use x="944.335938" xlink:href="#DejaVuSans-36"/>
     <use x="1007.958984" xlink:href="#DejaVuSans-35"/>
     <use x="1071.582031" xlink:href="#DejaVuSans-38"/>
     <use x="1135.205078" xlink:href="#DejaVuSans-2c"/>
     <use x="1166.992188" xlink:href="#DejaVuSans-20"/>
     <use x="1198.779297" xlink:href="#DejaVuSans-36"/>
     <use x="1262.402344" xlink:href="#DejaVuSans-36"/>
     <use x="1326.025391" xlink:href="#DejaVuSans-36"/>
     <use x="1389.648438" xlink:href="#DejaVuSans-2c"/>
     <use x="1421.435547" xlink:href="#DejaVuSans-20"/>
     <use x="1453.222656" xlink:href="#DejaVuSans-38"/>
     <use x="1516.845703" xlink:href="#DejaVuSans-31"/>
     <use x="1580.46875" xlink:href="#DejaVuSans-38"/>
     <use x="1644.091797" xlink:href="#DejaVuSans-2c"/>
     <use x="1675.878906" xlink:href="#DejaVuSans-20"/>
     <use x="1707.666016" xlink:href="#DejaVuSans-36"/>
     <use x="1771.289062" xlink:href="#DejaVuSans-35"/>
     <use x="1834.912109" xlink:href="#DejaVuSans-35"/>
     <use x="1898.535156" xlink:href="#DejaVuSans-2c"/>
     <use x="1930.322266" xlink:href="#DejaVuSans-20"/>
     <use x="1962.109375" xlink:href="#DejaVuSans-31"/>
     <use x="2025.732422" xlink:href="#DejaVuSans-30"/>
     <use x="2089.355469" xlink:href="#DejaVuSans-37"/>
     <use x="2152.978516" xlink:href="#DejaVuSans-33"/>
     <use x="2216.601562" xlink:href="#DejaVuSans-2c"/>
     <use x="2248.388672" xlink:href="#DejaVuSans-20"/>
     <use x="2280.175781" xlink:href="#DejaVuSans-31"/>
     <use x="2343.798828" xlink:href="#DejaVuSans-30"/>
     <use x="2407.421875" xlink:href="#DejaVuSans-33"/>
     <use x="2471.044922" xlink:href="#DejaVuSans-37"/>
     <use x="2534.667969" xlink:href="#DejaVuSans-2c"/>
     <use x="2566.455078" xlink:href="#DejaVuSans-20"/>
     <use x="2598.242188" xlink:href="#DejaVuSans-38"/>
     <use x="2661.865234" xlink:href="#DejaVuSans-31"/>
     <use x="2725.488281" xlink:href="#DejaVuSans-34"/>
     <use x="2789.111328" xlink:href="#DejaVuSans-2c"/>
     <use x="2820.898438" xlink:href="#DejaVuSans-20"/>
     <use x="2852.685547" xlink:href="#DejaVuSans-34"/>
     <use x="2916.308594" xlink:href="#DejaVuSans-39"/>
     <use x="2979.931641" xlink:href="#DejaVuSans-34"/>
     <use x="3043.554688" xlink:href="#DejaVuSans-2c"/>
     <use x="3075.341797" xlink:href="#DejaVuSans-20"/>
     <use x="3107.128906" xlink:href="#DejaVuSans-31"/>
     <use x="3170.751953" xlink:href="#DejaVuSans-36"/>
     <use x="3234.375" xlink:href="#DejaVuSans-37"/>
     <use x="3297.998047" xlink:href="#DejaVuSans-2c"/>
     <use x="3329.785156" xlink:href="#DejaVuSans-20"/>
     <use x="3361.572266" xlink:href="#DejaVuSans-34"/>
     <use x="3425.195312" xlink:href="#DejaVuSans-39"/>
     <use x="3488.818359" xlink:href="#DejaVuSans-35"/>
     <use x="3552.441406" xlink:href="#DejaVuSans-2c"/>
     <use x="3584.228516" xlink:href="#DejaVuSans-20"/>
     <use x="3616.015625" xlink:href="#DejaVuSans-33"/>
     <use x="3679.638672" xlink:href="#DejaVuSans-32"/>
     <use x="3743.261719" xlink:href="#DejaVuSans-38"/>
     <use x="3806.884766" xlink:href="#DejaVuSans-2c"/>
     <use x="3838.671875" xlink:href="#DejaVuSans-20"/>
     <use x="3870.458984" xlink:href="#DejaVuSans-33"/>
     <use x="3934.082031" xlink:href="#DejaVuSans-32"/>
     <use x="3997.705078" xlink:href="#DejaVuSans-36"/>
     <use x="4061.328125" xlink:href="#DejaVuSans-2c"/>
     <use x="4093.115234" xlink:href="#DejaVuSans-20"/>
     <use x="4124.902344" xlink:href="#DejaVuSans-31"/>
     <use x="4188.525391" xlink:href="#DejaVuSans-36"/>
     <use x="4252.148438" xlink:href="#DejaVuSans-39"/>
     <use x="4315.771484" xlink:href="#DejaVuSans-2c"/>
     <use x="4347.558594" xlink:href="#DejaVuSans-20"/>
     <use x="4379.345703" xlink:href="#DejaVuSans-33"/>
     <use x="4442.96875" xlink:href="#DejaVuSans-33"/>
     <use x="4506.591797" xlink:href="#DejaVuSans-30"/>
     <use x="4570.214844" xlink:href="#DejaVuSans-2c"/>
     <use x="4602.001953" xlink:href="#DejaVuSans-20"/>
     <use x="4633.789062" xlink:href="#DejaVuSans-32"/>
     <use x="4697.412109" xlink:href="#DejaVuSans-38"/>
     <use x="4761.035156" xlink:href="#DejaVuSans-2c"/>
     <use x="4792.822266" xlink:href="#DejaVuSans-20"/>
     <use x="4824.609375" xlink:href="#DejaVuSans-38"/>
     <use x="4888.232422" xlink:href="#DejaVuSans-31"/>
     <use x="4951.855469" xlink:href="#DejaVuSans-39"/>
     <use x="5015.478516" xlink:href="#DejaVuSans-2c"/>
     <use x="5047.265625" xlink:href="#DejaVuSans-20"/>
     <use x="5079.052734" xlink:href="#DejaVuSans-31"/>
     <use x="5142.675781" xlink:href="#DejaVuSans-36"/>
     <use x="5206.298828" xlink:href="#DejaVuSans-36"/>
     <use x="5269.921875" xlink:href="#DejaVuSans-2c"/>
     <use x="5301.708984" xlink:href="#DejaVuSans-20"/>
     <use x="5333.496094" xlink:href="#DejaVuSans-38"/>
     <use x="5397.119141" xlink:href="#DejaVuSans-32"/>
     <use x="5460.742188" xlink:href="#DejaVuSans-32"/>
     <use x="5524.365234" xlink:href="#DejaVuSans-2c"/>
     <use x="5556.152344" xlink:href="#DejaVuSans-20"/>
     <use x="5587.939453" xlink:href="#DejaVuSans-37"/>
     <use x="5651.5625" xlink:href="#DejaVuSans-34"/>
     <use x="5715.185547" xlink:href="#DejaVuSans-2c"/>
     <use x="5746.972656" xlink:href="#DejaVuSans-20"/>
     <use x="5778.759766" xlink:href="#DejaVuSans-31"/>
     <use x="5842.382812" xlink:href="#DejaVuSans-30"/>
     <use x="5906.005859" xlink:href="#DejaVuSans-30"/>
     <use x="5969.628906" xlink:href="#DejaVuSans-31"/>
     <use x="6033.251953" xlink:href="#DejaVuSans-2c"/>
     <use x="6065.039062" xlink:href="#DejaVuSans-20"/>
     <use x="6096.826172" xlink:href="#DejaVuSans-38"/>
     <use x="6160.449219" xlink:href="#DejaVuSans-32"/>
     <use x="6224.072266" xlink:href="#DejaVuSans-36"/>
     <use x="6287.695312" xlink:href="#DejaVuSans-2c"/>
     <use x="6319.482422" xlink:href="#DejaVuSans-20"/>
     <use x="6351.269531" xlink:href="#DejaVuSans-34"/>
     <use x="6414.892578" xlink:href="#DejaVuSans-34"/>
     <use x="6478.515625" xlink:href="#DejaVuSans-34"/>
     <use x="6542.138672" xlink:href="#DejaVuSans-2c"/>
     <use x="6573.925781" xlink:href="#DejaVuSans-20"/>
     <use x="6605.712891" xlink:href="#DejaVuSans-31"/>
     <use x="6669.335938" xlink:href="#DejaVuSans-37"/>
     <use x="6732.958984" xlink:href="#DejaVuSans-2c"/>
     <use x="6764.746094" xlink:href="#DejaVuSans-20"/>
     <use x="6796.533203" xlink:href="#DejaVuSans-32"/>
     <use x="6860.15625" xlink:href="#DejaVuSans-35"/>
     <use x="6923.779297" xlink:href="#DejaVuSans-2c"/>
     <use x="6955.566406" xlink:href="#DejaVuSans-20"/>
     <use x="6987.353516" xlink:href="#DejaVuSans-34"/>
     <use x="7050.976562" xlink:href="#DejaVuSans-39"/>
     <use x="7114.599609" xlink:href="#DejaVuSans-32"/>
     <use x="7178.222656" xlink:href="#DejaVuSans-2c"/>
     <use x="7210.009766" xlink:href="#DejaVuSans-20"/>
     <use x="7241.796875" xlink:href="#DejaVuSans-34"/>
     <use x="7305.419922" xlink:href="#DejaVuSans-39"/>
     <use x="7369.042969" xlink:href="#DejaVuSans-31"/>
     <use x="7432.666016" xlink:href="#DejaVuSans-2c"/>
     <use x="7464.453125" xlink:href="#DejaVuSans-20"/>
     <use x="7496.240234" xlink:href="#DejaVuSans-34"/>
     <use x="7559.863281" xlink:href="#DejaVuSans-39"/>
     <use x="7623.486328" xlink:href="#DejaVuSans-39"/>
     <use x="7687.109375" xlink:href="#DejaVuSans-2c"/>
     <use x="7718.896484" xlink:href="#DejaVuSans-20"/>
     <use x="7750.683594" xlink:href="#DejaVuSans-34"/>
     <use x="7814.306641" xlink:href="#DejaVuSans-38"/>
     <use x="7877.929688" xlink:href="#DejaVuSans-39"/>
     <use x="7941.552734" xlink:href="#DejaVuSans-2c"/>
     <use x="7973.339844" xlink:href="#DejaVuSans-20"/>
     <use x="8005.126953" xlink:href="#DejaVuSans-34"/>
     <use x="8068.75" xlink:href="#DejaVuSans-2c"/>
     <use x="8100.537109" xlink:href="#DejaVuSans-20"/>
     <use x="8132.324219" xlink:href="#DejaVuSans-31"/>
     <use x="8195.947266" xlink:href="#DejaVuSans-37"/>
     <use x="8259.570312" xlink:href="#DejaVuSans-34"/>
     <use x="8323.193359" xlink:href="#DejaVuSans-2c"/>
     <use x="8354.980469" xlink:href="#DejaVuSans-20"/>
     <use x="8386.767578" xlink:href="#DejaVuSans-31"/>
     <use x="8450.390625" xlink:href="#DejaVuSans-36"/>
     <use x="8514.013672" xlink:href="#DejaVuSans-35"/>
     <use x="8577.636719" xlink:href="#DejaVuSans-2c"/>
     <use x="8609.423828" xlink:href="#DejaVuSans-20"/>
     <use x="8641.210938" xlink:href="#DejaVuSans-39"/>
     <use x="8704.833984" xlink:href="#DejaVuSans-38"/>
     <use x="8768.457031" xlink:href="#DejaVuSans-38"/>
     <use x="8832.080078" xlink:href="#DejaVuSans-2c"/>
     <use x="8863.867188" xlink:href="#DejaVuSans-20"/>
     <use x="8895.654297" xlink:href="#DejaVuSans-36"/>
     <use x="8959.277344" xlink:href="#DejaVuSans-2c"/>
     <use x="8991.064453" xlink:href="#DejaVuSans-20"/>
     <use x="9022.851562" xlink:href="#DejaVuSans-35"/>
     <use x="9086.474609" xlink:href="#DejaVuSans-2c"/>
     <use x="9118.261719" xlink:href="#DejaVuSans-20"/>
     <use x="9150.048828" xlink:href="#DejaVuSans-39"/>
     <use x="9213.671875" xlink:href="#DejaVuSans-38"/>
     <use x="9277.294922" xlink:href="#DejaVuSans-31"/>
     <use x="9340.917969" xlink:href="#DejaVuSans-2c"/>
     <use x="9372.705078" xlink:href="#DejaVuSans-20"/>
     <use x="9404.492188" xlink:href="#DejaVuSans-33"/>
     <use x="9468.115234" xlink:href="#DejaVuSans-2c"/>
     <use x="9499.902344" xlink:href="#DejaVuSans-20"/>
     <use x="9531.689453" xlink:href="#DejaVuSans-33"/>
     <use x="9595.3125" xlink:href="#DejaVuSans-33"/>
     <use x="9658.935547" xlink:href="#DejaVuSans-33"/>
     <use x="9722.558594" xlink:href="#DejaVuSans-2c"/>
     <use x="9754.345703" xlink:href="#DejaVuSans-20"/>
     <use x="9786.132812" xlink:href="#DejaVuSans-32"/>
     <use x="9849.755859" xlink:href="#DejaVuSans-37"/>
     <use x="9913.378906" xlink:href="#DejaVuSans-2c"/>
     <use x="9945.166016" xlink:href="#DejaVuSans-20"/>
     <use x="9976.953125" xlink:href="#DejaVuSans-39"/>
     <use x="10040.576172" xlink:href="#DejaVuSans-39"/>
     <use x="10104.199219" xlink:href="#DejaVuSans-30"/>
     <use x="10167.822266" xlink:href="#DejaVuSans-2c"/>
     <use x="10199.609375" xlink:href="#DejaVuSans-20"/>
     <use x="10231.396484" xlink:href="#DejaVuSans-31"/>
     <use x="10295.019531" xlink:href="#DejaVuSans-37"/>
     <use x="10358.642578" xlink:href="#DejaVuSans-31"/>
     <use x="10422.265625" xlink:href="#DejaVuSans-2c"/>
     <use x="10454.052734" xlink:href="#DejaVuSans-20"/>
     <use x="10485.839844" xlink:href="#DejaVuSans-34"/>
     <use x="10549.462891" xlink:href="#DejaVuSans-38"/>
     <use x="10613.085938" xlink:href="#DejaVuSans-33"/>
     <use x="10676.708984" xlink:href="#DejaVuSans-2c"/>
     <use x="10708.496094" xlink:href="#DejaVuSans-20"/>
     <use x="10740.283203" xlink:href="#DejaVuSans-36"/>
     <use x="10803.90625" xlink:href="#DejaVuSans-35"/>
     <use x="10867.529297" xlink:href="#DejaVuSans-32"/>
     <use x="10931.152344" xlink:href="#DejaVuSans-2c"/>
     <use x="10962.939453" xlink:href="#DejaVuSans-20"/>
     <use x="10994.726562" xlink:href="#DejaVuSans-31"/>
     <use x="11058.349609" xlink:href="#DejaVuSans-30"/>
     <use x="11121.972656" xlink:href="#DejaVuSans-37"/>
     <use x="11185.595703" xlink:href="#DejaVuSans-35"/>
     <use x="11249.21875" xlink:href="#DejaVuSans-2c"/>
     <use x="11281.005859" xlink:href="#DejaVuSans-20"/>
     <use x="11312.792969" xlink:href="#DejaVuSans-35"/>
     <use x="11376.416016" xlink:href="#DejaVuSans-31"/>
     <use x="11440.039062" xlink:href="#DejaVuSans-32"/>
     <use x="11503.662109" xlink:href="#DejaVuSans-2c"/>
     <use x="11535.449219" xlink:href="#DejaVuSans-20"/>
     <use x="11567.236328" xlink:href="#DejaVuSans-38"/>
     <use x="11630.859375" xlink:href="#DejaVuSans-32"/>
     <use x="11694.482422" xlink:href="#DejaVuSans-31"/>
     <use x="11758.105469" xlink:href="#DejaVuSans-2c"/>
     <use x="11789.892578" xlink:href="#DejaVuSans-20"/>
     <use x="11821.679688" xlink:href="#DejaVuSans-37"/>
     <use x="11885.302734" xlink:href="#DejaVuSans-35"/>
     <use x="11948.925781" xlink:href="#DejaVuSans-2c"/>
     <use x="11980.712891" xlink:href="#DejaVuSans-20"/>
     <use x="12012.5" xlink:href="#DejaVuSans-33"/>
     <use x="12076.123047" xlink:href="#DejaVuSans-34"/>
     <use x="12139.746094" xlink:href="#DejaVuSans-36"/>
     <use x="12203.369141" xlink:href="#DejaVuSans-2c"/>
     <use x="12235.15625" xlink:href="#DejaVuSans-20"/>
     <use x="12266.943359" xlink:href="#DejaVuSans-31"/>
     <use x="12330.566406" xlink:href="#DejaVuSans-38"/>
     <use x="12394.189453" xlink:href="#DejaVuSans-33"/>
     <use x="12457.8125" xlink:href="#DejaVuSans-2c"/>
     <use x="12489.599609" xlink:href="#DejaVuSans-20"/>
     <use x="12521.386719" xlink:href="#DejaVuSans-31"/>
     <use x="12585.009766" xlink:href="#DejaVuSans-37"/>
     <use x="12648.632812" xlink:href="#DejaVuSans-39"/>
     <use x="12712.255859" xlink:href="#DejaVuSans-2c"/>
     <use x="12744.042969" xlink:href="#DejaVuSans-20"/>
     <use x="12775.830078" xlink:href="#DejaVuSans-36"/>
     <use x="12839.453125" xlink:href="#DejaVuSans-37"/>
     <use x="12903.076172" xlink:href="#DejaVuSans-31"/>
     <use x="12966.699219" xlink:href="#DejaVuSans-2c"/>
     <use x="12998.486328" xlink:href="#DejaVuSans-20"/>
     <use x="13030.273438" xlink:href="#DejaVuSans-31"/>
     <use x="13093.896484" xlink:href="#DejaVuSans-36"/>
     <use x="13157.519531" xlink:href="#DejaVuSans-2c"/>
     <use x="13189.306641" xlink:href="#DejaVuSans-20"/>
     <use x="13221.09375" xlink:href="#DejaVuSans-35"/>
     <use x="13284.716797" xlink:href="#DejaVuSans-32"/>
     <use x="13348.339844" xlink:href="#DejaVuSans-30"/>
     <use x="13411.962891" xlink:href="#DejaVuSans-2c"/>
     <use x="13443.75" xlink:href="#DejaVuSans-20"/>
     <use x="13475.537109" xlink:href="#DejaVuSans-31"/>
     <use x="13539.160156" xlink:href="#DejaVuSans-38"/>
     <use x="13602.783203" xlink:href="#DejaVuSans-36"/>
     <use x="13666.40625" xlink:href="#DejaVuSans-2c"/>
     <use x="13698.193359" xlink:href="#DejaVuSans-20"/>
     <use x="13729.980469" xlink:href="#DejaVuSans-36"/>
     <use x="13793.603516" xlink:href="#DejaVuSans-37"/>
     <use x="13857.226562" xlink:href="#DejaVuSans-35"/>
     <use x="13920.849609" xlink:href="#DejaVuSans-2c"/>
     <use x="13952.636719" xlink:href="#DejaVuSans-20"/>
     <use x="13984.423828" xlink:href="#DejaVuSans-33"/>
     <use x="14048.046875" xlink:href="#DejaVuSans-33"/>
     <use x="14111.669922" xlink:href="#DejaVuSans-39"/>
     <use x="14175.292969" xlink:href="#DejaVuSans-2c"/>
     <use x="14207.080078" xlink:href="#DejaVuSans-20"/>
     <use x="14238.867188" xlink:href="#DejaVuSans-35"/>
     <use x="14302.490234" xlink:href="#DejaVuSans-30"/>
     <use x="14366.113281" xlink:href="#DejaVuSans-32"/>
     <use x="14429.736328" xlink:href="#DejaVuSans-2c"/>
     <use x="14461.523438" xlink:href="#DejaVuSans-20"/>
     <use x="14493.310547" xlink:href="#DejaVuSans-33"/>
     <use x="14556.933594" xlink:href="#DejaVuSans-34"/>
     <use x="14620.556641" xlink:href="#DejaVuSans-30"/>
     <use x="14684.179688" xlink:href="#DejaVuSans-2c"/>
     <use x="14715.966797" xlink:href="#DejaVuSans-20"/>
     <use x="14747.753906" xlink:href="#DejaVuSans-31"/>
     <use x="14811.376953" xlink:href="#DejaVuSans-30"/>
     <use x="14875" xlink:href="#DejaVuSans-33"/>
     <use x="14938.623047" xlink:href="#DejaVuSans-38"/>
     <use x="15002.246094" xlink:href="#DejaVuSans-2c"/>
     <use x="15034.033203" xlink:href="#DejaVuSans-20"/>
     <use x="15065.820312" xlink:href="#DejaVuSans-31"/>
     <use x="15129.443359" xlink:href="#DejaVuSans-32"/>
     <use x="15193.066406" xlink:href="#DejaVuSans-2c"/>
     <use x="15224.853516" xlink:href="#DejaVuSans-20"/>
     <use x="15256.640625" xlink:href="#DejaVuSans-38"/>
     <use x="15320.263672" xlink:href="#DejaVuSans-32"/>
     <use x="15383.886719" xlink:href="#DejaVuSans-38"/>
     <use x="15447.509766" xlink:href="#DejaVuSans-2c"/>
     <use x="15479.296875" xlink:href="#DejaVuSans-20"/>
     <use x="15511.083984" xlink:href="#DejaVuSans-31"/>
     <use x="15574.707031" xlink:href="#DejaVuSans-35"/>
     <use x="15638.330078" xlink:href="#DejaVuSans-31"/>
     <use x="15701.953125" xlink:href="#DejaVuSans-2c"/>
     <use x="15733.740234" xlink:href="#DejaVuSans-20"/>
     <use x="15765.527344" xlink:href="#DejaVuSans-39"/>
     <use x="15829.150391" xlink:href="#DejaVuSans-38"/>
     <use x="15892.773438" xlink:href="#DejaVuSans-30"/>
     <use x="15956.396484" xlink:href="#DejaVuSans-2c"/>
     <use x="15988.183594" xlink:href="#DejaVuSans-20"/>
     <use x="16019.970703" xlink:href="#DejaVuSans-32"/>
     <use x="16083.59375" xlink:href="#DejaVuSans-39"/>
     <use x="16147.216797" xlink:href="#DejaVuSans-37"/>
     <use x="16210.839844" xlink:href="#DejaVuSans-2c"/>
     <use x="16242.626953" xlink:href="#DejaVuSans-20"/>
     <use x="16274.414062" xlink:href="#DejaVuSans-33"/>
     <use x="16338.037109" xlink:href="#DejaVuSans-33"/>
     <use x="16401.660156" xlink:href="#DejaVuSans-36"/>
     <use x="16465.283203" xlink:href="#DejaVuSans-2c"/>
     <use x="16497.070312" xlink:href="#DejaVuSans-20"/>
     <use x="16528.857422" xlink:href="#DejaVuSans-38"/>
     <use x="16592.480469" xlink:href="#DejaVuSans-34"/>
     <use x="16656.103516" xlink:href="#DejaVuSans-30"/>
     <use x="16719.726562" xlink:href="#DejaVuSans-2c"/>
     <use x="16751.513672" xlink:href="#DejaVuSans-20"/>
     <use x="16783.300781" xlink:href="#DejaVuSans-33"/>
     <use x="16846.923828" xlink:href="#DejaVuSans-35"/>
     <use x="16910.546875" xlink:href="#DejaVuSans-30"/>
     <use x="16974.169922" xlink:href="#DejaVuSans-2c"/>
     <use x="17005.957031" xlink:href="#DejaVuSans-20"/>
     <use x="17037.744141" xlink:href="#DejaVuSans-31"/>
     <use x="17101.367188" xlink:href="#DejaVuSans-36"/>
     <use x="17164.990234" xlink:href="#DejaVuSans-34"/>
     <use x="17228.613281" xlink:href="#DejaVuSans-2c"/>
     <use x="17260.400391" xlink:href="#DejaVuSans-20"/>
     <use x="17292.1875" xlink:href="#DejaVuSans-31"/>
     <use x="17355.810547" xlink:href="#DejaVuSans-31"/>
     <use x="17419.433594" xlink:href="#DejaVuSans-2c"/>
     <use x="17451.220703" xlink:href="#DejaVuSans-20"/>
     <use x="17483.007812" xlink:href="#DejaVuSans-35"/>
     <use x="17546.630859" xlink:href="#DejaVuSans-30"/>
     <use x="17610.253906" xlink:href="#DejaVuSans-31"/>
     <use x="17673.876953" xlink:href="#DejaVuSans-2c"/>
     <use x="17705.664062" xlink:href="#DejaVuSans-20"/>
     <use x="17737.451172" xlink:href="#DejaVuSans-39"/>
     <use x="17801.074219" xlink:href="#DejaVuSans-38"/>
     <use x="17864.697266" xlink:href="#DejaVuSans-34"/>
     <use x="17928.320312" xlink:href="#DejaVuSans-2c"/>
     <use x="17960.107422" xlink:href="#DejaVuSans-20"/>
     <use x="17991.894531" xlink:href="#DejaVuSans-31"/>
     <use x="18055.517578" xlink:href="#DejaVuSans-30"/>
     <use x="18119.140625" xlink:href="#DejaVuSans-30"/>
     <use x="18182.763672" xlink:href="#DejaVuSans-33"/>
     <use x="18246.386719" xlink:href="#DejaVuSans-2c"/>
     <use x="18278.173828" xlink:href="#DejaVuSans-20"/>
     <use x="18309.960938" xlink:href="#DejaVuSans-33"/>
     <use x="18373.583984" xlink:href="#DejaVuSans-34"/>
     <use x="18437.207031" xlink:href="#DejaVuSans-39"/>
     <use x="18500.830078" xlink:href="#DejaVuSans-2c"/>
     <use x="18532.617188" xlink:href="#DejaVuSans-20"/>
     <use x="18564.404297" xlink:href="#DejaVuSans-33"/>
     <use x="18628.027344" xlink:href="#DejaVuSans-33"/>
     <use x="18691.650391" xlink:href="#DejaVuSans-31"/>
     <use x="18755.273438" xlink:href="#DejaVuSans-2c"/>
     <use x="18787.060547" xlink:href="#DejaVuSans-20"/>
     <use x="18818.847656" xlink:href="#DejaVuSans-39"/>
     <use x="18882.470703" xlink:href="#DejaVuSans-39"/>
     <use x="18946.09375" xlink:href="#DejaVuSans-35"/>
     <use x="19009.716797" xlink:href="#DejaVuSans-2c"/>
     <use x="19041.503906" xlink:href="#DejaVuSans-20"/>
     <use x="19073.291016" xlink:href="#DejaVuSans-33"/>
     <use x="19136.914062" xlink:href="#DejaVuSans-34"/>
     <use x="19200.537109" xlink:href="#DejaVuSans-37"/>
     <use x="19264.160156" xlink:href="#DejaVuSans-2c"/>
     <use x="19295.947266" xlink:href="#DejaVuSans-20"/>
     <use x="19327.734375" xlink:href="#DejaVuSans-38"/>
     <use x="19391.357422" xlink:href="#DejaVuSans-31"/>
     <use x="19454.980469" xlink:href="#DejaVuSans-37"/>
     <use x="19518.603516" xlink:href="#DejaVuSans-2c"/>
     <use x="19550.390625" xlink:href="#DejaVuSans-20"/>
     <use x="19582.177734" xlink:href="#DejaVuSans-32"/>
     <use x="19645.800781" xlink:href="#DejaVuSans-33"/>
     <use x="19709.423828" xlink:href="#DejaVuSans-2c"/>
     <use x="19741.210938" xlink:href="#DejaVuSans-20"/>
     <use x="19772.998047" xlink:href="#DejaVuSans-31"/>
     <use x="19836.621094" xlink:href="#DejaVuSans-37"/>
     <use x="19900.244141" xlink:href="#DejaVuSans-36"/>
     <use x="19963.867188" xlink:href="#DejaVuSans-2c"/>
     <use x="19995.654297" xlink:href="#DejaVuSans-20"/>
     <use x="20027.441406" xlink:href="#DejaVuSans-36"/>
     <use x="20091.064453" xlink:href="#DejaVuSans-36"/>
     <use x="20154.6875" xlink:href="#DejaVuSans-38"/>
     <use x="20218.310547" xlink:href="#DejaVuSans-2c"/>
     <use x="20250.097656" xlink:href="#DejaVuSans-20"/>
     <use x="20281.884766" xlink:href="#DejaVuSans-33"/>
     <use x="20345.507812" xlink:href="#DejaVuSans-35"/>
     <use x="20409.130859" xlink:href="#DejaVuSans-32"/>
     <use x="20472.753906" xlink:href="#DejaVuSans-2c"/>
     <use x="20504.541016" xlink:href="#DejaVuSans-20"/>
     <use x="20536.328125" xlink:href="#DejaVuSans-39"/>
     <use x="20599.951172" xlink:href="#DejaVuSans-37"/>
     <use x="20663.574219" xlink:href="#DejaVuSans-38"/>
     <use x="20727.197266" xlink:href="#DejaVuSans-2c"/>
     <use x="20758.984375" xlink:href="#DejaVuSans-20"/>
     <use x="20790.771484" xlink:href="#DejaVuSans-31"/>
     <use x="20854.394531" xlink:href="#DejaVuSans-30"/>
     <use x="20918.017578" xlink:href="#DejaVuSans-30"/>
     <use x="20981.640625" xlink:href="#DejaVuSans-34"/>
     <use x="21045.263672" xlink:href="#DejaVuSans-2c"/>
     <use x="21077.050781" xlink:href="#DejaVuSans-20"/>
     <use x="21108.837891" xlink:href="#DejaVuSans-33"/>
     <use x="21172.460938" xlink:href="#DejaVuSans-35"/>
     <use x="21236.083984" xlink:href="#DejaVuSans-31"/>
     <use x="21299.707031" xlink:href="#DejaVuSans-2c"/>
     <use x="21331.494141" xlink:href="#DejaVuSans-20"/>
     <use x="21363.28125" xlink:href="#DejaVuSans-39"/>
     <use x="21426.904297" xlink:href="#DejaVuSans-39"/>
     <use x="21490.527344" xlink:href="#DejaVuSans-31"/>
     <use x="21554.150391" xlink:href="#DejaVuSans-2c"/>
     <use x="21585.9375" xlink:href="#DejaVuSans-20"/>
     <use x="21617.724609" xlink:href="#DejaVuSans-31"/>
     <use x="21681.347656" xlink:href="#DejaVuSans-38"/>
     <use x="21744.970703" xlink:href="#DejaVuSans-35"/>
     <use x="21808.59375" xlink:href="#DejaVuSans-2c"/>
     <use x="21840.380859" xlink:href="#DejaVuSans-20"/>
     <use x="21872.167969" xlink:href="#DejaVuSans-32"/>
     <use x="21935.791016" xlink:href="#DejaVuSans-32"/>
     <use x="21999.414062" xlink:href="#DejaVuSans-2c"/>
     <use x="22031.201172" xlink:href="#DejaVuSans-20"/>
     <use x="22062.988281" xlink:href="#DejaVuSans-36"/>
     <use x="22126.611328" xlink:href="#DejaVuSans-37"/>
     <use x="22190.234375" xlink:href="#DejaVuSans-36"/>
     <use x="22253.857422" xlink:href="#DejaVuSans-2c"/>
     <use x="22285.644531" xlink:href="#DejaVuSans-20"/>
     <use x="22317.431641" xlink:href="#DejaVuSans-34"/>
     <use x="22381.054688" xlink:href="#DejaVuSans-39"/>
     <use x="22444.677734" xlink:href="#DejaVuSans-30"/>
     <use x="22508.300781" xlink:href="#DejaVuSans-2c"/>
     <use x="22540.087891" xlink:href="#DejaVuSans-20"/>
     <use x="22571.875" xlink:href="#DejaVuSans-33"/>
     <use x="22635.498047" xlink:href="#DejaVuSans-34"/>
     <use x="22699.121094" xlink:href="#DejaVuSans-34"/>
     <use x="22762.744141" xlink:href="#DejaVuSans-2c"/>
     <use x="22794.53125" xlink:href="#DejaVuSans-20"/>
     <use x="22826.318359" xlink:href="#DejaVuSans-36"/>
     <use x="22889.941406" xlink:href="#DejaVuSans-36"/>
     <use x="22953.564453" xlink:href="#DejaVuSans-35"/>
     <use x="23017.1875" xlink:href="#DejaVuSans-2c"/>
     <use x="23048.974609" xlink:href="#DejaVuSans-20"/>
     <use x="23080.761719" xlink:href="#DejaVuSans-36"/>
     <use x="23144.384766" xlink:href="#DejaVuSans-37"/>
     <use x="23208.007812" xlink:href="#DejaVuSans-33"/>
     <use x="23271.630859" xlink:href="#DejaVuSans-2c"/>
     <use x="23303.417969" xlink:href="#DejaVuSans-20"/>
     <use x="23335.205078" xlink:href="#DejaVuSans-31"/>
     <use x="23398.828125" xlink:href="#DejaVuSans-37"/>
     <use x="23462.451172" xlink:href="#DejaVuSans-33"/>
     <use x="23526.074219" xlink:href="#DejaVuSans-2c"/>
     <use x="23557.861328" xlink:href="#DejaVuSans-20"/>
     <use x="23589.648438" xlink:href="#DejaVuSans-36"/>
     <use x="23653.271484" xlink:href="#DejaVuSans-36"/>
     <use x="23716.894531" xlink:href="#DejaVuSans-37"/>
     <use x="23780.517578" xlink:href="#DejaVuSans-2c"/>
     <use x="23812.304688" xlink:href="#DejaVuSans-20"/>
     <use x="23844.091797" xlink:href="#DejaVuSans-31"/>
     <use x="23907.714844" xlink:href="#DejaVuSans-38"/>
     <use x="23971.337891" xlink:href="#DejaVuSans-34"/>
     <use x="24034.960938" xlink:href="#DejaVuSans-2c"/>
     <use x="24066.748047" xlink:href="#DejaVuSans-20"/>
     <use x="24098.535156" xlink:href="#DejaVuSans-38"/>
     <use x="24162.158203" xlink:href="#DejaVuSans-31"/>
     <use x="24225.78125" xlink:href="#DejaVuSans-35"/>
     <use x="24289.404297" xlink:href="#DejaVuSans-2c"/>
     <use x="24321.191406" xlink:href="#DejaVuSans-20"/>
     <use x="24352.978516" xlink:href="#DejaVuSans-31"/>
     <use x="24416.601562" xlink:href="#DejaVuSans-37"/>
     <use x="24480.224609" xlink:href="#DejaVuSans-32"/>
     <use x="24543.847656" xlink:href="#DejaVuSans-2c"/>
     <use x="24575.634766" xlink:href="#DejaVuSans-20"/>
     <use x="24607.421875" xlink:href="#DejaVuSans-31"/>
     <use x="24671.044922" xlink:href="#DejaVuSans-38"/>
     <use x="24734.667969" xlink:href="#DejaVuSans-32"/>
     <use x="24798.291016" xlink:href="#DejaVuSans-2c"/>
     <use x="24830.078125" xlink:href="#DejaVuSans-20"/>
     <use x="24861.865234" xlink:href="#DejaVuSans-38"/>
     <use x="24925.488281" xlink:href="#DejaVuSans-33"/>
     <use x="24989.111328" xlink:href="#DejaVuSans-39"/>
     <use x="25052.734375" xlink:href="#DejaVuSans-2c"/>
     <use x="25084.521484" xlink:href="#DejaVuSans-20"/>
     <use x="25116.308594" xlink:href="#DejaVuSans-34"/>
     <use x="25179.931641" xlink:href="#DejaVuSans-39"/>
     <use x="25243.554688" xlink:href="#DejaVuSans-36"/>
     <use x="25307.177734" xlink:href="#DejaVuSans-2c"/>
     <use x="25338.964844" xlink:href="#DejaVuSans-20"/>
     <use x="25370.751953" xlink:href="#DejaVuSans-31"/>
     <use x="25434.375" xlink:href="#DejaVuSans-39"/>
     <use x="25497.998047" xlink:href="#DejaVuSans-2c"/>
     <use x="25529.785156" xlink:href="#DejaVuSans-20"/>
     <use x="25561.572266" xlink:href="#DejaVuSans-35"/>
     <use x="25625.195312" xlink:href="#DejaVuSans-30"/>
     <use x="25688.818359" xlink:href="#DejaVuSans-35"/>
     <use x="25752.441406" xlink:href="#DejaVuSans-2c"/>
     <use x="25784.228516" xlink:href="#DejaVuSans-20"/>
     <use x="25816.015625" xlink:href="#DejaVuSans-31"/>
     <use x="25879.638672" xlink:href="#DejaVuSans-36"/>
     <use x="25943.261719" xlink:href="#DejaVuSans-38"/>
     <use x="26006.884766" xlink:href="#DejaVuSans-2c"/>
     <use x="26038.671875" xlink:href="#DejaVuSans-20"/>
     <use x="26070.458984" xlink:href="#DejaVuSans-39"/>
     <use x="26134.082031" xlink:href="#DejaVuSans-2c"/>
     <use x="26165.869141" xlink:href="#DejaVuSans-20"/>
     <use x="26197.65625" xlink:href="#DejaVuSans-31"/>
     <use x="26261.279297" xlink:href="#DejaVuSans-2c"/>
     <use x="26293.066406" xlink:href="#DejaVuSans-20"/>
     <use x="26324.853516" xlink:href="#DejaVuSans-38"/>
     <use x="26388.476562" xlink:href="#DejaVuSans-32"/>
     <use x="26452.099609" xlink:href="#DejaVuSans-39"/>
     <use x="26515.722656" xlink:href="#DejaVuSans-2c"/>
     <use x="26547.509766" xlink:href="#DejaVuSans-20"/>
     <use x="26579.296875" xlink:href="#DejaVuSans-36"/>
     <use x="26642.919922" xlink:href="#DejaVuSans-36"/>
     <use x="26706.542969" xlink:href="#DejaVuSans-31"/>
     <use x="26770.166016" xlink:href="#DejaVuSans-2c"/>
     <use x="26801.953125" xlink:href="#DejaVuSans-20"/>
     <use x="26833.740234" xlink:href="#DejaVuSans-38"/>
     <use x="26897.363281" xlink:href="#DejaVuSans-33"/>
     <use x="26960.986328" xlink:href="#DejaVuSans-32"/>
     <use x="27024.609375" xlink:href="#DejaVuSans-2c"/>
     <use x="27056.396484" xlink:href="#DejaVuSans-20"/>
     <use x="27088.183594" xlink:href="#DejaVuSans-36"/>
     <use x="27151.806641" xlink:href="#DejaVuSans-35"/>
     <use x="27215.429688" xlink:href="#DejaVuSans-37"/>
     <use x="27279.052734" xlink:href="#DejaVuSans-2c"/>
     <use x="27310.839844" xlink:href="#DejaVuSans-20"/>
     <use x="27342.626953" xlink:href="#DejaVuSans-36"/>
     <use x="27406.25" xlink:href="#DejaVuSans-36"/>
     <use x="27469.873047" xlink:href="#DejaVuSans-33"/>
     <use x="27533.496094" xlink:href="#DejaVuSans-2c"/>
     <use x="27565.283203" xlink:href="#DejaVuSans-20"/>
     <use x="27597.070312" xlink:href="#DejaVuSans-35"/>
     <use x="27660.693359" xlink:href="#DejaVuSans-30"/>
     <use x="27724.316406" xlink:href="#DejaVuSans-38"/>
     <use x="27787.939453" xlink:href="#DejaVuSans-2c"/>
     <use x="27819.726562" xlink:href="#DejaVuSans-20"/>
     <use x="27851.513672" xlink:href="#DejaVuSans-39"/>
     <use x="27915.136719" xlink:href="#DejaVuSans-38"/>
     <use x="27978.759766" xlink:href="#DejaVuSans-36"/>
     <use x="28042.382812" xlink:href="#DejaVuSans-2c"/>
     <use x="28074.169922" xlink:href="#DejaVuSans-20"/>
     <use x="28105.957031" xlink:href="#DejaVuSans-32"/>
     <use x="28169.580078" xlink:href="#DejaVuSans-2c"/>
     <use x="28201.367188" xlink:href="#DejaVuSans-20"/>
     <use x="28233.154297" xlink:href="#DejaVuSans-36"/>
     <use x="28296.777344" xlink:href="#DejaVuSans-35"/>
     <use x="28360.400391" xlink:href="#DejaVuSans-36"/>
     <use x="28424.023438" xlink:href="#DejaVuSans-2c"/>
     <use x="28455.810547" xlink:href="#DejaVuSans-20"/>
     <use x="28487.597656" xlink:href="#DejaVuSans-35"/>
     <use x="28551.220703" xlink:href="#DejaVuSans-30"/>
     <use x="28614.84375" xlink:href="#DejaVuSans-37"/>
     <use x="28678.466797" xlink:href="#DejaVuSans-2c"/>
     <use x="28710.253906" xlink:href="#DejaVuSans-20"/>
     <use x="28742.041016" xlink:href="#DejaVuSans-37"/>
     <use x="28805.664062" xlink:href="#DejaVuSans-2c"/>
     <use x="28837.451172" xlink:href="#DejaVuSans-20"/>
     <use x="28869.238281" xlink:href="#DejaVuSans-38"/>
     <use x="28932.861328" xlink:href="#DejaVuSans-32"/>
     <use x="28996.484375" xlink:href="#DejaVuSans-33"/>
     <use x="29060.107422" xlink:href="#DejaVuSans-2c"/>
     <use x="29091.894531" xlink:href="#DejaVuSans-20"/>
     <use x="29123.681641" xlink:href="#DejaVuSans-36"/>
     <use x="29187.304688" xlink:href="#DejaVuSans-37"/>
     <use x="29250.927734" xlink:href="#DejaVuSans-38"/>
     <use x="29314.550781" xlink:href="#DejaVuSans-2c"/>
     <use x="29346.337891" xlink:href="#DejaVuSans-20"/>
     <use x="29378.125" xlink:href="#DejaVuSans-38"/>
     <use x="29441.748047" xlink:href="#DejaVuSans-31"/>
     <use x="29505.371094" xlink:href="#DejaVuSans-36"/>
     <use x="29568.994141" xlink:href="#DejaVuSans-2c"/>
     <use x="29600.78125" xlink:href="#DejaVuSans-20"/>
     <use x="29632.568359" xlink:href="#DejaVuSans-31"/>
     <use x="29696.191406" xlink:href="#DejaVuSans-38"/>
     <use x="29759.814453" xlink:href="#DejaVuSans-37"/>
     <use x="29823.4375" xlink:href="#DejaVuSans-2c"/>
     <use x="29855.224609" xlink:href="#DejaVuSans-20"/>
     <use x="29887.011719" xlink:href="#DejaVuSans-39"/>
     <use x="29950.634766" xlink:href="#DejaVuSans-38"/>
     <use x="30014.257812" xlink:href="#DejaVuSans-32"/>
     <use x="30077.880859" xlink:href="#DejaVuSans-2c"/>
     <use x="30109.667969" xlink:href="#DejaVuSans-20"/>
     <use x="30141.455078" xlink:href="#DejaVuSans-31"/>
     <use x="30205.078125" xlink:href="#DejaVuSans-34"/>
     <use x="30268.701172" xlink:href="#DejaVuSans-2c"/>
     <use x="30300.488281" xlink:href="#DejaVuSans-20"/>
     <use x="30332.275391" xlink:href="#DejaVuSans-31"/>
     <use x="30395.898438" xlink:href="#DejaVuSans-38"/>
     <use x="30459.521484" xlink:href="#DejaVuSans-31"/>
     <use x="30523.144531" xlink:href="#DejaVuSans-2c"/>
     <use x="30554.931641" xlink:href="#DejaVuSans-20"/>
     <use x="30586.71875" xlink:href="#DejaVuSans-33"/>
     <use x="30650.341797" xlink:href="#DejaVuSans-33"/>
     <use x="30713.964844" xlink:href="#DejaVuSans-32"/>
     <use x="30777.587891" xlink:href="#DejaVuSans-2c"/>
     <use x="30809.375" xlink:href="#DejaVuSans-20"/>
     <use x="30841.162109" xlink:href="#DejaVuSans-33"/>
     <use x="30904.785156" xlink:href="#DejaVuSans-34"/>
     <use x="30968.408203" xlink:href="#DejaVuSans-35"/>
     <use x="31032.03125" xlink:href="#DejaVuSans-2c"/>
     <use x="31063.818359" xlink:href="#DejaVuSans-20"/>
     <use x="31095.605469" xlink:href="#DejaVuSans-38"/>
     <use x="31159.228516" xlink:href="#DejaVuSans-32"/>
     <use x="31222.851562" xlink:href="#DejaVuSans-30"/>
     <use x="31286.474609" xlink:href="#DejaVuSans-2c"/>
     <use x="31318.261719" xlink:href="#DejaVuSans-20"/>
     <use x="31350.048828" xlink:href="#DejaVuSans-32"/>
     <use x="31413.671875" xlink:href="#DejaVuSans-36"/>
     <use x="31477.294922" xlink:href="#DejaVuSans-2c"/>
     <use x="31509.082031" xlink:href="#DejaVuSans-20"/>
     <use x="31540.869141" xlink:href="#DejaVuSans-36"/>
     <use x="31604.492188" xlink:href="#DejaVuSans-35"/>
     <use x="31668.115234" xlink:href="#DejaVuSans-34"/>
     <use x="31731.738281" xlink:href="#DejaVuSans-2c"/>
     <use x="31763.525391" xlink:href="#DejaVuSans-20"/>
     <use x="31795.3125" xlink:href="#DejaVuSans-36"/>
     <use x="31858.935547" xlink:href="#DejaVuSans-35"/>
     <use x="31922.558594" xlink:href="#DejaVuSans-33"/>
     <use x="31986.181641" xlink:href="#DejaVuSans-2c"/>
     <use x="32017.96875" xlink:href="#DejaVuSans-20"/>
     <use x="32049.755859" xlink:href="#DejaVuSans-31"/>
     <use x="32113.378906" xlink:href="#DejaVuSans-36"/>
     <use x="32177.001953" xlink:href="#DejaVuSans-33"/>
     <use x="32240.625" xlink:href="#DejaVuSans-2c"/>
     <use x="32272.412109" xlink:href="#DejaVuSans-20"/>
     <use x="32304.199219" xlink:href="#DejaVuSans-33"/>
     <use x="32367.822266" xlink:href="#DejaVuSans-32"/>
     <use x="32431.445312" xlink:href="#DejaVuSans-39"/>
     <use x="32495.068359" xlink:href="#DejaVuSans-2c"/>
     <use x="32526.855469" xlink:href="#DejaVuSans-20"/>
     <use x="32558.642578" xlink:href="#DejaVuSans-35"/>
     <use x="32622.265625" xlink:href="#DejaVuSans-30"/>
     <use x="32685.888672" xlink:href="#DejaVuSans-39"/>
     <use x="32749.511719" xlink:href="#DejaVuSans-2c"/>
     <use x="32781.298828" xlink:href="#DejaVuSans-20"/>
     <use x="32813.085938" xlink:href="#DejaVuSans-34"/>
     <use x="32876.708984" xlink:href="#DejaVuSans-39"/>
     <use x="32940.332031" xlink:href="#DejaVuSans-33"/>
     <use x="33003.955078" xlink:href="#DejaVuSans-2c"/>
     <use x="33035.742188" xlink:href="#DejaVuSans-20"/>
     <use x="33067.529297" xlink:href="#DejaVuSans-39"/>
     <use x="33131.152344" xlink:href="#DejaVuSans-37"/>
     <use x="33194.775391" xlink:href="#DejaVuSans-39"/>
     <use x="33258.398438" xlink:href="#DejaVuSans-2c"/>
     <use x="33290.185547" xlink:href="#DejaVuSans-20"/>
     <use x="33321.972656" xlink:href="#DejaVuSans-38"/>
     <use x="33385.595703" xlink:href="#DejaVuSans-33"/>
     <use x="33449.21875" xlink:href="#DejaVuSans-37"/>
     <use x="33512.841797" xlink:href="#DejaVuSans-2c"/>
     <use x="33544.628906" xlink:href="#DejaVuSans-20"/>
     <use x="33576.416016" xlink:href="#DejaVuSans-38"/>
     <use x="33640.039062" xlink:href="#DejaVuSans-2c"/>
     <use x="33671.826172" xlink:href="#DejaVuSans-20"/>
     <use x="33703.613281" xlink:href="#DejaVuSans-36"/>
     <use x="33767.236328" xlink:href="#DejaVuSans-36"/>
     <use x="33830.859375" xlink:href="#DejaVuSans-32"/>
     <use x="33894.482422" xlink:href="#DejaVuSans-2c"/>
     <use x="33926.269531" xlink:href="#DejaVuSans-20"/>
     <use x="33958.056641" xlink:href="#DejaVuSans-39"/>
     <use x="34021.679688" xlink:href="#DejaVuSans-39"/>
     <use x="34085.302734" xlink:href="#DejaVuSans-39"/>
     <use x="34148.925781" xlink:href="#DejaVuSans-2c"/>
     <use x="34180.712891" xlink:href="#DejaVuSans-20"/>
     <use x="34212.5" xlink:href="#DejaVuSans-33"/>
     <use x="34276.123047" xlink:href="#DejaVuSans-33"/>
     <use x="34339.746094" xlink:href="#DejaVuSans-34"/>
     <use x="34403.369141" xlink:href="#DejaVuSans-2c"/>
     <use x="34435.15625" xlink:href="#DejaVuSans-20"/>
     <use x="34466.943359" xlink:href="#DejaVuSans-36"/>
     <use x="34530.566406" xlink:href="#DejaVuSans-37"/>
     <use x="34594.189453" xlink:href="#DejaVuSans-34"/>
     <use x="34657.8125" xlink:href="#DejaVuSans-2c"/>
     <use x="34689.599609" xlink:href="#DejaVuSans-20"/>
     <use x="34721.386719" xlink:href="#DejaVuSans-39"/>
     <use x="34785.009766" xlink:href="#DejaVuSans-38"/>
     <use x="34848.632812" xlink:href="#DejaVuSans-35"/>
     <use x="34912.255859" xlink:href="#DejaVuSans-2c"/>
     <use x="34944.042969" xlink:href="#DejaVuSans-20"/>
     <use x="34975.830078" xlink:href="#DejaVuSans-38"/>
     <use x="35039.453125" xlink:href="#DejaVuSans-32"/>
     <use x="35103.076172" xlink:href="#DejaVuSans-35"/>
     <use x="35166.699219" xlink:href="#DejaVuSans-2c"/>
     <use x="35198.486328" xlink:href="#DejaVuSans-20"/>
     <use x="35230.273438" xlink:href="#DejaVuSans-35"/>
     <use x="35293.896484" xlink:href="#DejaVuSans-30"/>
     <use x="35357.519531" xlink:href="#DejaVuSans-30"/>
     <use x="35421.142578" xlink:href="#DejaVuSans-2c"/>
     <use x="35452.929688" xlink:href="#DejaVuSans-20"/>
     <use x="35484.716797" xlink:href="#DejaVuSans-35"/>
     <use x="35548.339844" xlink:href="#DejaVuSans-30"/>
     <use x="35611.962891" xlink:href="#DejaVuSans-34"/>
     <use x="35675.585938" xlink:href="#DejaVuSans-2c"/>
     <use x="35707.373047" xlink:href="#DejaVuSans-20"/>
     <use x="35739.160156" xlink:href="#DejaVuSans-35"/>
     <use x="35802.783203" xlink:href="#DejaVuSans-31"/>
     <use x="35866.40625" xlink:href="#DejaVuSans-31"/>
     <use x="35930.029297" xlink:href="#DejaVuSans-2c"/>
     <use x="35961.816406" xlink:href="#DejaVuSans-20"/>
     <use x="35993.603516" xlink:href="#DejaVuSans-33"/>
     <use x="36057.226562" xlink:href="#DejaVuSans-32"/>
     <use x="36120.849609" xlink:href="#DejaVuSans-37"/>
     <use x="36184.472656" xlink:href="#DejaVuSans-2c"/>
     <use x="36216.259766" xlink:href="#DejaVuSans-20"/>
     <use x="36248.046875" xlink:href="#DejaVuSans-36"/>
     <use x="36311.669922" xlink:href="#DejaVuSans-37"/>
     <use x="36375.292969" xlink:href="#DejaVuSans-30"/>
     <use x="36438.916016" xlink:href="#DejaVuSans-2c"/>
     <use x="36470.703125" xlink:href="#DejaVuSans-20"/>
     <use x="36502.490234" xlink:href="#DejaVuSans-32"/>
     <use x="36566.113281" xlink:href="#DejaVuSans-30"/>
     <use x="36629.736328" xlink:href="#DejaVuSans-2c"/>
     <use x="36661.523438" xlink:href="#DejaVuSans-20"/>
     <use x="36693.310547" xlink:href="#DejaVuSans-36"/>
     <use x="36756.933594" xlink:href="#DejaVuSans-36"/>
     <use x="36820.556641" xlink:href="#DejaVuSans-30"/>
     <use x="36884.179688" xlink:href="#DejaVuSans-2c"/>
     <use x="36915.966797" xlink:href="#DejaVuSans-20"/>
     <use x="36947.753906" xlink:href="#DejaVuSans-35"/>
     <use x="37011.376953" xlink:href="#DejaVuSans-31"/>
     <use x="37075" xlink:href="#DejaVuSans-30"/>
     <use x="37138.623047" xlink:href="#DejaVuSans-2c"/>
     <use x="37170.410156" xlink:href="#DejaVuSans-20"/>
     <use x="37202.197266" xlink:href="#DejaVuSans-33"/>
     <use x="37265.820312" xlink:href="#DejaVuSans-34"/>
     <use x="37329.443359" xlink:href="#DejaVuSans-33"/>
     <use x="37393.066406" xlink:href="#DejaVuSans-5d"/>
    </g>
   </g>
  </g>
 </g>
 <defs>
  <clipPath id="p723c942a78">
   <rect height="266.112" width="357.12" x="57.6" y="41.472"/>
  </clipPath>
 </defs>
</svg>
