<?xml version="1.0" encoding="utf-8" standalone="no"?>
<!DOCTYPE svg PUBLIC "-//W3C//DTD SVG 1.1//EN"
  "http://www.w3.org/Graphics/SVG/1.1/DTD/svg11.dtd">
<!-- Created with matplotlib (http://matplotlib.org/) -->
<svg height="345.6pt" version="1.1" viewBox="0 0 460.8 345.6" width="460.8pt" xmlns="http://www.w3.org/2000/svg" xmlns:xlink="http://www.w3.org/1999/xlink">
 <defs>
  <style type="text/css">
*{stroke-linecap:butt;stroke-linejoin:round;}
  </style>
 </defs>
 <g id="figure_1">
  <g id="patch_1">
   <path d="M 0 345.6 
L 460.8 345.6 
L 460.8 0 
L 0 0 
z
" style="fill:#ffffff;"/>
  </g>
  <g id="axes_1">
   <g id="patch_2">
    <path d="M 57.6 307.584 
L 414.72 307.584 
L 414.72 41.472 
L 57.6 41.472 
z
" style="fill:#ffffff;"/>
   </g>
   <g id="matplotlib.axis_1">
    <g id="xtick_1">
     <g id="line2d_1">
      <defs>
       <path d="M 0 0 
L 0 3.5 
" id="m23a12bfb86" style="stroke:#000000;stroke-width:0.8;"/>
      </defs>
      <g>
       <use style="stroke:#000000;stroke-width:0.8;" x="82.379111" xlink:href="#m23a12bfb86" y="307.584"/>
      </g>
     </g>
     <g id="text_1">
      <!-- −100 -->
      <defs>
       <path d="M 10.59375 35.5 
L 73.1875 35.5 
L 73.1875 27.203125 
L 10.59375 27.203125 
z
" id="DejaVuSans-2212"/>
       <path d="M 12.40625 8.296875 
L 28.515625 8.296875 
L 28.515625 63.921875 
L 10.984375 60.40625 
L 10.984375 69.390625 
L 28.421875 72.90625 
L 38.28125 72.90625 
L 38.28125 8.296875 
L 54.390625 8.296875 
L 54.390625 0 
L 12.40625 0 
z
" id="DejaVuSans-31"/>
       <path d="M 31.78125 66.40625 
Q 24.171875 66.40625 20.328125 58.90625 
Q 16.5 51.421875 16.5 36.375 
Q 16.5 21.390625 20.328125 13.890625 
Q 24.171875 6.390625 31.78125 6.390625 
Q 39.453125 6.390625 43.28125 13.890625 
Q 47.125 21.390625 47.125 36.375 
Q 47.125 51.421875 43.28125 58.90625 
Q 39.453125 66.40625 31.78125 66.40625 
z
M 31.78125 74.21875 
Q 44.046875 74.21875 50.515625 64.515625 
Q 56.984375 54.828125 56.984375 36.375 
Q 56.984375 17.96875 50.515625 8.265625 
Q 44.046875 -1.421875 31.78125 -1.421875 
Q 19.53125 -1.421875 13.0625 8.265625 
Q 6.59375 17.96875 6.59375 36.375 
Q 6.59375 54.828125 13.0625 64.515625 
Q 19.53125 74.21875 31.78125 74.21875 
z
" id="DejaVuSans-30"/>
      </defs>
      <g transform="translate(68.645518 322.182437)scale(0.1 -0.1)">
       <use xlink:href="#DejaVuSans-2212"/>
       <use x="83.789062" xlink:href="#DejaVuSans-31"/>
       <use x="147.412109" xlink:href="#DejaVuSans-30"/>
       <use x="211.035156" xlink:href="#DejaVuSans-30"/>
      </g>
     </g>
    </g>
    <g id="xtick_2">
     <g id="line2d_2">
      <g>
       <use style="stroke:#000000;stroke-width:0.8;" x="148.26243" xlink:href="#m23a12bfb86" y="307.584"/>
      </g>
     </g>
     <g id="text_2">
      <!-- −50 -->
      <defs>
       <path d="M 10.796875 72.90625 
L 49.515625 72.90625 
L 49.515625 64.59375 
L 19.828125 64.59375 
L 19.828125 46.734375 
Q 21.96875 47.46875 24.109375 47.828125 
Q 26.265625 48.1875 28.421875 48.1875 
Q 40.625 48.1875 47.75 41.5 
Q 54.890625 34.8125 54.890625 23.390625 
Q 54.890625 11.625 47.5625 5.09375 
Q 40.234375 -1.421875 26.90625 -1.421875 
Q 22.3125 -1.421875 17.546875 -0.640625 
Q 12.796875 0.140625 7.71875 1.703125 
L 7.71875 11.625 
Q 12.109375 9.234375 16.796875 8.0625 
Q 21.484375 6.890625 26.703125 6.890625 
Q 35.15625 6.890625 40.078125 11.328125 
Q 45.015625 15.765625 45.015625 23.390625 
Q 45.015625 31 40.078125 35.4375 
Q 35.15625 39.890625 26.703125 39.890625 
Q 22.75 39.890625 18.8125 39.015625 
Q 14.890625 38.140625 10.796875 36.28125 
z
" id="DejaVuSans-35"/>
      </defs>
      <g transform="translate(137.710086 322.182437)scale(0.1 -0.1)">
       <use xlink:href="#DejaVuSans-2212"/>
       <use x="83.789062" xlink:href="#DejaVuSans-35"/>
       <use x="147.412109" xlink:href="#DejaVuSans-30"/>
      </g>
     </g>
    </g>
    <g id="xtick_3">
     <g id="line2d_3">
      <g>
       <use style="stroke:#000000;stroke-width:0.8;" x="214.145748" xlink:href="#m23a12bfb86" y="307.584"/>
      </g>
     </g>
     <g id="text_3">
      <!-- 0 -->
      <g transform="translate(210.964498 322.182437)scale(0.1 -0.1)">
       <use xlink:href="#DejaVuSans-30"/>
      </g>
     </g>
    </g>
    <g id="xtick_4">
     <g id="line2d_4">
      <g>
       <use style="stroke:#000000;stroke-width:0.8;" x="280.029066" xlink:href="#m23a12bfb86" y="307.584"/>
      </g>
     </g>
     <g id="text_4">
      <!-- 50 -->
      <g transform="translate(273.666566 322.182437)scale(0.1 -0.1)">
       <use xlink:href="#DejaVuSans-35"/>
       <use x="63.623047" xlink:href="#DejaVuSans-30"/>
      </g>
     </g>
    </g>
    <g id="xtick_5">
     <g id="line2d_5">
      <g>
       <use style="stroke:#000000;stroke-width:0.8;" x="345.912385" xlink:href="#m23a12bfb86" y="307.584"/>
      </g>
     </g>
     <g id="text_5">
      <!-- 100 -->
      <g transform="translate(336.368635 322.182437)scale(0.1 -0.1)">
       <use xlink:href="#DejaVuSans-31"/>
       <use x="63.623047" xlink:href="#DejaVuSans-30"/>
       <use x="127.246094" xlink:href="#DejaVuSans-30"/>
      </g>
     </g>
    </g>
    <g id="xtick_6">
     <g id="line2d_6">
      <g>
       <use style="stroke:#000000;stroke-width:0.8;" x="411.795703" xlink:href="#m23a12bfb86" y="307.584"/>
      </g>
     </g>
     <g id="text_6">
      <!-- 150 -->
      <g transform="translate(402.251953 322.182437)scale(0.1 -0.1)">
       <use xlink:href="#DejaVuSans-31"/>
       <use x="63.623047" xlink:href="#DejaVuSans-35"/>
       <use x="127.246094" xlink:href="#DejaVuSans-30"/>
      </g>
     </g>
    </g>
   </g>
   <g id="matplotlib.axis_2">
    <g id="ytick_1">
     <g id="line2d_7">
      <defs>
       <path d="M 0 0 
L -3.5 0 
" id="m9f24d2cc1f" style="stroke:#000000;stroke-width:0.8;"/>
      </defs>
      <g>
       <use style="stroke:#000000;stroke-width:0.8;" x="57.6" xlink:href="#m9f24d2cc1f" y="260.638059"/>
      </g>
     </g>
     <g id="text_7">
      <!-- −20 -->
      <defs>
       <path d="M 19.1875 8.296875 
L 53.609375 8.296875 
L 53.609375 0 
L 7.328125 0 
L 7.328125 8.296875 
Q 12.9375 14.109375 22.625 23.890625 
Q 32.328125 33.6875 34.8125 36.53125 
Q 39.546875 41.84375 41.421875 45.53125 
Q 43.3125 49.21875 43.3125 52.78125 
Q 43.3125 58.59375 39.234375 62.25 
Q 35.15625 65.921875 28.609375 65.921875 
Q 23.96875 65.921875 18.8125 64.3125 
Q 13.671875 62.703125 7.8125 59.421875 
L 7.8125 69.390625 
Q 13.765625 71.78125 18.9375 73 
Q 24.125 74.21875 28.421875 74.21875 
Q 39.75 74.21875 46.484375 68.546875 
Q 53.21875 62.890625 53.21875 53.421875 
Q 53.21875 48.921875 51.53125 44.890625 
Q 49.859375 40.875 45.40625 35.40625 
Q 44.1875 33.984375 37.640625 27.21875 
Q 31.109375 20.453125 19.1875 8.296875 
z
" id="DejaVuSans-32"/>
      </defs>
      <g transform="translate(29.495313 264.437278)scale(0.1 -0.1)">
       <use xlink:href="#DejaVuSans-2212"/>
       <use x="83.789062" xlink:href="#DejaVuSans-32"/>
       <use x="147.412109" xlink:href="#DejaVuSans-30"/>
      </g>
     </g>
    </g>
    <g id="ytick_2">
     <g id="line2d_8">
      <g>
       <use style="stroke:#000000;stroke-width:0.8;" x="57.6" xlink:href="#m9f24d2cc1f" y="208.816585"/>
      </g>
     </g>
     <g id="text_8">
      <!-- 0 -->
      <g transform="translate(44.2375 212.615804)scale(0.1 -0.1)">
       <use xlink:href="#DejaVuSans-30"/>
      </g>
     </g>
    </g>
    <g id="ytick_3">
     <g id="line2d_9">
      <g>
       <use style="stroke:#000000;stroke-width:0.8;" x="57.6" xlink:href="#m9f24d2cc1f" y="156.995111"/>
      </g>
     </g>
     <g id="text_9">
      <!-- 20 -->
      <g transform="translate(37.875 160.79433)scale(0.1 -0.1)">
       <use xlink:href="#DejaVuSans-32"/>
       <use x="63.623047" xlink:href="#DejaVuSans-30"/>
      </g>
     </g>
    </g>
    <g id="ytick_4">
     <g id="line2d_10">
      <g>
       <use style="stroke:#000000;stroke-width:0.8;" x="57.6" xlink:href="#m9f24d2cc1f" y="105.173637"/>
      </g>
     </g>
     <g id="text_10">
      <!-- 40 -->
      <defs>
       <path d="M 37.796875 64.3125 
L 12.890625 25.390625 
L 37.796875 25.390625 
z
M 35.203125 72.90625 
L 47.609375 72.90625 
L 47.609375 25.390625 
L 58.015625 25.390625 
L 58.015625 17.1875 
L 47.609375 17.1875 
L 47.609375 0 
L 37.796875 0 
L 37.796875 17.1875 
L 4.890625 17.1875 
L 4.890625 26.703125 
z
" id="DejaVuSans-34"/>
      </defs>
      <g transform="translate(37.875 108.972856)scale(0.1 -0.1)">
       <use xlink:href="#DejaVuSans-34"/>
       <use x="63.623047" xlink:href="#DejaVuSans-30"/>
      </g>
     </g>
    </g>
    <g id="ytick_5">
     <g id="line2d_11">
      <g>
       <use style="stroke:#000000;stroke-width:0.8;" x="57.6" xlink:href="#m9f24d2cc1f" y="53.352164"/>
      </g>
     </g>
     <g id="text_11">
      <!-- 60 -->
      <defs>
       <path d="M 33.015625 40.375 
Q 26.375 40.375 22.484375 35.828125 
Q 18.609375 31.296875 18.609375 23.390625 
Q 18.609375 15.53125 22.484375 10.953125 
Q 26.375 6.390625 33.015625 6.390625 
Q 39.65625 6.390625 43.53125 10.953125 
Q 47.40625 15.53125 47.40625 23.390625 
Q 47.40625 31.296875 43.53125 35.828125 
Q 39.65625 40.375 33.015625 40.375 
z
M 52.59375 71.296875 
L 52.59375 62.3125 
Q 48.875 64.0625 45.09375 64.984375 
Q 41.3125 65.921875 37.59375 65.921875 
Q 27.828125 65.921875 22.671875 59.328125 
Q 17.53125 52.734375 16.796875 39.40625 
Q 19.671875 43.65625 24.015625 45.921875 
Q 28.375 48.1875 33.59375 48.1875 
Q 44.578125 48.1875 50.953125 41.515625 
Q 57.328125 34.859375 57.328125 23.390625 
Q 57.328125 12.15625 50.6875 5.359375 
Q 44.046875 -1.421875 33.015625 -1.421875 
Q 20.359375 -1.421875 13.671875 8.265625 
Q 6.984375 17.96875 6.984375 36.375 
Q 6.984375 53.65625 15.1875 63.9375 
Q 23.390625 74.21875 37.203125 74.21875 
Q 40.921875 74.21875 44.703125 73.484375 
Q 48.484375 72.75 52.59375 71.296875 
z
" id="DejaVuSans-36"/>
      </defs>
      <g transform="translate(37.875 57.151382)scale(0.1 -0.1)">
       <use xlink:href="#DejaVuSans-36"/>
       <use x="63.623047" xlink:href="#DejaVuSans-30"/>
      </g>
     </g>
    </g>
   </g>
   <g id="line2d_12">
    <path clip-path="url(#p207c4dba32)" d="M 318.636691 157.124665 
L 326.564694 137.000573 
L 325.861851 158.765592 
L 332.142771 149.740105 
L 333.27412 147.348285 
L 350.908976 115.391796 
L 348.159006 140.02902 
L 354.902822 137.450383 
L 356.871416 149.696834 
L 360.274948 152.71984 
L 354.717031 154.776893 
L 356.74492 167.183731 
L 346.572536 173.178957 
L 346.699032 173.576946 
L 346.397286 211.286277 
L 350.864175 205.019367 
L 354.910728 224.815014 
L 354.648513 224.824394 
L 355.19798 226.307058 
L 371.504101 222.134704 
L 369.785864 193.684196 
L 374.995917 190.911592 
L 375.644209 181.100129 
L 373.55966 170.976027 
L 369.177102 145.300818 
L 361.915443 125.792884 
L 368.682977 126.254872 
L 362.322602 118.948822 
L 365.06203 114.069571 
L 367.381123 111.784503 
L 367.506301 105.357863 
L 365.218832 110.668786 
L 371.157555 119.166213 
L 373.08003 127.68644 
L 373.253962 129.135369 
L 374.167105 134.503814 
L 374.110445 128.375148 
L 381.460388 111.396101 
L 398.29094 116.35412 
L 392.646058 118.690492 
L 389.878958 119.467814 
L 392.46949 118.863057 
L 398.487273 116.099418 
L 398.25141 116.043192 
L 387.947259 97.0685 
L 384.682082 97.992736 
L 375.563831 103.522346 
L 377.382211 100.768812 
L 355.026683 84.660884 
L 351.573079 73.309131 
L 324.518226 70.555338 
L 315.540175 73.303431 
L 312.795081 124.002193 
L 311.901176 125.48325 
L 312.105809 127.068987 
L 313.733918 127.649647 
L 314.815854 130.237871 
L 319.449296 136.5689 
L 315.891597 134.539053 
L 315.869592 134.711877 
L 312.487537 143.132867 
L 310.598926 151.035642 
L 304.239473 143.023005 
L 302.537707 144.28434 
L 285.78292 145.421562 
L 272.642097 122.433816 
L 272.639857 116.916124 
L 260.903534 108.458601 
L 252.311559 102.53437 
L 252.438582 104.676929 
L 255.322822 130.954821 
L 240.586964 125.599849 
L 234.030124 124.922024 
L 224.247861 92.088715 
L 221.229601 96.660924 
L 225.938862 93.729642 
L 220.532095 90.27885 
L 226.246313 82.458472 
L 214.022297 75.339756 
L 210.192749 70.409979 
L 206.327599 67.387232 
L 228.310661 53.568 
L 225.38983 73.99447 
L 223.962362 75.333019 
L 223.654911 75.419561 
L 238.731162 67.963746 
L 245.80993 79.675659 
L 257.125126 87.927969 
L 260.514823 84.903927 
L 265.777582 74.930625 
L 263.748376 68.37495 
L 256.36391 66.872904 
L 263.710559 64.358526 
L 293.159612 58.743151 
L 273.150453 82.408982 
L 266.490967 95.847845 
L 273.536134 111.508035 
L 279.479863 112.219285 
L 291.075459 110.485338 
L 300.729737 126.904195 
L 310.105855 159.650962 
L 313.190381 169.043604 
L 316.374653 175.175898 
L 314.57393 181.56704 
L 276.756905 257.831149 
L 266.413224 219.310433 
L 265.908031 226.435886 
L 265.883523 247.992842 
L 251.527152 276.797549 
L 251.450596 276.679137 
L 250.943031 277.928553 
L 260.264071 249.712278 
L 257.056344 207.998956 
L 250.337695 239.045864 
L 243.684929 224.093115 
L 234.306043 219.958202 
L 226.597695 207.823341 
L 226.927112 198.322011 
L 225.111368 195.986365 
L 220.14113 186.792459 
L 218.55993 190.290408 
L 218.620319 192.096231 
L 212.015516 191.499584 
L 217.242264 192.10416 
L 218.769004 191.675389 
L 225.872979 183.121762 
L 217.644442 106.276657 
L 206.485297 116.106414 
L 203.593507 126.857038 
L 201.974227 125.126459 
L 191.16815 170.803461 
L 191.833308 170.468694 
L 193.612158 178.112362 
L 150.260934 212.573642 
L 129.946867 231.531673 
L 114.585513 192.396122 
L 107.621251 117.541091 
L 73.83668 126.593266 
L 83.382778 158.344024 
L 99.223236 172.282446 
L 110.708938 209.377985 
L 119.886484 251.307343 
L 121.030614 295.488 
L 136.622033 280.020845 
L 146.747113 269.188602 
L 152.72049 270.225032 
L 157.021222 265.176843 
L 156.952835 267.794604 
L 156.952835 267.794604 
" style="fill:none;stroke:#0000ff;stroke-linecap:square;stroke-width:1.1;"/>
   </g>
   <g id="patch_3">
    <path d="M 57.6 307.584 
L 57.6 41.472 
" style="fill:none;stroke:#000000;stroke-linecap:square;stroke-linejoin:miter;stroke-width:0.8;"/>
   </g>
   <g id="patch_4">
    <path d="M 414.72 307.584 
L 414.72 41.472 
" style="fill:none;stroke:#000000;stroke-linecap:square;stroke-linejoin:miter;stroke-width:0.8;"/>
   </g>
   <g id="patch_5">
    <path d="M 57.6 307.584 
L 414.72 307.584 
" style="fill:none;stroke:#000000;stroke-linecap:square;stroke-linejoin:miter;stroke-width:0.8;"/>
   </g>
   <g id="patch_6">
    <path d="M 57.6 41.472 
L 414.72 41.472 
" style="fill:none;stroke:#000000;stroke-linecap:square;stroke-linejoin:miter;stroke-width:0.8;"/>
   </g>
   <g id="text_12">
    <!-- Grafica de la ruta [981, 351, 991, 185, 22, 163, 676, 665, 344, 653, 490, 654, 26, 820, 332, 345, 14, 181, 982, 187, 816, 678, 823, 7, 507, 673, 173, 172, 182, 839, 19, 496, 815, 184, 667, 656, 2, 9, 1, 829, 832, 661, 657, 663, 508, 986, 505, 168, 329, 509, 493, 979, 668, 176, 23, 352, 978, 1004, 5, 6, 988, 165, 174, 4, 489, 25, 492, 501, 11, 164, 17, 444, 826, 327, 350, 511, 670, 504, 20, 660, 510, 343, 985, 500, 825, 674, 334, 1003, 349, 331, 662, 999, 8, 837, 995, 984, 491, 499, 347, 817, 3, 333, 27, 990, 171, 346, 75, 821, 1075, 483, 652, 512, 183, 179, 671, 16, 520, 186, 675, 340, 502, 12, 151, 828, 1038, 339, 840, 336, 297, 980, 74, 1001, 822, 166, 1073, 1037, 814, 494, 495, 167, 328, 326, 169, 330, 28, 819, 655, 818, 658, 666] -->
    <defs>
     <path d="M 59.515625 10.40625 
L 59.515625 29.984375 
L 43.40625 29.984375 
L 43.40625 38.09375 
L 69.28125 38.09375 
L 69.28125 6.78125 
Q 63.578125 2.734375 56.6875 0.65625 
Q 49.8125 -1.421875 42 -1.421875 
Q 24.90625 -1.421875 15.25 8.5625 
Q 5.609375 18.5625 5.609375 36.375 
Q 5.609375 54.25 15.25 64.234375 
Q 24.90625 74.21875 42 74.21875 
Q 49.125 74.21875 55.546875 72.453125 
Q 61.96875 70.703125 67.390625 67.28125 
L 67.390625 56.78125 
Q 61.921875 61.421875 55.765625 63.765625 
Q 49.609375 66.109375 42.828125 66.109375 
Q 29.4375 66.109375 22.71875 58.640625 
Q 16.015625 51.171875 16.015625 36.375 
Q 16.015625 21.625 22.71875 14.15625 
Q 29.4375 6.6875 42.828125 6.6875 
Q 48.046875 6.6875 52.140625 7.59375 
Q 56.25 8.5 59.515625 10.40625 
z
" id="DejaVuSans-47"/>
     <path d="M 41.109375 46.296875 
Q 39.59375 47.171875 37.8125 47.578125 
Q 36.03125 48 33.890625 48 
Q 26.265625 48 22.1875 43.046875 
Q 18.109375 38.09375 18.109375 28.8125 
L 18.109375 0 
L 9.078125 0 
L 9.078125 54.6875 
L 18.109375 54.6875 
L 18.109375 46.1875 
Q 20.953125 51.171875 25.484375 53.578125 
Q 30.03125 56 36.53125 56 
Q 37.453125 56 38.578125 55.875 
Q 39.703125 55.765625 41.0625 55.515625 
z
" id="DejaVuSans-72"/>
     <path d="M 34.28125 27.484375 
Q 23.390625 27.484375 19.1875 25 
Q 14.984375 22.515625 14.984375 16.5 
Q 14.984375 11.71875 18.140625 8.90625 
Q 21.296875 6.109375 26.703125 6.109375 
Q 34.1875 6.109375 38.703125 11.40625 
Q 43.21875 16.703125 43.21875 25.484375 
L 43.21875 27.484375 
z
M 52.203125 31.203125 
L 52.203125 0 
L 43.21875 0 
L 43.21875 8.296875 
Q 40.140625 3.328125 35.546875 0.953125 
Q 30.953125 -1.421875 24.3125 -1.421875 
Q 15.921875 -1.421875 10.953125 3.296875 
Q 6 8.015625 6 15.921875 
Q 6 25.140625 12.171875 29.828125 
Q 18.359375 34.515625 30.609375 34.515625 
L 43.21875 34.515625 
L 43.21875 35.40625 
Q 43.21875 41.609375 39.140625 45 
Q 35.0625 48.390625 27.6875 48.390625 
Q 23 48.390625 18.546875 47.265625 
Q 14.109375 46.140625 10.015625 43.890625 
L 10.015625 52.203125 
Q 14.9375 54.109375 19.578125 55.046875 
Q 24.21875 56 28.609375 56 
Q 40.484375 56 46.34375 49.84375 
Q 52.203125 43.703125 52.203125 31.203125 
z
" id="DejaVuSans-61"/>
     <path d="M 37.109375 75.984375 
L 37.109375 68.5 
L 28.515625 68.5 
Q 23.6875 68.5 21.796875 66.546875 
Q 19.921875 64.59375 19.921875 59.515625 
L 19.921875 54.6875 
L 34.71875 54.6875 
L 34.71875 47.703125 
L 19.921875 47.703125 
L 19.921875 0 
L 10.890625 0 
L 10.890625 47.703125 
L 2.296875 47.703125 
L 2.296875 54.6875 
L 10.890625 54.6875 
L 10.890625 58.5 
Q 10.890625 67.625 15.140625 71.796875 
Q 19.390625 75.984375 28.609375 75.984375 
z
" id="DejaVuSans-66"/>
     <path d="M 9.421875 54.6875 
L 18.40625 54.6875 
L 18.40625 0 
L 9.421875 0 
z
M 9.421875 75.984375 
L 18.40625 75.984375 
L 18.40625 64.59375 
L 9.421875 64.59375 
z
" id="DejaVuSans-69"/>
     <path d="M 48.78125 52.59375 
L 48.78125 44.1875 
Q 44.96875 46.296875 41.140625 47.34375 
Q 37.3125 48.390625 33.40625 48.390625 
Q 24.65625 48.390625 19.8125 42.84375 
Q 14.984375 37.3125 14.984375 27.296875 
Q 14.984375 17.28125 19.8125 11.734375 
Q 24.65625 6.203125 33.40625 6.203125 
Q 37.3125 6.203125 41.140625 7.25 
Q 44.96875 8.296875 48.78125 10.40625 
L 48.78125 2.09375 
Q 45.015625 0.34375 40.984375 -0.53125 
Q 36.96875 -1.421875 32.421875 -1.421875 
Q 20.0625 -1.421875 12.78125 6.34375 
Q 5.515625 14.109375 5.515625 27.296875 
Q 5.515625 40.671875 12.859375 48.328125 
Q 20.21875 56 33.015625 56 
Q 37.15625 56 41.109375 55.140625 
Q 45.0625 54.296875 48.78125 52.59375 
z
" id="DejaVuSans-63"/>
     <path id="DejaVuSans-20"/>
     <path d="M 45.40625 46.390625 
L 45.40625 75.984375 
L 54.390625 75.984375 
L 54.390625 0 
L 45.40625 0 
L 45.40625 8.203125 
Q 42.578125 3.328125 38.25 0.953125 
Q 33.9375 -1.421875 27.875 -1.421875 
Q 17.96875 -1.421875 11.734375 6.484375 
Q 5.515625 14.40625 5.515625 27.296875 
Q 5.515625 40.1875 11.734375 48.09375 
Q 17.96875 56 27.875 56 
Q 33.9375 56 38.25 53.625 
Q 42.578125 51.265625 45.40625 46.390625 
z
M 14.796875 27.296875 
Q 14.796875 17.390625 18.875 11.75 
Q 22.953125 6.109375 30.078125 6.109375 
Q 37.203125 6.109375 41.296875 11.75 
Q 45.40625 17.390625 45.40625 27.296875 
Q 45.40625 37.203125 41.296875 42.84375 
Q 37.203125 48.484375 30.078125 48.484375 
Q 22.953125 48.484375 18.875 42.84375 
Q 14.796875 37.203125 14.796875 27.296875 
z
" id="DejaVuSans-64"/>
     <path d="M 56.203125 29.59375 
L 56.203125 25.203125 
L 14.890625 25.203125 
Q 15.484375 15.921875 20.484375 11.0625 
Q 25.484375 6.203125 34.421875 6.203125 
Q 39.59375 6.203125 44.453125 7.46875 
Q 49.3125 8.734375 54.109375 11.28125 
L 54.109375 2.78125 
Q 49.265625 0.734375 44.1875 -0.34375 
Q 39.109375 -1.421875 33.890625 -1.421875 
Q 20.796875 -1.421875 13.15625 6.1875 
Q 5.515625 13.8125 5.515625 26.8125 
Q 5.515625 40.234375 12.765625 48.109375 
Q 20.015625 56 32.328125 56 
Q 43.359375 56 49.78125 48.890625 
Q 56.203125 41.796875 56.203125 29.59375 
z
M 47.21875 32.234375 
Q 47.125 39.59375 43.09375 43.984375 
Q 39.0625 48.390625 32.421875 48.390625 
Q 24.90625 48.390625 20.390625 44.140625 
Q 15.875 39.890625 15.1875 32.171875 
z
" id="DejaVuSans-65"/>
     <path d="M 9.421875 75.984375 
L 18.40625 75.984375 
L 18.40625 0 
L 9.421875 0 
z
" id="DejaVuSans-6c"/>
     <path d="M 8.5 21.578125 
L 8.5 54.6875 
L 17.484375 54.6875 
L 17.484375 21.921875 
Q 17.484375 14.15625 20.5 10.265625 
Q 23.53125 6.390625 29.59375 6.390625 
Q 36.859375 6.390625 41.078125 11.03125 
Q 45.3125 15.671875 45.3125 23.6875 
L 45.3125 54.6875 
L 54.296875 54.6875 
L 54.296875 0 
L 45.3125 0 
L 45.3125 8.40625 
Q 42.046875 3.421875 37.71875 1 
Q 33.40625 -1.421875 27.6875 -1.421875 
Q 18.265625 -1.421875 13.375 4.4375 
Q 8.5 10.296875 8.5 21.578125 
z
M 31.109375 56 
z
" id="DejaVuSans-75"/>
     <path d="M 18.3125 70.21875 
L 18.3125 54.6875 
L 36.8125 54.6875 
L 36.8125 47.703125 
L 18.3125 47.703125 
L 18.3125 18.015625 
Q 18.3125 11.328125 20.140625 9.421875 
Q 21.96875 7.515625 27.59375 7.515625 
L 36.8125 7.515625 
L 36.8125 0 
L 27.59375 0 
Q 17.1875 0 13.234375 3.875 
Q 9.28125 7.765625 9.28125 18.015625 
L 9.28125 47.703125 
L 2.6875 47.703125 
L 2.6875 54.6875 
L 9.28125 54.6875 
L 9.28125 70.21875 
z
" id="DejaVuSans-74"/>
     <path d="M 8.59375 75.984375 
L 29.296875 75.984375 
L 29.296875 69 
L 17.578125 69 
L 17.578125 -6.203125 
L 29.296875 -6.203125 
L 29.296875 -13.1875 
L 8.59375 -13.1875 
z
" id="DejaVuSans-5b"/>
     <path d="M 10.984375 1.515625 
L 10.984375 10.5 
Q 14.703125 8.734375 18.5 7.8125 
Q 22.3125 6.890625 25.984375 6.890625 
Q 35.75 6.890625 40.890625 13.453125 
Q 46.046875 20.015625 46.78125 33.40625 
Q 43.953125 29.203125 39.59375 26.953125 
Q 35.25 24.703125 29.984375 24.703125 
Q 19.046875 24.703125 12.671875 31.3125 
Q 6.296875 37.9375 6.296875 49.421875 
Q 6.296875 60.640625 12.9375 67.421875 
Q 19.578125 74.21875 30.609375 74.21875 
Q 43.265625 74.21875 49.921875 64.515625 
Q 56.59375 54.828125 56.59375 36.375 
Q 56.59375 19.140625 48.40625 8.859375 
Q 40.234375 -1.421875 26.421875 -1.421875 
Q 22.703125 -1.421875 18.890625 -0.6875 
Q 15.09375 0.046875 10.984375 1.515625 
z
M 30.609375 32.421875 
Q 37.25 32.421875 41.125 36.953125 
Q 45.015625 41.5 45.015625 49.421875 
Q 45.015625 57.28125 41.125 61.84375 
Q 37.25 66.40625 30.609375 66.40625 
Q 23.96875 66.40625 20.09375 61.84375 
Q 16.21875 57.28125 16.21875 49.421875 
Q 16.21875 41.5 20.09375 36.953125 
Q 23.96875 32.421875 30.609375 32.421875 
z
" id="DejaVuSans-39"/>
     <path d="M 31.78125 34.625 
Q 24.75 34.625 20.71875 30.859375 
Q 16.703125 27.09375 16.703125 20.515625 
Q 16.703125 13.921875 20.71875 10.15625 
Q 24.75 6.390625 31.78125 6.390625 
Q 38.8125 6.390625 42.859375 10.171875 
Q 46.921875 13.96875 46.921875 20.515625 
Q 46.921875 27.09375 42.890625 30.859375 
Q 38.875 34.625 31.78125 34.625 
z
M 21.921875 38.8125 
Q 15.578125 40.375 12.03125 44.71875 
Q 8.5 49.078125 8.5 55.328125 
Q 8.5 64.0625 14.71875 69.140625 
Q 20.953125 74.21875 31.78125 74.21875 
Q 42.671875 74.21875 48.875 69.140625 
Q 55.078125 64.0625 55.078125 55.328125 
Q 55.078125 49.078125 51.53125 44.71875 
Q 48 40.375 41.703125 38.8125 
Q 48.828125 37.15625 52.796875 32.3125 
Q 56.78125 27.484375 56.78125 20.515625 
Q 56.78125 9.90625 50.3125 4.234375 
Q 43.84375 -1.421875 31.78125 -1.421875 
Q 19.734375 -1.421875 13.25 4.234375 
Q 6.78125 9.90625 6.78125 20.515625 
Q 6.78125 27.484375 10.78125 32.3125 
Q 14.796875 37.15625 21.921875 38.8125 
z
M 18.3125 54.390625 
Q 18.3125 48.734375 21.84375 45.5625 
Q 25.390625 42.390625 31.78125 42.390625 
Q 38.140625 42.390625 41.71875 45.5625 
Q 45.3125 48.734375 45.3125 54.390625 
Q 45.3125 60.0625 41.71875 63.234375 
Q 38.140625 66.40625 31.78125 66.40625 
Q 25.390625 66.40625 21.84375 63.234375 
Q 18.3125 60.0625 18.3125 54.390625 
z
" id="DejaVuSans-38"/>
     <path d="M 11.71875 12.40625 
L 22.015625 12.40625 
L 22.015625 4 
L 14.015625 -11.625 
L 7.71875 -11.625 
L 11.71875 4 
z
" id="DejaVuSans-2c"/>
     <path d="M 40.578125 39.3125 
Q 47.65625 37.796875 51.625 33 
Q 55.609375 28.21875 55.609375 21.1875 
Q 55.609375 10.40625 48.1875 4.484375 
Q 40.765625 -1.421875 27.09375 -1.421875 
Q 22.515625 -1.421875 17.65625 -0.515625 
Q 12.796875 0.390625 7.625 2.203125 
L 7.625 11.71875 
Q 11.71875 9.328125 16.59375 8.109375 
Q 21.484375 6.890625 26.8125 6.890625 
Q 36.078125 6.890625 40.9375 10.546875 
Q 45.796875 14.203125 45.796875 21.1875 
Q 45.796875 27.640625 41.28125 31.265625 
Q 36.765625 34.90625 28.71875 34.90625 
L 20.21875 34.90625 
L 20.21875 43.015625 
L 29.109375 43.015625 
Q 36.375 43.015625 40.234375 45.921875 
Q 44.09375 48.828125 44.09375 54.296875 
Q 44.09375 59.90625 40.109375 62.90625 
Q 36.140625 65.921875 28.71875 65.921875 
Q 24.65625 65.921875 20.015625 65.03125 
Q 15.375 64.15625 9.8125 62.3125 
L 9.8125 71.09375 
Q 15.4375 72.65625 20.34375 73.4375 
Q 25.25 74.21875 29.59375 74.21875 
Q 40.828125 74.21875 47.359375 69.109375 
Q 53.90625 64.015625 53.90625 55.328125 
Q 53.90625 49.265625 50.4375 45.09375 
Q 46.96875 40.921875 40.578125 39.3125 
z
" id="DejaVuSans-33"/>
     <path d="M 8.203125 72.90625 
L 55.078125 72.90625 
L 55.078125 68.703125 
L 28.609375 0 
L 18.3125 0 
L 43.21875 64.59375 
L 8.203125 64.59375 
z
" id="DejaVuSans-37"/>
     <path d="M 30.421875 75.984375 
L 30.421875 -13.1875 
L 9.71875 -13.1875 
L 9.71875 -6.203125 
L 21.390625 -6.203125 
L 21.390625 69 
L 9.71875 69 
L 9.71875 75.984375 
z
" id="DejaVuSans-5d"/>
    </defs>
    <g transform="translate(-2009.708437 35.472)scale(0.12 -0.12)">
     <use xlink:href="#DejaVuSans-47"/>
     <use x="77.490234" xlink:href="#DejaVuSans-72"/>
     <use x="118.603516" xlink:href="#DejaVuSans-61"/>
     <use x="179.882812" xlink:href="#DejaVuSans-66"/>
     <use x="215.087891" xlink:href="#DejaVuSans-69"/>
     <use x="242.871094" xlink:href="#DejaVuSans-63"/>
     <use x="297.851562" xlink:href="#DejaVuSans-61"/>
     <use x="359.130859" xlink:href="#DejaVuSans-20"/>
     <use x="390.917969" xlink:href="#DejaVuSans-64"/>
     <use x="454.394531" xlink:href="#DejaVuSans-65"/>
     <use x="515.917969" xlink:href="#DejaVuSans-20"/>
     <use x="547.705078" xlink:href="#DejaVuSans-6c"/>
     <use x="575.488281" xlink:href="#DejaVuSans-61"/>
     <use x="636.767578" xlink:href="#DejaVuSans-20"/>
     <use x="668.554688" xlink:href="#DejaVuSans-72"/>
     <use x="709.667969" xlink:href="#DejaVuSans-75"/>
     <use x="773.046875" xlink:href="#DejaVuSans-74"/>
     <use x="812.255859" xlink:href="#DejaVuSans-61"/>
     <use x="873.535156" xlink:href="#DejaVuSans-20"/>
     <use x="905.322266" xlink:href="#DejaVuSans-5b"/>
     <use x="944.335938" xlink:href="#DejaVuSans-39"/>
     <use x="1007.958984" xlink:href="#DejaVuSans-38"/>
     <use x="1071.582031" xlink:href="#DejaVuSans-31"/>
     <use x="1135.205078" xlink:href="#DejaVuSans-2c"/>
     <use x="1166.992188" xlink:href="#DejaVuSans-20"/>
     <use x="1198.779297" xlink:href="#DejaVuSans-33"/>
     <use x="1262.402344" xlink:href="#DejaVuSans-35"/>
     <use x="1326.025391" xlink:href="#DejaVuSans-31"/>
     <use x="1389.648438" xlink:href="#DejaVuSans-2c"/>
     <use x="1421.435547" xlink:href="#DejaVuSans-20"/>
     <use x="1453.222656" xlink:href="#DejaVuSans-39"/>
     <use x="1516.845703" xlink:href="#DejaVuSans-39"/>
     <use x="1580.46875" xlink:href="#DejaVuSans-31"/>
     <use x="1644.091797" xlink:href="#DejaVuSans-2c"/>
     <use x="1675.878906" xlink:href="#DejaVuSans-20"/>
     <use x="1707.666016" xlink:href="#DejaVuSans-31"/>
     <use x="1771.289062" xlink:href="#DejaVuSans-38"/>
     <use x="1834.912109" xlink:href="#DejaVuSans-35"/>
     <use x="1898.535156" xlink:href="#DejaVuSans-2c"/>
     <use x="1930.322266" xlink:href="#DejaVuSans-20"/>
     <use x="1962.109375" xlink:href="#DejaVuSans-32"/>
     <use x="2025.732422" xlink:href="#DejaVuSans-32"/>
     <use x="2089.355469" xlink:href="#DejaVuSans-2c"/>
     <use x="2121.142578" xlink:href="#DejaVuSans-20"/>
     <use x="2152.929688" xlink:href="#DejaVuSans-31"/>
     <use x="2216.552734" xlink:href="#DejaVuSans-36"/>
     <use x="2280.175781" xlink:href="#DejaVuSans-33"/>
     <use x="2343.798828" xlink:href="#DejaVuSans-2c"/>
     <use x="2375.585938" xlink:href="#DejaVuSans-20"/>
     <use x="2407.373047" xlink:href="#DejaVuSans-36"/>
     <use x="2470.996094" xlink:href="#DejaVuSans-37"/>
     <use x="2534.619141" xlink:href="#DejaVuSans-36"/>
     <use x="2598.242188" xlink:href="#DejaVuSans-2c"/>
     <use x="2630.029297" xlink:href="#DejaVuSans-20"/>
     <use x="2661.816406" xlink:href="#DejaVuSans-36"/>
     <use x="2725.439453" xlink:href="#DejaVuSans-36"/>
     <use x="2789.0625" xlink:href="#DejaVuSans-35"/>
     <use x="2852.685547" xlink:href="#DejaVuSans-2c"/>
     <use x="2884.472656" xlink:href="#DejaVuSans-20"/>
     <use x="2916.259766" xlink:href="#DejaVuSans-33"/>
     <use x="2979.882812" xlink:href="#DejaVuSans-34"/>
     <use x="3043.505859" xlink:href="#DejaVuSans-34"/>
     <use x="3107.128906" xlink:href="#DejaVuSans-2c"/>
     <use x="3138.916016" xlink:href="#DejaVuSans-20"/>
     <use x="3170.703125" xlink:href="#DejaVuSans-36"/>
     <use x="3234.326172" xlink:href="#DejaVuSans-35"/>
     <use x="3297.949219" xlink:href="#DejaVuSans-33"/>
     <use x="3361.572266" xlink:href="#DejaVuSans-2c"/>
     <use x="3393.359375" xlink:href="#DejaVuSans-20"/>
     <use x="3425.146484" xlink:href="#DejaVuSans-34"/>
     <use x="3488.769531" xlink:href="#DejaVuSans-39"/>
     <use x="3552.392578" xlink:href="#DejaVuSans-30"/>
     <use x="3616.015625" xlink:href="#DejaVuSans-2c"/>
     <use x="3647.802734" xlink:href="#DejaVuSans-20"/>
     <use x="3679.589844" xlink:href="#DejaVuSans-36"/>
     <use x="3743.212891" xlink:href="#DejaVuSans-35"/>
     <use x="3806.835938" xlink:href="#DejaVuSans-34"/>
     <use x="3870.458984" xlink:href="#DejaVuSans-2c"/>
     <use x="3902.246094" xlink:href="#DejaVuSans-20"/>
     <use x="3934.033203" xlink:href="#DejaVuSans-32"/>
     <use x="3997.65625" xlink:href="#DejaVuSans-36"/>
     <use x="4061.279297" xlink:href="#DejaVuSans-2c"/>
     <use x="4093.066406" xlink:href="#DejaVuSans-20"/>
     <use x="4124.853516" xlink:href="#DejaVuSans-38"/>
     <use x="4188.476562" xlink:href="#DejaVuSans-32"/>
     <use x="4252.099609" xlink:href="#DejaVuSans-30"/>
     <use x="4315.722656" xlink:href="#DejaVuSans-2c"/>
     <use x="4347.509766" xlink:href="#DejaVuSans-20"/>
     <use x="4379.296875" xlink:href="#DejaVuSans-33"/>
     <use x="4442.919922" xlink:href="#DejaVuSans-33"/>
     <use x="4506.542969" xlink:href="#DejaVuSans-32"/>
     <use x="4570.166016" xlink:href="#DejaVuSans-2c"/>
     <use x="4601.953125" xlink:href="#DejaVuSans-20"/>
     <use x="4633.740234" xlink:href="#DejaVuSans-33"/>
     <use x="4697.363281" xlink:href="#DejaVuSans-34"/>
     <use x="4760.986328" xlink:href="#DejaVuSans-35"/>
     <use x="4824.609375" xlink:href="#DejaVuSans-2c"/>
     <use x="4856.396484" xlink:href="#DejaVuSans-20"/>
     <use x="4888.183594" xlink:href="#DejaVuSans-31"/>
     <use x="4951.806641" xlink:href="#DejaVuSans-34"/>
     <use x="5015.429688" xlink:href="#DejaVuSans-2c"/>
     <use x="5047.216797" xlink:href="#DejaVuSans-20"/>
     <use x="5079.003906" xlink:href="#DejaVuSans-31"/>
     <use x="5142.626953" xlink:href="#DejaVuSans-38"/>
     <use x="5206.25" xlink:href="#DejaVuSans-31"/>
     <use x="5269.873047" xlink:href="#DejaVuSans-2c"/>
     <use x="5301.660156" xlink:href="#DejaVuSans-20"/>
     <use x="5333.447266" xlink:href="#DejaVuSans-39"/>
     <use x="5397.070312" xlink:href="#DejaVuSans-38"/>
     <use x="5460.693359" xlink:href="#DejaVuSans-32"/>
     <use x="5524.316406" xlink:href="#DejaVuSans-2c"/>
     <use x="5556.103516" xlink:href="#DejaVuSans-20"/>
     <use x="5587.890625" xlink:href="#DejaVuSans-31"/>
     <use x="5651.513672" xlink:href="#DejaVuSans-38"/>
     <use x="5715.136719" xlink:href="#DejaVuSans-37"/>
     <use x="5778.759766" xlink:href="#DejaVuSans-2c"/>
     <use x="5810.546875" xlink:href="#DejaVuSans-20"/>
     <use x="5842.333984" xlink:href="#DejaVuSans-38"/>
     <use x="5905.957031" xlink:href="#DejaVuSans-31"/>
     <use x="5969.580078" xlink:href="#DejaVuSans-36"/>
     <use x="6033.203125" xlink:href="#DejaVuSans-2c"/>
     <use x="6064.990234" xlink:href="#DejaVuSans-20"/>
     <use x="6096.777344" xlink:href="#DejaVuSans-36"/>
     <use x="6160.400391" xlink:href="#DejaVuSans-37"/>
     <use x="6224.023438" xlink:href="#DejaVuSans-38"/>
     <use x="6287.646484" xlink:href="#DejaVuSans-2c"/>
     <use x="6319.433594" xlink:href="#DejaVuSans-20"/>
     <use x="6351.220703" xlink:href="#DejaVuSans-38"/>
     <use x="6414.84375" xlink:href="#DejaVuSans-32"/>
     <use x="6478.466797" xlink:href="#DejaVuSans-33"/>
     <use x="6542.089844" xlink:href="#DejaVuSans-2c"/>
     <use x="6573.876953" xlink:href="#DejaVuSans-20"/>
     <use x="6605.664062" xlink:href="#DejaVuSans-37"/>
     <use x="6669.287109" xlink:href="#DejaVuSans-2c"/>
     <use x="6701.074219" xlink:href="#DejaVuSans-20"/>
     <use x="6732.861328" xlink:href="#DejaVuSans-35"/>
     <use x="6796.484375" xlink:href="#DejaVuSans-30"/>
     <use x="6860.107422" xlink:href="#DejaVuSans-37"/>
     <use x="6923.730469" xlink:href="#DejaVuSans-2c"/>
     <use x="6955.517578" xlink:href="#DejaVuSans-20"/>
     <use x="6987.304688" xlink:href="#DejaVuSans-36"/>
     <use x="7050.927734" xlink:href="#DejaVuSans-37"/>
     <use x="7114.550781" xlink:href="#DejaVuSans-33"/>
     <use x="7178.173828" xlink:href="#DejaVuSans-2c"/>
     <use x="7209.960938" xlink:href="#DejaVuSans-20"/>
     <use x="7241.748047" xlink:href="#DejaVuSans-31"/>
     <use x="7305.371094" xlink:href="#DejaVuSans-37"/>
     <use x="7368.994141" xlink:href="#DejaVuSans-33"/>
     <use x="7432.617188" xlink:href="#DejaVuSans-2c"/>
     <use x="7464.404297" xlink:href="#DejaVuSans-20"/>
     <use x="7496.191406" xlink:href="#DejaVuSans-31"/>
     <use x="7559.814453" xlink:href="#DejaVuSans-37"/>
     <use x="7623.4375" xlink:href="#DejaVuSans-32"/>
     <use x="7687.060547" xlink:href="#DejaVuSans-2c"/>
     <use x="7718.847656" xlink:href="#DejaVuSans-20"/>
     <use x="7750.634766" xlink:href="#DejaVuSans-31"/>
     <use x="7814.257812" xlink:href="#DejaVuSans-38"/>
     <use x="7877.880859" xlink:href="#DejaVuSans-32"/>
     <use x="7941.503906" xlink:href="#DejaVuSans-2c"/>
     <use x="7973.291016" xlink:href="#DejaVuSans-20"/>
     <use x="8005.078125" xlink:href="#DejaVuSans-38"/>
     <use x="8068.701172" xlink:href="#DejaVuSans-33"/>
     <use x="8132.324219" xlink:href="#DejaVuSans-39"/>
     <use x="8195.947266" xlink:href="#DejaVuSans-2c"/>
     <use x="8227.734375" xlink:href="#DejaVuSans-20"/>
     <use x="8259.521484" xlink:href="#DejaVuSans-31"/>
     <use x="8323.144531" xlink:href="#DejaVuSans-39"/>
     <use x="8386.767578" xlink:href="#DejaVuSans-2c"/>
     <use x="8418.554688" xlink:href="#DejaVuSans-20"/>
     <use x="8450.341797" xlink:href="#DejaVuSans-34"/>
     <use x="8513.964844" xlink:href="#DejaVuSans-39"/>
     <use x="8577.587891" xlink:href="#DejaVuSans-36"/>
     <use x="8641.210938" xlink:href="#DejaVuSans-2c"/>
     <use x="8672.998047" xlink:href="#DejaVuSans-20"/>
     <use x="8704.785156" xlink:href="#DejaVuSans-38"/>
     <use x="8768.408203" xlink:href="#DejaVuSans-31"/>
     <use x="8832.03125" xlink:href="#DejaVuSans-35"/>
     <use x="8895.654297" xlink:href="#DejaVuSans-2c"/>
     <use x="8927.441406" xlink:href="#DejaVuSans-20"/>
     <use x="8959.228516" xlink:href="#DejaVuSans-31"/>
     <use x="9022.851562" xlink:href="#DejaVuSans-38"/>
     <use x="9086.474609" xlink:href="#DejaVuSans-34"/>
     <use x="9150.097656" xlink:href="#DejaVuSans-2c"/>
     <use x="9181.884766" xlink:href="#DejaVuSans-20"/>
     <use x="9213.671875" xlink:href="#DejaVuSans-36"/>
     <use x="9277.294922" xlink:href="#DejaVuSans-36"/>
     <use x="9340.917969" xlink:href="#DejaVuSans-37"/>
     <use x="9404.541016" xlink:href="#DejaVuSans-2c"/>
     <use x="9436.328125" xlink:href="#DejaVuSans-20"/>
     <use x="9468.115234" xlink:href="#DejaVuSans-36"/>
     <use x="9531.738281" xlink:href="#DejaVuSans-35"/>
     <use x="9595.361328" xlink:href="#DejaVuSans-36"/>
     <use x="9658.984375" xlink:href="#DejaVuSans-2c"/>
     <use x="9690.771484" xlink:href="#DejaVuSans-20"/>
     <use x="9722.558594" xlink:href="#DejaVuSans-32"/>
     <use x="9786.181641" xlink:href="#DejaVuSans-2c"/>
     <use x="9817.96875" xlink:href="#DejaVuSans-20"/>
     <use x="9849.755859" xlink:href="#DejaVuSans-39"/>
     <use x="9913.378906" xlink:href="#DejaVuSans-2c"/>
     <use x="9945.166016" xlink:href="#DejaVuSans-20"/>
     <use x="9976.953125" xlink:href="#DejaVuSans-31"/>
     <use x="10040.576172" xlink:href="#DejaVuSans-2c"/>
     <use x="10072.363281" xlink:href="#DejaVuSans-20"/>
     <use x="10104.150391" xlink:href="#DejaVuSans-38"/>
     <use x="10167.773438" xlink:href="#DejaVuSans-32"/>
     <use x="10231.396484" xlink:href="#DejaVuSans-39"/>
     <use x="10295.019531" xlink:href="#DejaVuSans-2c"/>
     <use x="10326.806641" xlink:href="#DejaVuSans-20"/>
     <use x="10358.59375" xlink:href="#DejaVuSans-38"/>
     <use x="10422.216797" xlink:href="#DejaVuSans-33"/>
     <use x="10485.839844" xlink:href="#DejaVuSans-32"/>
     <use x="10549.462891" xlink:href="#DejaVuSans-2c"/>
     <use x="10581.25" xlink:href="#DejaVuSans-20"/>
     <use x="10613.037109" xlink:href="#DejaVuSans-36"/>
     <use x="10676.660156" xlink:href="#DejaVuSans-36"/>
     <use x="10740.283203" xlink:href="#DejaVuSans-31"/>
     <use x="10803.90625" xlink:href="#DejaVuSans-2c"/>
     <use x="10835.693359" xlink:href="#DejaVuSans-20"/>
     <use x="10867.480469" xlink:href="#DejaVuSans-36"/>
     <use x="10931.103516" xlink:href="#DejaVuSans-35"/>
     <use x="10994.726562" xlink:href="#DejaVuSans-37"/>
     <use x="11058.349609" xlink:href="#DejaVuSans-2c"/>
     <use x="11090.136719" xlink:href="#DejaVuSans-20"/>
     <use x="11121.923828" xlink:href="#DejaVuSans-36"/>
     <use x="11185.546875" xlink:href="#DejaVuSans-36"/>
     <use x="11249.169922" xlink:href="#DejaVuSans-33"/>
     <use x="11312.792969" xlink:href="#DejaVuSans-2c"/>
     <use x="11344.580078" xlink:href="#DejaVuSans-20"/>
     <use x="11376.367188" xlink:href="#DejaVuSans-35"/>
     <use x="11439.990234" xlink:href="#DejaVuSans-30"/>
     <use x="11503.613281" xlink:href="#DejaVuSans-38"/>
     <use x="11567.236328" xlink:href="#DejaVuSans-2c"/>
     <use x="11599.023438" xlink:href="#DejaVuSans-20"/>
     <use x="11630.810547" xlink:href="#DejaVuSans-39"/>
     <use x="11694.433594" xlink:href="#DejaVuSans-38"/>
     <use x="11758.056641" xlink:href="#DejaVuSans-36"/>
     <use x="11821.679688" xlink:href="#DejaVuSans-2c"/>
     <use x="11853.466797" xlink:href="#DejaVuSans-20"/>
     <use x="11885.253906" xlink:href="#DejaVuSans-35"/>
     <use x="11948.876953" xlink:href="#DejaVuSans-30"/>
     <use x="12012.5" xlink:href="#DejaVuSans-35"/>
     <use x="12076.123047" xlink:href="#DejaVuSans-2c"/>
     <use x="12107.910156" xlink:href="#DejaVuSans-20"/>
     <use x="12139.697266" xlink:href="#DejaVuSans-31"/>
     <use x="12203.320312" xlink:href="#DejaVuSans-36"/>
     <use x="12266.943359" xlink:href="#DejaVuSans-38"/>
     <use x="12330.566406" xlink:href="#DejaVuSans-2c"/>
     <use x="12362.353516" xlink:href="#DejaVuSans-20"/>
     <use x="12394.140625" xlink:href="#DejaVuSans-33"/>
     <use x="12457.763672" xlink:href="#DejaVuSans-32"/>
     <use x="12521.386719" xlink:href="#DejaVuSans-39"/>
     <use x="12585.009766" xlink:href="#DejaVuSans-2c"/>
     <use x="12616.796875" xlink:href="#DejaVuSans-20"/>
     <use x="12648.583984" xlink:href="#DejaVuSans-35"/>
     <use x="12712.207031" xlink:href="#DejaVuSans-30"/>
     <use x="12775.830078" xlink:href="#DejaVuSans-39"/>
     <use x="12839.453125" xlink:href="#DejaVuSans-2c"/>
     <use x="12871.240234" xlink:href="#DejaVuSans-20"/>
     <use x="12903.027344" xlink:href="#DejaVuSans-34"/>
     <use x="12966.650391" xlink:href="#DejaVuSans-39"/>
     <use x="13030.273438" xlink:href="#DejaVuSans-33"/>
     <use x="13093.896484" xlink:href="#DejaVuSans-2c"/>
     <use x="13125.683594" xlink:href="#DejaVuSans-20"/>
     <use x="13157.470703" xlink:href="#DejaVuSans-39"/>
     <use x="13221.09375" xlink:href="#DejaVuSans-37"/>
     <use x="13284.716797" xlink:href="#DejaVuSans-39"/>
     <use x="13348.339844" xlink:href="#DejaVuSans-2c"/>
     <use x="13380.126953" xlink:href="#DejaVuSans-20"/>
     <use x="13411.914062" xlink:href="#DejaVuSans-36"/>
     <use x="13475.537109" xlink:href="#DejaVuSans-36"/>
     <use x="13539.160156" xlink:href="#DejaVuSans-38"/>
     <use x="13602.783203" xlink:href="#DejaVuSans-2c"/>
     <use x="13634.570312" xlink:href="#DejaVuSans-20"/>
     <use x="13666.357422" xlink:href="#DejaVuSans-31"/>
     <use x="13729.980469" xlink:href="#DejaVuSans-37"/>
     <use x="13793.603516" xlink:href="#DejaVuSans-36"/>
     <use x="13857.226562" xlink:href="#DejaVuSans-2c"/>
     <use x="13889.013672" xlink:href="#DejaVuSans-20"/>
     <use x="13920.800781" xlink:href="#DejaVuSans-32"/>
     <use x="13984.423828" xlink:href="#DejaVuSans-33"/>
     <use x="14048.046875" xlink:href="#DejaVuSans-2c"/>
     <use x="14079.833984" xlink:href="#DejaVuSans-20"/>
     <use x="14111.621094" xlink:href="#DejaVuSans-33"/>
     <use x="14175.244141" xlink:href="#DejaVuSans-35"/>
     <use x="14238.867188" xlink:href="#DejaVuSans-32"/>
     <use x="14302.490234" xlink:href="#DejaVuSans-2c"/>
     <use x="14334.277344" xlink:href="#DejaVuSans-20"/>
     <use x="14366.064453" xlink:href="#DejaVuSans-39"/>
     <use x="14429.6875" xlink:href="#DejaVuSans-37"/>
     <use x="14493.310547" xlink:href="#DejaVuSans-38"/>
     <use x="14556.933594" xlink:href="#DejaVuSans-2c"/>
     <use x="14588.720703" xlink:href="#DejaVuSans-20"/>
     <use x="14620.507812" xlink:href="#DejaVuSans-31"/>
     <use x="14684.130859" xlink:href="#DejaVuSans-30"/>
     <use x="14747.753906" xlink:href="#DejaVuSans-30"/>
     <use x="14811.376953" xlink:href="#DejaVuSans-34"/>
     <use x="14875" xlink:href="#DejaVuSans-2c"/>
     <use x="14906.787109" xlink:href="#DejaVuSans-20"/>
     <use x="14938.574219" xlink:href="#DejaVuSans-35"/>
     <use x="15002.197266" xlink:href="#DejaVuSans-2c"/>
     <use x="15033.984375" xlink:href="#DejaVuSans-20"/>
     <use x="15065.771484" xlink:href="#DejaVuSans-36"/>
     <use x="15129.394531" xlink:href="#DejaVuSans-2c"/>
     <use x="15161.181641" xlink:href="#DejaVuSans-20"/>
     <use x="15192.96875" xlink:href="#DejaVuSans-39"/>
     <use x="15256.591797" xlink:href="#DejaVuSans-38"/>
     <use x="15320.214844" xlink:href="#DejaVuSans-38"/>
     <use x="15383.837891" xlink:href="#DejaVuSans-2c"/>
     <use x="15415.625" xlink:href="#DejaVuSans-20"/>
     <use x="15447.412109" xlink:href="#DejaVuSans-31"/>
     <use x="15511.035156" xlink:href="#DejaVuSans-36"/>
     <use x="15574.658203" xlink:href="#DejaVuSans-35"/>
     <use x="15638.28125" xlink:href="#DejaVuSans-2c"/>
     <use x="15670.068359" xlink:href="#DejaVuSans-20"/>
     <use x="15701.855469" xlink:href="#DejaVuSans-31"/>
     <use x="15765.478516" xlink:href="#DejaVuSans-37"/>
     <use x="15829.101562" xlink:href="#DejaVuSans-34"/>
     <use x="15892.724609" xlink:href="#DejaVuSans-2c"/>
     <use x="15924.511719" xlink:href="#DejaVuSans-20"/>
     <use x="15956.298828" xlink:href="#DejaVuSans-34"/>
     <use x="16019.921875" xlink:href="#DejaVuSans-2c"/>
     <use x="16051.708984" xlink:href="#DejaVuSans-20"/>
     <use x="16083.496094" xlink:href="#DejaVuSans-34"/>
     <use x="16147.119141" xlink:href="#DejaVuSans-38"/>
     <use x="16210.742188" xlink:href="#DejaVuSans-39"/>
     <use x="16274.365234" xlink:href="#DejaVuSans-2c"/>
     <use x="16306.152344" xlink:href="#DejaVuSans-20"/>
     <use x="16337.939453" xlink:href="#DejaVuSans-32"/>
     <use x="16401.5625" xlink:href="#DejaVuSans-35"/>
     <use x="16465.185547" xlink:href="#DejaVuSans-2c"/>
     <use x="16496.972656" xlink:href="#DejaVuSans-20"/>
     <use x="16528.759766" xlink:href="#DejaVuSans-34"/>
     <use x="16592.382812" xlink:href="#DejaVuSans-39"/>
     <use x="16656.005859" xlink:href="#DejaVuSans-32"/>
     <use x="16719.628906" xlink:href="#DejaVuSans-2c"/>
     <use x="16751.416016" xlink:href="#DejaVuSans-20"/>
     <use x="16783.203125" xlink:href="#DejaVuSans-35"/>
     <use x="16846.826172" xlink:href="#DejaVuSans-30"/>
     <use x="16910.449219" xlink:href="#DejaVuSans-31"/>
     <use x="16974.072266" xlink:href="#DejaVuSans-2c"/>
     <use x="17005.859375" xlink:href="#DejaVuSans-20"/>
     <use x="17037.646484" xlink:href="#DejaVuSans-31"/>
     <use x="17101.269531" xlink:href="#DejaVuSans-31"/>
     <use x="17164.892578" xlink:href="#DejaVuSans-2c"/>
     <use x="17196.679688" xlink:href="#DejaVuSans-20"/>
     <use x="17228.466797" xlink:href="#DejaVuSans-31"/>
     <use x="17292.089844" xlink:href="#DejaVuSans-36"/>
     <use x="17355.712891" xlink:href="#DejaVuSans-34"/>
     <use x="17419.335938" xlink:href="#DejaVuSans-2c"/>
     <use x="17451.123047" xlink:href="#DejaVuSans-20"/>
     <use x="17482.910156" xlink:href="#DejaVuSans-31"/>
     <use x="17546.533203" xlink:href="#DejaVuSans-37"/>
     <use x="17610.15625" xlink:href="#DejaVuSans-2c"/>
     <use x="17641.943359" xlink:href="#DejaVuSans-20"/>
     <use x="17673.730469" xlink:href="#DejaVuSans-34"/>
     <use x="17737.353516" xlink:href="#DejaVuSans-34"/>
     <use x="17800.976562" xlink:href="#DejaVuSans-34"/>
     <use x="17864.599609" xlink:href="#DejaVuSans-2c"/>
     <use x="17896.386719" xlink:href="#DejaVuSans-20"/>
     <use x="17928.173828" xlink:href="#DejaVuSans-38"/>
     <use x="17991.796875" xlink:href="#DejaVuSans-32"/>
     <use x="18055.419922" xlink:href="#DejaVuSans-36"/>
     <use x="18119.042969" xlink:href="#DejaVuSans-2c"/>
     <use x="18150.830078" xlink:href="#DejaVuSans-20"/>
     <use x="18182.617188" xlink:href="#DejaVuSans-33"/>
     <use x="18246.240234" xlink:href="#DejaVuSans-32"/>
     <use x="18309.863281" xlink:href="#DejaVuSans-37"/>
     <use x="18373.486328" xlink:href="#DejaVuSans-2c"/>
     <use x="18405.273438" xlink:href="#DejaVuSans-20"/>
     <use x="18437.060547" xlink:href="#DejaVuSans-33"/>
     <use x="18500.683594" xlink:href="#DejaVuSans-35"/>
     <use x="18564.306641" xlink:href="#DejaVuSans-30"/>
     <use x="18627.929688" xlink:href="#DejaVuSans-2c"/>
     <use x="18659.716797" xlink:href="#DejaVuSans-20"/>
     <use x="18691.503906" xlink:href="#DejaVuSans-35"/>
     <use x="18755.126953" xlink:href="#DejaVuSans-31"/>
     <use x="18818.75" xlink:href="#DejaVuSans-31"/>
     <use x="18882.373047" xlink:href="#DejaVuSans-2c"/>
     <use x="18914.160156" xlink:href="#DejaVuSans-20"/>
     <use x="18945.947266" xlink:href="#DejaVuSans-36"/>
     <use x="19009.570312" xlink:href="#DejaVuSans-37"/>
     <use x="19073.193359" xlink:href="#DejaVuSans-30"/>
     <use x="19136.816406" xlink:href="#DejaVuSans-2c"/>
     <use x="19168.603516" xlink:href="#DejaVuSans-20"/>
     <use x="19200.390625" xlink:href="#DejaVuSans-35"/>
     <use x="19264.013672" xlink:href="#DejaVuSans-30"/>
     <use x="19327.636719" xlink:href="#DejaVuSans-34"/>
     <use x="19391.259766" xlink:href="#DejaVuSans-2c"/>
     <use x="19423.046875" xlink:href="#DejaVuSans-20"/>
     <use x="19454.833984" xlink:href="#DejaVuSans-32"/>
     <use x="19518.457031" xlink:href="#DejaVuSans-30"/>
     <use x="19582.080078" xlink:href="#DejaVuSans-2c"/>
     <use x="19613.867188" xlink:href="#DejaVuSans-20"/>
     <use x="19645.654297" xlink:href="#DejaVuSans-36"/>
     <use x="19709.277344" xlink:href="#DejaVuSans-36"/>
     <use x="19772.900391" xlink:href="#DejaVuSans-30"/>
     <use x="19836.523438" xlink:href="#DejaVuSans-2c"/>
     <use x="19868.310547" xlink:href="#DejaVuSans-20"/>
     <use x="19900.097656" xlink:href="#DejaVuSans-35"/>
     <use x="19963.720703" xlink:href="#DejaVuSans-31"/>
     <use x="20027.34375" xlink:href="#DejaVuSans-30"/>
     <use x="20090.966797" xlink:href="#DejaVuSans-2c"/>
     <use x="20122.753906" xlink:href="#DejaVuSans-20"/>
     <use x="20154.541016" xlink:href="#DejaVuSans-33"/>
     <use x="20218.164062" xlink:href="#DejaVuSans-34"/>
     <use x="20281.787109" xlink:href="#DejaVuSans-33"/>
     <use x="20345.410156" xlink:href="#DejaVuSans-2c"/>
     <use x="20377.197266" xlink:href="#DejaVuSans-20"/>
     <use x="20408.984375" xlink:href="#DejaVuSans-39"/>
     <use x="20472.607422" xlink:href="#DejaVuSans-38"/>
     <use x="20536.230469" xlink:href="#DejaVuSans-35"/>
     <use x="20599.853516" xlink:href="#DejaVuSans-2c"/>
     <use x="20631.640625" xlink:href="#DejaVuSans-20"/>
     <use x="20663.427734" xlink:href="#DejaVuSans-35"/>
     <use x="20727.050781" xlink:href="#DejaVuSans-30"/>
     <use x="20790.673828" xlink:href="#DejaVuSans-30"/>
     <use x="20854.296875" xlink:href="#DejaVuSans-2c"/>
     <use x="20886.083984" xlink:href="#DejaVuSans-20"/>
     <use x="20917.871094" xlink:href="#DejaVuSans-38"/>
     <use x="20981.494141" xlink:href="#DejaVuSans-32"/>
     <use x="21045.117188" xlink:href="#DejaVuSans-35"/>
     <use x="21108.740234" xlink:href="#DejaVuSans-2c"/>
     <use x="21140.527344" xlink:href="#DejaVuSans-20"/>
     <use x="21172.314453" xlink:href="#DejaVuSans-36"/>
     <use x="21235.9375" xlink:href="#DejaVuSans-37"/>
     <use x="21299.560547" xlink:href="#DejaVuSans-34"/>
     <use x="21363.183594" xlink:href="#DejaVuSans-2c"/>
     <use x="21394.970703" xlink:href="#DejaVuSans-20"/>
     <use x="21426.757812" xlink:href="#DejaVuSans-33"/>
     <use x="21490.380859" xlink:href="#DejaVuSans-33"/>
     <use x="21554.003906" xlink:href="#DejaVuSans-34"/>
     <use x="21617.626953" xlink:href="#DejaVuSans-2c"/>
     <use x="21649.414062" xlink:href="#DejaVuSans-20"/>
     <use x="21681.201172" xlink:href="#DejaVuSans-31"/>
     <use x="21744.824219" xlink:href="#DejaVuSans-30"/>
     <use x="21808.447266" xlink:href="#DejaVuSans-30"/>
     <use x="21872.070312" xlink:href="#DejaVuSans-33"/>
     <use x="21935.693359" xlink:href="#DejaVuSans-2c"/>
     <use x="21967.480469" xlink:href="#DejaVuSans-20"/>
     <use x="21999.267578" xlink:href="#DejaVuSans-33"/>
     <use x="22062.890625" xlink:href="#DejaVuSans-34"/>
     <use x="22126.513672" xlink:href="#DejaVuSans-39"/>
     <use x="22190.136719" xlink:href="#DejaVuSans-2c"/>
     <use x="22221.923828" xlink:href="#DejaVuSans-20"/>
     <use x="22253.710938" xlink:href="#DejaVuSans-33"/>
     <use x="22317.333984" xlink:href="#DejaVuSans-33"/>
     <use x="22380.957031" xlink:href="#DejaVuSans-31"/>
     <use x="22444.580078" xlink:href="#DejaVuSans-2c"/>
     <use x="22476.367188" xlink:href="#DejaVuSans-20"/>
     <use x="22508.154297" xlink:href="#DejaVuSans-36"/>
     <use x="22571.777344" xlink:href="#DejaVuSans-36"/>
     <use x="22635.400391" xlink:href="#DejaVuSans-32"/>
     <use x="22699.023438" xlink:href="#DejaVuSans-2c"/>
     <use x="22730.810547" xlink:href="#DejaVuSans-20"/>
     <use x="22762.597656" xlink:href="#DejaVuSans-39"/>
     <use x="22826.220703" xlink:href="#DejaVuSans-39"/>
     <use x="22889.84375" xlink:href="#DejaVuSans-39"/>
     <use x="22953.466797" xlink:href="#DejaVuSans-2c"/>
     <use x="22985.253906" xlink:href="#DejaVuSans-20"/>
     <use x="23017.041016" xlink:href="#DejaVuSans-38"/>
     <use x="23080.664062" xlink:href="#DejaVuSans-2c"/>
     <use x="23112.451172" xlink:href="#DejaVuSans-20"/>
     <use x="23144.238281" xlink:href="#DejaVuSans-38"/>
     <use x="23207.861328" xlink:href="#DejaVuSans-33"/>
     <use x="23271.484375" xlink:href="#DejaVuSans-37"/>
     <use x="23335.107422" xlink:href="#DejaVuSans-2c"/>
     <use x="23366.894531" xlink:href="#DejaVuSans-20"/>
     <use x="23398.681641" xlink:href="#DejaVuSans-39"/>
     <use x="23462.304688" xlink:href="#DejaVuSans-39"/>
     <use x="23525.927734" xlink:href="#DejaVuSans-35"/>
     <use x="23589.550781" xlink:href="#DejaVuSans-2c"/>
     <use x="23621.337891" xlink:href="#DejaVuSans-20"/>
     <use x="23653.125" xlink:href="#DejaVuSans-39"/>
     <use x="23716.748047" xlink:href="#DejaVuSans-38"/>
     <use x="23780.371094" xlink:href="#DejaVuSans-34"/>
     <use x="23843.994141" xlink:href="#DejaVuSans-2c"/>
     <use x="23875.78125" xlink:href="#DejaVuSans-20"/>
     <use x="23907.568359" xlink:href="#DejaVuSans-34"/>
     <use x="23971.191406" xlink:href="#DejaVuSans-39"/>
     <use x="24034.814453" xlink:href="#DejaVuSans-31"/>
     <use x="24098.4375" xlink:href="#DejaVuSans-2c"/>
     <use x="24130.224609" xlink:href="#DejaVuSans-20"/>
     <use x="24162.011719" xlink:href="#DejaVuSans-34"/>
     <use x="24225.634766" xlink:href="#DejaVuSans-39"/>
     <use x="24289.257812" xlink:href="#DejaVuSans-39"/>
     <use x="24352.880859" xlink:href="#DejaVuSans-2c"/>
     <use x="24384.667969" xlink:href="#DejaVuSans-20"/>
     <use x="24416.455078" xlink:href="#DejaVuSans-33"/>
     <use x="24480.078125" xlink:href="#DejaVuSans-34"/>
     <use x="24543.701172" xlink:href="#DejaVuSans-37"/>
     <use x="24607.324219" xlink:href="#DejaVuSans-2c"/>
     <use x="24639.111328" xlink:href="#DejaVuSans-20"/>
     <use x="24670.898438" xlink:href="#DejaVuSans-38"/>
     <use x="24734.521484" xlink:href="#DejaVuSans-31"/>
     <use x="24798.144531" xlink:href="#DejaVuSans-37"/>
     <use x="24861.767578" xlink:href="#DejaVuSans-2c"/>
     <use x="24893.554688" xlink:href="#DejaVuSans-20"/>
     <use x="24925.341797" xlink:href="#DejaVuSans-33"/>
     <use x="24988.964844" xlink:href="#DejaVuSans-2c"/>
     <use x="25020.751953" xlink:href="#DejaVuSans-20"/>
     <use x="25052.539062" xlink:href="#DejaVuSans-33"/>
     <use x="25116.162109" xlink:href="#DejaVuSans-33"/>
     <use x="25179.785156" xlink:href="#DejaVuSans-33"/>
     <use x="25243.408203" xlink:href="#DejaVuSans-2c"/>
     <use x="25275.195312" xlink:href="#DejaVuSans-20"/>
     <use x="25306.982422" xlink:href="#DejaVuSans-32"/>
     <use x="25370.605469" xlink:href="#DejaVuSans-37"/>
     <use x="25434.228516" xlink:href="#DejaVuSans-2c"/>
     <use x="25466.015625" xlink:href="#DejaVuSans-20"/>
     <use x="25497.802734" xlink:href="#DejaVuSans-39"/>
     <use x="25561.425781" xlink:href="#DejaVuSans-39"/>
     <use x="25625.048828" xlink:href="#DejaVuSans-30"/>
     <use x="25688.671875" xlink:href="#DejaVuSans-2c"/>
     <use x="25720.458984" xlink:href="#DejaVuSans-20"/>
     <use x="25752.246094" xlink:href="#DejaVuSans-31"/>
     <use x="25815.869141" xlink:href="#DejaVuSans-37"/>
     <use x="25879.492188" xlink:href="#DejaVuSans-31"/>
     <use x="25943.115234" xlink:href="#DejaVuSans-2c"/>
     <use x="25974.902344" xlink:href="#DejaVuSans-20"/>
     <use x="26006.689453" xlink:href="#DejaVuSans-33"/>
     <use x="26070.3125" xlink:href="#DejaVuSans-34"/>
     <use x="26133.935547" xlink:href="#DejaVuSans-36"/>
     <use x="26197.558594" xlink:href="#DejaVuSans-2c"/>
     <use x="26229.345703" xlink:href="#DejaVuSans-20"/>
     <use x="26261.132812" xlink:href="#DejaVuSans-37"/>
     <use x="26324.755859" xlink:href="#DejaVuSans-35"/>
     <use x="26388.378906" xlink:href="#DejaVuSans-2c"/>
     <use x="26420.166016" xlink:href="#DejaVuSans-20"/>
     <use x="26451.953125" xlink:href="#DejaVuSans-38"/>
     <use x="26515.576172" xlink:href="#DejaVuSans-32"/>
     <use x="26579.199219" xlink:href="#DejaVuSans-31"/>
     <use x="26642.822266" xlink:href="#DejaVuSans-2c"/>
     <use x="26674.609375" xlink:href="#DejaVuSans-20"/>
     <use x="26706.396484" xlink:href="#DejaVuSans-31"/>
     <use x="26770.019531" xlink:href="#DejaVuSans-30"/>
     <use x="26833.642578" xlink:href="#DejaVuSans-37"/>
     <use x="26897.265625" xlink:href="#DejaVuSans-35"/>
     <use x="26960.888672" xlink:href="#DejaVuSans-2c"/>
     <use x="26992.675781" xlink:href="#DejaVuSans-20"/>
     <use x="27024.462891" xlink:href="#DejaVuSans-34"/>
     <use x="27088.085938" xlink:href="#DejaVuSans-38"/>
     <use x="27151.708984" xlink:href="#DejaVuSans-33"/>
     <use x="27215.332031" xlink:href="#DejaVuSans-2c"/>
     <use x="27247.119141" xlink:href="#DejaVuSans-20"/>
     <use x="27278.90625" xlink:href="#DejaVuSans-36"/>
     <use x="27342.529297" xlink:href="#DejaVuSans-35"/>
     <use x="27406.152344" xlink:href="#DejaVuSans-32"/>
     <use x="27469.775391" xlink:href="#DejaVuSans-2c"/>
     <use x="27501.5625" xlink:href="#DejaVuSans-20"/>
     <use x="27533.349609" xlink:href="#DejaVuSans-35"/>
     <use x="27596.972656" xlink:href="#DejaVuSans-31"/>
     <use x="27660.595703" xlink:href="#DejaVuSans-32"/>
     <use x="27724.21875" xlink:href="#DejaVuSans-2c"/>
     <use x="27756.005859" xlink:href="#DejaVuSans-20"/>
     <use x="27787.792969" xlink:href="#DejaVuSans-31"/>
     <use x="27851.416016" xlink:href="#DejaVuSans-38"/>
     <use x="27915.039062" xlink:href="#DejaVuSans-33"/>
     <use x="27978.662109" xlink:href="#DejaVuSans-2c"/>
     <use x="28010.449219" xlink:href="#DejaVuSans-20"/>
     <use x="28042.236328" xlink:href="#DejaVuSans-31"/>
     <use x="28105.859375" xlink:href="#DejaVuSans-37"/>
     <use x="28169.482422" xlink:href="#DejaVuSans-39"/>
     <use x="28233.105469" xlink:href="#DejaVuSans-2c"/>
     <use x="28264.892578" xlink:href="#DejaVuSans-20"/>
     <use x="28296.679688" xlink:href="#DejaVuSans-36"/>
     <use x="28360.302734" xlink:href="#DejaVuSans-37"/>
     <use x="28423.925781" xlink:href="#DejaVuSans-31"/>
     <use x="28487.548828" xlink:href="#DejaVuSans-2c"/>
     <use x="28519.335938" xlink:href="#DejaVuSans-20"/>
     <use x="28551.123047" xlink:href="#DejaVuSans-31"/>
     <use x="28614.746094" xlink:href="#DejaVuSans-36"/>
     <use x="28678.369141" xlink:href="#DejaVuSans-2c"/>
     <use x="28710.15625" xlink:href="#DejaVuSans-20"/>
     <use x="28741.943359" xlink:href="#DejaVuSans-35"/>
     <use x="28805.566406" xlink:href="#DejaVuSans-32"/>
     <use x="28869.189453" xlink:href="#DejaVuSans-30"/>
     <use x="28932.8125" xlink:href="#DejaVuSans-2c"/>
     <use x="28964.599609" xlink:href="#DejaVuSans-20"/>
     <use x="28996.386719" xlink:href="#DejaVuSans-31"/>
     <use x="29060.009766" xlink:href="#DejaVuSans-38"/>
     <use x="29123.632812" xlink:href="#DejaVuSans-36"/>
     <use x="29187.255859" xlink:href="#DejaVuSans-2c"/>
     <use x="29219.042969" xlink:href="#DejaVuSans-20"/>
     <use x="29250.830078" xlink:href="#DejaVuSans-36"/>
     <use x="29314.453125" xlink:href="#DejaVuSans-37"/>
     <use x="29378.076172" xlink:href="#DejaVuSans-35"/>
     <use x="29441.699219" xlink:href="#DejaVuSans-2c"/>
     <use x="29473.486328" xlink:href="#DejaVuSans-20"/>
     <use x="29505.273438" xlink:href="#DejaVuSans-33"/>
     <use x="29568.896484" xlink:href="#DejaVuSans-34"/>
     <use x="29632.519531" xlink:href="#DejaVuSans-30"/>
     <use x="29696.142578" xlink:href="#DejaVuSans-2c"/>
     <use x="29727.929688" xlink:href="#DejaVuSans-20"/>
     <use x="29759.716797" xlink:href="#DejaVuSans-35"/>
     <use x="29823.339844" xlink:href="#DejaVuSans-30"/>
     <use x="29886.962891" xlink:href="#DejaVuSans-32"/>
     <use x="29950.585938" xlink:href="#DejaVuSans-2c"/>
     <use x="29982.373047" xlink:href="#DejaVuSans-20"/>
     <use x="30014.160156" xlink:href="#DejaVuSans-31"/>
     <use x="30077.783203" xlink:href="#DejaVuSans-32"/>
     <use x="30141.40625" xlink:href="#DejaVuSans-2c"/>
     <use x="30173.193359" xlink:href="#DejaVuSans-20"/>
     <use x="30204.980469" xlink:href="#DejaVuSans-31"/>
     <use x="30268.603516" xlink:href="#DejaVuSans-35"/>
     <use x="30332.226562" xlink:href="#DejaVuSans-31"/>
     <use x="30395.849609" xlink:href="#DejaVuSans-2c"/>
     <use x="30427.636719" xlink:href="#DejaVuSans-20"/>
     <use x="30459.423828" xlink:href="#DejaVuSans-38"/>
     <use x="30523.046875" xlink:href="#DejaVuSans-32"/>
     <use x="30586.669922" xlink:href="#DejaVuSans-38"/>
     <use x="30650.292969" xlink:href="#DejaVuSans-2c"/>
     <use x="30682.080078" xlink:href="#DejaVuSans-20"/>
     <use x="30713.867188" xlink:href="#DejaVuSans-31"/>
     <use x="30777.490234" xlink:href="#DejaVuSans-30"/>
     <use x="30841.113281" xlink:href="#DejaVuSans-33"/>
     <use x="30904.736328" xlink:href="#DejaVuSans-38"/>
     <use x="30968.359375" xlink:href="#DejaVuSans-2c"/>
     <use x="31000.146484" xlink:href="#DejaVuSans-20"/>
     <use x="31031.933594" xlink:href="#DejaVuSans-33"/>
     <use x="31095.556641" xlink:href="#DejaVuSans-33"/>
     <use x="31159.179688" xlink:href="#DejaVuSans-39"/>
     <use x="31222.802734" xlink:href="#DejaVuSans-2c"/>
     <use x="31254.589844" xlink:href="#DejaVuSans-20"/>
     <use x="31286.376953" xlink:href="#DejaVuSans-38"/>
     <use x="31350" xlink:href="#DejaVuSans-34"/>
     <use x="31413.623047" xlink:href="#DejaVuSans-30"/>
     <use x="31477.246094" xlink:href="#DejaVuSans-2c"/>
     <use x="31509.033203" xlink:href="#DejaVuSans-20"/>
     <use x="31540.820312" xlink:href="#DejaVuSans-33"/>
     <use x="31604.443359" xlink:href="#DejaVuSans-33"/>
     <use x="31668.066406" xlink:href="#DejaVuSans-36"/>
     <use x="31731.689453" xlink:href="#DejaVuSans-2c"/>
     <use x="31763.476562" xlink:href="#DejaVuSans-20"/>
     <use x="31795.263672" xlink:href="#DejaVuSans-32"/>
     <use x="31858.886719" xlink:href="#DejaVuSans-39"/>
     <use x="31922.509766" xlink:href="#DejaVuSans-37"/>
     <use x="31986.132812" xlink:href="#DejaVuSans-2c"/>
     <use x="32017.919922" xlink:href="#DejaVuSans-20"/>
     <use x="32049.707031" xlink:href="#DejaVuSans-39"/>
     <use x="32113.330078" xlink:href="#DejaVuSans-38"/>
     <use x="32176.953125" xlink:href="#DejaVuSans-30"/>
     <use x="32240.576172" xlink:href="#DejaVuSans-2c"/>
     <use x="32272.363281" xlink:href="#DejaVuSans-20"/>
     <use x="32304.150391" xlink:href="#DejaVuSans-37"/>
     <use x="32367.773438" xlink:href="#DejaVuSans-34"/>
     <use x="32431.396484" xlink:href="#DejaVuSans-2c"/>
     <use x="32463.183594" xlink:href="#DejaVuSans-20"/>
     <use x="32494.970703" xlink:href="#DejaVuSans-31"/>
     <use x="32558.59375" xlink:href="#DejaVuSans-30"/>
     <use x="32622.216797" xlink:href="#DejaVuSans-30"/>
     <use x="32685.839844" xlink:href="#DejaVuSans-31"/>
     <use x="32749.462891" xlink:href="#DejaVuSans-2c"/>
     <use x="32781.25" xlink:href="#DejaVuSans-20"/>
     <use x="32813.037109" xlink:href="#DejaVuSans-38"/>
     <use x="32876.660156" xlink:href="#DejaVuSans-32"/>
     <use x="32940.283203" xlink:href="#DejaVuSans-32"/>
     <use x="33003.90625" xlink:href="#DejaVuSans-2c"/>
     <use x="33035.693359" xlink:href="#DejaVuSans-20"/>
     <use x="33067.480469" xlink:href="#DejaVuSans-31"/>
     <use x="33131.103516" xlink:href="#DejaVuSans-36"/>
     <use x="33194.726562" xlink:href="#DejaVuSans-36"/>
     <use x="33258.349609" xlink:href="#DejaVuSans-2c"/>
     <use x="33290.136719" xlink:href="#DejaVuSans-20"/>
     <use x="33321.923828" xlink:href="#DejaVuSans-31"/>
     <use x="33385.546875" xlink:href="#DejaVuSans-30"/>
     <use x="33449.169922" xlink:href="#DejaVuSans-37"/>
     <use x="33512.792969" xlink:href="#DejaVuSans-33"/>
     <use x="33576.416016" xlink:href="#DejaVuSans-2c"/>
     <use x="33608.203125" xlink:href="#DejaVuSans-20"/>
     <use x="33639.990234" xlink:href="#DejaVuSans-31"/>
     <use x="33703.613281" xlink:href="#DejaVuSans-30"/>
     <use x="33767.236328" xlink:href="#DejaVuSans-33"/>
     <use x="33830.859375" xlink:href="#DejaVuSans-37"/>
     <use x="33894.482422" xlink:href="#DejaVuSans-2c"/>
     <use x="33926.269531" xlink:href="#DejaVuSans-20"/>
     <use x="33958.056641" xlink:href="#DejaVuSans-38"/>
     <use x="34021.679688" xlink:href="#DejaVuSans-31"/>
     <use x="34085.302734" xlink:href="#DejaVuSans-34"/>
     <use x="34148.925781" xlink:href="#DejaVuSans-2c"/>
     <use x="34180.712891" xlink:href="#DejaVuSans-20"/>
     <use x="34212.5" xlink:href="#DejaVuSans-34"/>
     <use x="34276.123047" xlink:href="#DejaVuSans-39"/>
     <use x="34339.746094" xlink:href="#DejaVuSans-34"/>
     <use x="34403.369141" xlink:href="#DejaVuSans-2c"/>
     <use x="34435.15625" xlink:href="#DejaVuSans-20"/>
     <use x="34466.943359" xlink:href="#DejaVuSans-34"/>
     <use x="34530.566406" xlink:href="#DejaVuSans-39"/>
     <use x="34594.189453" xlink:href="#DejaVuSans-35"/>
     <use x="34657.8125" xlink:href="#DejaVuSans-2c"/>
     <use x="34689.599609" xlink:href="#DejaVuSans-20"/>
     <use x="34721.386719" xlink:href="#DejaVuSans-31"/>
     <use x="34785.009766" xlink:href="#DejaVuSans-36"/>
     <use x="34848.632812" xlink:href="#DejaVuSans-37"/>
     <use x="34912.255859" xlink:href="#DejaVuSans-2c"/>
     <use x="34944.042969" xlink:href="#DejaVuSans-20"/>
     <use x="34975.830078" xlink:href="#DejaVuSans-33"/>
     <use x="35039.453125" xlink:href="#DejaVuSans-32"/>
     <use x="35103.076172" xlink:href="#DejaVuSans-38"/>
     <use x="35166.699219" xlink:href="#DejaVuSans-2c"/>
     <use x="35198.486328" xlink:href="#DejaVuSans-20"/>
     <use x="35230.273438" xlink:href="#DejaVuSans-33"/>
     <use x="35293.896484" xlink:href="#DejaVuSans-32"/>
     <use x="35357.519531" xlink:href="#DejaVuSans-36"/>
     <use x="35421.142578" xlink:href="#DejaVuSans-2c"/>
     <use x="35452.929688" xlink:href="#DejaVuSans-20"/>
     <use x="35484.716797" xlink:href="#DejaVuSans-31"/>
     <use x="35548.339844" xlink:href="#DejaVuSans-36"/>
     <use x="35611.962891" xlink:href="#DejaVuSans-39"/>
     <use x="35675.585938" xlink:href="#DejaVuSans-2c"/>
     <use x="35707.373047" xlink:href="#DejaVuSans-20"/>
     <use x="35739.160156" xlink:href="#DejaVuSans-33"/>
     <use x="35802.783203" xlink:href="#DejaVuSans-33"/>
     <use x="35866.40625" xlink:href="#DejaVuSans-30"/>
     <use x="35930.029297" xlink:href="#DejaVuSans-2c"/>
     <use x="35961.816406" xlink:href="#DejaVuSans-20"/>
     <use x="35993.603516" xlink:href="#DejaVuSans-32"/>
     <use x="36057.226562" xlink:href="#DejaVuSans-38"/>
     <use x="36120.849609" xlink:href="#DejaVuSans-2c"/>
     <use x="36152.636719" xlink:href="#DejaVuSans-20"/>
     <use x="36184.423828" xlink:href="#DejaVuSans-38"/>
     <use x="36248.046875" xlink:href="#DejaVuSans-31"/>
     <use x="36311.669922" xlink:href="#DejaVuSans-39"/>
     <use x="36375.292969" xlink:href="#DejaVuSans-2c"/>
     <use x="36407.080078" xlink:href="#DejaVuSans-20"/>
     <use x="36438.867188" xlink:href="#DejaVuSans-36"/>
     <use x="36502.490234" xlink:href="#DejaVuSans-35"/>
     <use x="36566.113281" xlink:href="#DejaVuSans-35"/>
     <use x="36629.736328" xlink:href="#DejaVuSans-2c"/>
     <use x="36661.523438" xlink:href="#DejaVuSans-20"/>
     <use x="36693.310547" xlink:href="#DejaVuSans-38"/>
     <use x="36756.933594" xlink:href="#DejaVuSans-31"/>
     <use x="36820.556641" xlink:href="#DejaVuSans-38"/>
     <use x="36884.179688" xlink:href="#DejaVuSans-2c"/>
     <use x="36915.966797" xlink:href="#DejaVuSans-20"/>
     <use x="36947.753906" xlink:href="#DejaVuSans-36"/>
     <use x="37011.376953" xlink:href="#DejaVuSans-35"/>
     <use x="37075" xlink:href="#DejaVuSans-38"/>
     <use x="37138.623047" xlink:href="#DejaVuSans-2c"/>
     <use x="37170.410156" xlink:href="#DejaVuSans-20"/>
     <use x="37202.197266" xlink:href="#DejaVuSans-36"/>
     <use x="37265.820312" xlink:href="#DejaVuSans-36"/>
     <use x="37329.443359" xlink:href="#DejaVuSans-36"/>
     <use x="37393.066406" xlink:href="#DejaVuSans-5d"/>
    </g>
   </g>
  </g>
 </g>
 <defs>
  <clipPath id="p207c4dba32">
   <rect height="266.112" width="357.12" x="57.6" y="41.472"/>
  </clipPath>
 </defs>
</svg>
