<?xml version="1.0" encoding="utf-8" standalone="no"?>
<!DOCTYPE svg PUBLIC "-//W3C//DTD SVG 1.1//EN"
  "http://www.w3.org/Graphics/SVG/1.1/DTD/svg11.dtd">
<!-- Created with matplotlib (http://matplotlib.org/) -->
<svg height="345.6pt" version="1.1" viewBox="0 0 460.8 345.6" width="460.8pt" xmlns="http://www.w3.org/2000/svg" xmlns:xlink="http://www.w3.org/1999/xlink">
 <defs>
  <style type="text/css">
*{stroke-linecap:butt;stroke-linejoin:round;}
  </style>
 </defs>
 <g id="figure_1">
  <g id="patch_1">
   <path d="M 0 345.6 
L 460.8 345.6 
L 460.8 0 
L 0 0 
z
" style="fill:#ffffff;"/>
  </g>
  <g id="axes_1">
   <g id="patch_2">
    <path d="M 57.6 307.584 
L 414.72 307.584 
L 414.72 41.472 
L 57.6 41.472 
z
" style="fill:#ffffff;"/>
   </g>
   <g id="matplotlib.axis_1">
    <g id="xtick_1">
     <g id="line2d_1">
      <defs>
       <path d="M 0 0 
L 0 3.5 
" id="mb438a9aada" style="stroke:#000000;stroke-width:0.8;"/>
      </defs>
      <g>
       <use style="stroke:#000000;stroke-width:0.8;" x="82.384283" xlink:href="#mb438a9aada" y="307.584"/>
      </g>
     </g>
     <g id="text_1">
      <!-- −100 -->
      <defs>
       <path d="M 10.59375 35.5 
L 73.1875 35.5 
L 73.1875 27.203125 
L 10.59375 27.203125 
z
" id="DejaVuSans-2212"/>
       <path d="M 12.40625 8.296875 
L 28.515625 8.296875 
L 28.515625 63.921875 
L 10.984375 60.40625 
L 10.984375 69.390625 
L 28.421875 72.90625 
L 38.28125 72.90625 
L 38.28125 8.296875 
L 54.390625 8.296875 
L 54.390625 0 
L 12.40625 0 
z
" id="DejaVuSans-31"/>
       <path d="M 31.78125 66.40625 
Q 24.171875 66.40625 20.328125 58.90625 
Q 16.5 51.421875 16.5 36.375 
Q 16.5 21.390625 20.328125 13.890625 
Q 24.171875 6.390625 31.78125 6.390625 
Q 39.453125 6.390625 43.28125 13.890625 
Q 47.125 21.390625 47.125 36.375 
Q 47.125 51.421875 43.28125 58.90625 
Q 39.453125 66.40625 31.78125 66.40625 
z
M 31.78125 74.21875 
Q 44.046875 74.21875 50.515625 64.515625 
Q 56.984375 54.828125 56.984375 36.375 
Q 56.984375 17.96875 50.515625 8.265625 
Q 44.046875 -1.421875 31.78125 -1.421875 
Q 19.53125 -1.421875 13.0625 8.265625 
Q 6.59375 17.96875 6.59375 36.375 
Q 6.59375 54.828125 13.0625 64.515625 
Q 19.53125 74.21875 31.78125 74.21875 
z
" id="DejaVuSans-30"/>
      </defs>
      <g transform="translate(68.650689 322.182437)scale(0.1 -0.1)">
       <use xlink:href="#DejaVuSans-2212"/>
       <use x="83.789062" xlink:href="#DejaVuSans-31"/>
       <use x="147.412109" xlink:href="#DejaVuSans-30"/>
       <use x="211.035156" xlink:href="#DejaVuSans-30"/>
      </g>
     </g>
    </g>
    <g id="xtick_2">
     <g id="line2d_2">
      <g>
       <use style="stroke:#000000;stroke-width:0.8;" x="148.307468" xlink:href="#mb438a9aada" y="307.584"/>
      </g>
     </g>
     <g id="text_2">
      <!-- −50 -->
      <defs>
       <path d="M 10.796875 72.90625 
L 49.515625 72.90625 
L 49.515625 64.59375 
L 19.828125 64.59375 
L 19.828125 46.734375 
Q 21.96875 47.46875 24.109375 47.828125 
Q 26.265625 48.1875 28.421875 48.1875 
Q 40.625 48.1875 47.75 41.5 
Q 54.890625 34.8125 54.890625 23.390625 
Q 54.890625 11.625 47.5625 5.09375 
Q 40.234375 -1.421875 26.90625 -1.421875 
Q 22.3125 -1.421875 17.546875 -0.640625 
Q 12.796875 0.140625 7.71875 1.703125 
L 7.71875 11.625 
Q 12.109375 9.234375 16.796875 8.0625 
Q 21.484375 6.890625 26.703125 6.890625 
Q 35.15625 6.890625 40.078125 11.328125 
Q 45.015625 15.765625 45.015625 23.390625 
Q 45.015625 31 40.078125 35.4375 
Q 35.15625 39.890625 26.703125 39.890625 
Q 22.75 39.890625 18.8125 39.015625 
Q 14.890625 38.140625 10.796875 36.28125 
z
" id="DejaVuSans-35"/>
      </defs>
      <g transform="translate(137.755124 322.182437)scale(0.1 -0.1)">
       <use xlink:href="#DejaVuSans-2212"/>
       <use x="83.789062" xlink:href="#DejaVuSans-35"/>
       <use x="147.412109" xlink:href="#DejaVuSans-30"/>
      </g>
     </g>
    </g>
    <g id="xtick_3">
     <g id="line2d_3">
      <g>
       <use style="stroke:#000000;stroke-width:0.8;" x="214.230653" xlink:href="#mb438a9aada" y="307.584"/>
      </g>
     </g>
     <g id="text_3">
      <!-- 0 -->
      <g transform="translate(211.049403 322.182437)scale(0.1 -0.1)">
       <use xlink:href="#DejaVuSans-30"/>
      </g>
     </g>
    </g>
    <g id="xtick_4">
     <g id="line2d_4">
      <g>
       <use style="stroke:#000000;stroke-width:0.8;" x="280.153837" xlink:href="#mb438a9aada" y="307.584"/>
      </g>
     </g>
     <g id="text_4">
      <!-- 50 -->
      <g transform="translate(273.791337 322.182437)scale(0.1 -0.1)">
       <use xlink:href="#DejaVuSans-35"/>
       <use x="63.623047" xlink:href="#DejaVuSans-30"/>
      </g>
     </g>
    </g>
    <g id="xtick_5">
     <g id="line2d_5">
      <g>
       <use style="stroke:#000000;stroke-width:0.8;" x="346.077022" xlink:href="#mb438a9aada" y="307.584"/>
      </g>
     </g>
     <g id="text_5">
      <!-- 100 -->
      <g transform="translate(336.533272 322.182437)scale(0.1 -0.1)">
       <use xlink:href="#DejaVuSans-31"/>
       <use x="63.623047" xlink:href="#DejaVuSans-30"/>
       <use x="127.246094" xlink:href="#DejaVuSans-30"/>
      </g>
     </g>
    </g>
    <g id="xtick_6">
     <g id="line2d_6">
      <g>
       <use style="stroke:#000000;stroke-width:0.8;" x="412.000207" xlink:href="#mb438a9aada" y="307.584"/>
      </g>
     </g>
     <g id="text_6">
      <!-- 150 -->
      <g transform="translate(402.456457 322.182437)scale(0.1 -0.1)">
       <use xlink:href="#DejaVuSans-31"/>
       <use x="63.623047" xlink:href="#DejaVuSans-35"/>
       <use x="127.246094" xlink:href="#DejaVuSans-30"/>
      </g>
     </g>
    </g>
   </g>
   <g id="matplotlib.axis_2">
    <g id="ytick_1">
     <g id="line2d_7">
      <defs>
       <path d="M 0 0 
L -3.5 0 
" id="m34917ee509" style="stroke:#000000;stroke-width:0.8;"/>
      </defs>
      <g>
       <use style="stroke:#000000;stroke-width:0.8;" x="57.6" xlink:href="#m34917ee509" y="258.006126"/>
      </g>
     </g>
     <g id="text_7">
      <!-- −20 -->
      <defs>
       <path d="M 19.1875 8.296875 
L 53.609375 8.296875 
L 53.609375 0 
L 7.328125 0 
L 7.328125 8.296875 
Q 12.9375 14.109375 22.625 23.890625 
Q 32.328125 33.6875 34.8125 36.53125 
Q 39.546875 41.84375 41.421875 45.53125 
Q 43.3125 49.21875 43.3125 52.78125 
Q 43.3125 58.59375 39.234375 62.25 
Q 35.15625 65.921875 28.609375 65.921875 
Q 23.96875 65.921875 18.8125 64.3125 
Q 13.671875 62.703125 7.8125 59.421875 
L 7.8125 69.390625 
Q 13.765625 71.78125 18.9375 73 
Q 24.125 74.21875 28.421875 74.21875 
Q 39.75 74.21875 46.484375 68.546875 
Q 53.21875 62.890625 53.21875 53.421875 
Q 53.21875 48.921875 51.53125 44.890625 
Q 49.859375 40.875 45.40625 35.40625 
Q 44.1875 33.984375 37.640625 27.21875 
Q 31.109375 20.453125 19.1875 8.296875 
z
" id="DejaVuSans-32"/>
      </defs>
      <g transform="translate(29.495313 261.805344)scale(0.1 -0.1)">
       <use xlink:href="#DejaVuSans-2212"/>
       <use x="83.789062" xlink:href="#DejaVuSans-32"/>
       <use x="147.412109" xlink:href="#DejaVuSans-30"/>
      </g>
     </g>
    </g>
    <g id="ytick_2">
     <g id="line2d_8">
      <g>
       <use style="stroke:#000000;stroke-width:0.8;" x="57.6" xlink:href="#m34917ee509" y="202.270997"/>
      </g>
     </g>
     <g id="text_8">
      <!-- 0 -->
      <g transform="translate(44.2375 206.070215)scale(0.1 -0.1)">
       <use xlink:href="#DejaVuSans-30"/>
      </g>
     </g>
    </g>
    <g id="ytick_3">
     <g id="line2d_9">
      <g>
       <use style="stroke:#000000;stroke-width:0.8;" x="57.6" xlink:href="#m34917ee509" y="146.535867"/>
      </g>
     </g>
     <g id="text_9">
      <!-- 20 -->
      <g transform="translate(37.875 150.335086)scale(0.1 -0.1)">
       <use xlink:href="#DejaVuSans-32"/>
       <use x="63.623047" xlink:href="#DejaVuSans-30"/>
      </g>
     </g>
    </g>
    <g id="ytick_4">
     <g id="line2d_10">
      <g>
       <use style="stroke:#000000;stroke-width:0.8;" x="57.6" xlink:href="#m34917ee509" y="90.800738"/>
      </g>
     </g>
     <g id="text_10">
      <!-- 40 -->
      <defs>
       <path d="M 37.796875 64.3125 
L 12.890625 25.390625 
L 37.796875 25.390625 
z
M 35.203125 72.90625 
L 47.609375 72.90625 
L 47.609375 25.390625 
L 58.015625 25.390625 
L 58.015625 17.1875 
L 47.609375 17.1875 
L 47.609375 0 
L 37.796875 0 
L 37.796875 17.1875 
L 4.890625 17.1875 
L 4.890625 26.703125 
z
" id="DejaVuSans-34"/>
      </defs>
      <g transform="translate(37.875 94.599957)scale(0.1 -0.1)">
       <use xlink:href="#DejaVuSans-34"/>
       <use x="63.623047" xlink:href="#DejaVuSans-30"/>
      </g>
     </g>
    </g>
   </g>
   <g id="line2d_11">
    <path clip-path="url(#pb6547f27da)" d="M 398.487273 102.825592 
L 371.337468 105.850059 
L 360.448277 141.937719 
L 354.886997 144.150125 
L 356.916112 157.493951 
L 369.964948 185.995781 
L 374.292145 115.75447 
L 351.076637 101.790591 
L 355.196836 68.738823 
L 324.669918 53.568 
L 315.686434 56.523634 
L 310.742195 140.126328 
L 310.248826 149.392293 
L 318.784824 146.675205 
L 314.961675 117.75787 
L 300.867034 114.172429 
L 285.911173 134.088262 
L 272.760157 103.43004 
L 273.656976 97.613522 
L 252.546658 90.266517 
L 224.338879 76.727618 
L 202.051766 112.260435 
L 191.239151 161.38705 
L 150.307182 206.311793 
L 157.07156 262.887687 
L 157.003131 265.703147 
L 152.768226 268.317125 
L 146.791234 267.202422 
L 136.660028 278.852736 
L 121.059174 295.488 
L 119.914352 247.970737 
L 129.980822 226.701571 
L 110.731252 202.874795 
L 116.378496 189.509408 
L 114.610173 184.610429 
L 99.2386 162.977731 
L 83.388557 147.986653 
L 73.836683 113.838018 
L 73.832727 113.767513 
L 107.641696 104.102206 
" style="fill:none;stroke:#0000ff;stroke-linecap:square;stroke-width:1.1;"/>
   </g>
   <g id="patch_3">
    <path d="M 57.6 307.584 
L 57.6 41.472 
" style="fill:none;stroke:#000000;stroke-linecap:square;stroke-linejoin:miter;stroke-width:0.8;"/>
   </g>
   <g id="patch_4">
    <path d="M 414.72 307.584 
L 414.72 41.472 
" style="fill:none;stroke:#000000;stroke-linecap:square;stroke-linejoin:miter;stroke-width:0.8;"/>
   </g>
   <g id="patch_5">
    <path d="M 57.6 307.584 
L 414.72 307.584 
" style="fill:none;stroke:#000000;stroke-linecap:square;stroke-linejoin:miter;stroke-width:0.8;"/>
   </g>
   <g id="patch_6">
    <path d="M 57.6 41.472 
L 414.72 41.472 
" style="fill:none;stroke:#000000;stroke-linecap:square;stroke-linejoin:miter;stroke-width:0.8;"/>
   </g>
   <g id="text_11">
    <!-- Grafica de la ruta [1, 815, 653, 490, 654, 816, 2, 163, 329, 493, 979, 165, 3, 981, 978, 817, 489, 492, 491, 164, 327, 980, 74, 166, 658, 666, 818, 655, 819, 28, 330, 1073, 169, 1037, 814, 326, 328, 167, 495, 494] -->
    <defs>
     <path d="M 59.515625 10.40625 
L 59.515625 29.984375 
L 43.40625 29.984375 
L 43.40625 38.09375 
L 69.28125 38.09375 
L 69.28125 6.78125 
Q 63.578125 2.734375 56.6875 0.65625 
Q 49.8125 -1.421875 42 -1.421875 
Q 24.90625 -1.421875 15.25 8.5625 
Q 5.609375 18.5625 5.609375 36.375 
Q 5.609375 54.25 15.25 64.234375 
Q 24.90625 74.21875 42 74.21875 
Q 49.125 74.21875 55.546875 72.453125 
Q 61.96875 70.703125 67.390625 67.28125 
L 67.390625 56.78125 
Q 61.921875 61.421875 55.765625 63.765625 
Q 49.609375 66.109375 42.828125 66.109375 
Q 29.4375 66.109375 22.71875 58.640625 
Q 16.015625 51.171875 16.015625 36.375 
Q 16.015625 21.625 22.71875 14.15625 
Q 29.4375 6.6875 42.828125 6.6875 
Q 48.046875 6.6875 52.140625 7.59375 
Q 56.25 8.5 59.515625 10.40625 
z
" id="DejaVuSans-47"/>
     <path d="M 41.109375 46.296875 
Q 39.59375 47.171875 37.8125 47.578125 
Q 36.03125 48 33.890625 48 
Q 26.265625 48 22.1875 43.046875 
Q 18.109375 38.09375 18.109375 28.8125 
L 18.109375 0 
L 9.078125 0 
L 9.078125 54.6875 
L 18.109375 54.6875 
L 18.109375 46.1875 
Q 20.953125 51.171875 25.484375 53.578125 
Q 30.03125 56 36.53125 56 
Q 37.453125 56 38.578125 55.875 
Q 39.703125 55.765625 41.0625 55.515625 
z
" id="DejaVuSans-72"/>
     <path d="M 34.28125 27.484375 
Q 23.390625 27.484375 19.1875 25 
Q 14.984375 22.515625 14.984375 16.5 
Q 14.984375 11.71875 18.140625 8.90625 
Q 21.296875 6.109375 26.703125 6.109375 
Q 34.1875 6.109375 38.703125 11.40625 
Q 43.21875 16.703125 43.21875 25.484375 
L 43.21875 27.484375 
z
M 52.203125 31.203125 
L 52.203125 0 
L 43.21875 0 
L 43.21875 8.296875 
Q 40.140625 3.328125 35.546875 0.953125 
Q 30.953125 -1.421875 24.3125 -1.421875 
Q 15.921875 -1.421875 10.953125 3.296875 
Q 6 8.015625 6 15.921875 
Q 6 25.140625 12.171875 29.828125 
Q 18.359375 34.515625 30.609375 34.515625 
L 43.21875 34.515625 
L 43.21875 35.40625 
Q 43.21875 41.609375 39.140625 45 
Q 35.0625 48.390625 27.6875 48.390625 
Q 23 48.390625 18.546875 47.265625 
Q 14.109375 46.140625 10.015625 43.890625 
L 10.015625 52.203125 
Q 14.9375 54.109375 19.578125 55.046875 
Q 24.21875 56 28.609375 56 
Q 40.484375 56 46.34375 49.84375 
Q 52.203125 43.703125 52.203125 31.203125 
z
" id="DejaVuSans-61"/>
     <path d="M 37.109375 75.984375 
L 37.109375 68.5 
L 28.515625 68.5 
Q 23.6875 68.5 21.796875 66.546875 
Q 19.921875 64.59375 19.921875 59.515625 
L 19.921875 54.6875 
L 34.71875 54.6875 
L 34.71875 47.703125 
L 19.921875 47.703125 
L 19.921875 0 
L 10.890625 0 
L 10.890625 47.703125 
L 2.296875 47.703125 
L 2.296875 54.6875 
L 10.890625 54.6875 
L 10.890625 58.5 
Q 10.890625 67.625 15.140625 71.796875 
Q 19.390625 75.984375 28.609375 75.984375 
z
" id="DejaVuSans-66"/>
     <path d="M 9.421875 54.6875 
L 18.40625 54.6875 
L 18.40625 0 
L 9.421875 0 
z
M 9.421875 75.984375 
L 18.40625 75.984375 
L 18.40625 64.59375 
L 9.421875 64.59375 
z
" id="DejaVuSans-69"/>
     <path d="M 48.78125 52.59375 
L 48.78125 44.1875 
Q 44.96875 46.296875 41.140625 47.34375 
Q 37.3125 48.390625 33.40625 48.390625 
Q 24.65625 48.390625 19.8125 42.84375 
Q 14.984375 37.3125 14.984375 27.296875 
Q 14.984375 17.28125 19.8125 11.734375 
Q 24.65625 6.203125 33.40625 6.203125 
Q 37.3125 6.203125 41.140625 7.25 
Q 44.96875 8.296875 48.78125 10.40625 
L 48.78125 2.09375 
Q 45.015625 0.34375 40.984375 -0.53125 
Q 36.96875 -1.421875 32.421875 -1.421875 
Q 20.0625 -1.421875 12.78125 6.34375 
Q 5.515625 14.109375 5.515625 27.296875 
Q 5.515625 40.671875 12.859375 48.328125 
Q 20.21875 56 33.015625 56 
Q 37.15625 56 41.109375 55.140625 
Q 45.0625 54.296875 48.78125 52.59375 
z
" id="DejaVuSans-63"/>
     <path id="DejaVuSans-20"/>
     <path d="M 45.40625 46.390625 
L 45.40625 75.984375 
L 54.390625 75.984375 
L 54.390625 0 
L 45.40625 0 
L 45.40625 8.203125 
Q 42.578125 3.328125 38.25 0.953125 
Q 33.9375 -1.421875 27.875 -1.421875 
Q 17.96875 -1.421875 11.734375 6.484375 
Q 5.515625 14.40625 5.515625 27.296875 
Q 5.515625 40.1875 11.734375 48.09375 
Q 17.96875 56 27.875 56 
Q 33.9375 56 38.25 53.625 
Q 42.578125 51.265625 45.40625 46.390625 
z
M 14.796875 27.296875 
Q 14.796875 17.390625 18.875 11.75 
Q 22.953125 6.109375 30.078125 6.109375 
Q 37.203125 6.109375 41.296875 11.75 
Q 45.40625 17.390625 45.40625 27.296875 
Q 45.40625 37.203125 41.296875 42.84375 
Q 37.203125 48.484375 30.078125 48.484375 
Q 22.953125 48.484375 18.875 42.84375 
Q 14.796875 37.203125 14.796875 27.296875 
z
" id="DejaVuSans-64"/>
     <path d="M 56.203125 29.59375 
L 56.203125 25.203125 
L 14.890625 25.203125 
Q 15.484375 15.921875 20.484375 11.0625 
Q 25.484375 6.203125 34.421875 6.203125 
Q 39.59375 6.203125 44.453125 7.46875 
Q 49.3125 8.734375 54.109375 11.28125 
L 54.109375 2.78125 
Q 49.265625 0.734375 44.1875 -0.34375 
Q 39.109375 -1.421875 33.890625 -1.421875 
Q 20.796875 -1.421875 13.15625 6.1875 
Q 5.515625 13.8125 5.515625 26.8125 
Q 5.515625 40.234375 12.765625 48.109375 
Q 20.015625 56 32.328125 56 
Q 43.359375 56 49.78125 48.890625 
Q 56.203125 41.796875 56.203125 29.59375 
z
M 47.21875 32.234375 
Q 47.125 39.59375 43.09375 43.984375 
Q 39.0625 48.390625 32.421875 48.390625 
Q 24.90625 48.390625 20.390625 44.140625 
Q 15.875 39.890625 15.1875 32.171875 
z
" id="DejaVuSans-65"/>
     <path d="M 9.421875 75.984375 
L 18.40625 75.984375 
L 18.40625 0 
L 9.421875 0 
z
" id="DejaVuSans-6c"/>
     <path d="M 8.5 21.578125 
L 8.5 54.6875 
L 17.484375 54.6875 
L 17.484375 21.921875 
Q 17.484375 14.15625 20.5 10.265625 
Q 23.53125 6.390625 29.59375 6.390625 
Q 36.859375 6.390625 41.078125 11.03125 
Q 45.3125 15.671875 45.3125 23.6875 
L 45.3125 54.6875 
L 54.296875 54.6875 
L 54.296875 0 
L 45.3125 0 
L 45.3125 8.40625 
Q 42.046875 3.421875 37.71875 1 
Q 33.40625 -1.421875 27.6875 -1.421875 
Q 18.265625 -1.421875 13.375 4.4375 
Q 8.5 10.296875 8.5 21.578125 
z
M 31.109375 56 
z
" id="DejaVuSans-75"/>
     <path d="M 18.3125 70.21875 
L 18.3125 54.6875 
L 36.8125 54.6875 
L 36.8125 47.703125 
L 18.3125 47.703125 
L 18.3125 18.015625 
Q 18.3125 11.328125 20.140625 9.421875 
Q 21.96875 7.515625 27.59375 7.515625 
L 36.8125 7.515625 
L 36.8125 0 
L 27.59375 0 
Q 17.1875 0 13.234375 3.875 
Q 9.28125 7.765625 9.28125 18.015625 
L 9.28125 47.703125 
L 2.6875 47.703125 
L 2.6875 54.6875 
L 9.28125 54.6875 
L 9.28125 70.21875 
z
" id="DejaVuSans-74"/>
     <path d="M 8.59375 75.984375 
L 29.296875 75.984375 
L 29.296875 69 
L 17.578125 69 
L 17.578125 -6.203125 
L 29.296875 -6.203125 
L 29.296875 -13.1875 
L 8.59375 -13.1875 
z
" id="DejaVuSans-5b"/>
     <path d="M 11.71875 12.40625 
L 22.015625 12.40625 
L 22.015625 4 
L 14.015625 -11.625 
L 7.71875 -11.625 
L 11.71875 4 
z
" id="DejaVuSans-2c"/>
     <path d="M 31.78125 34.625 
Q 24.75 34.625 20.71875 30.859375 
Q 16.703125 27.09375 16.703125 20.515625 
Q 16.703125 13.921875 20.71875 10.15625 
Q 24.75 6.390625 31.78125 6.390625 
Q 38.8125 6.390625 42.859375 10.171875 
Q 46.921875 13.96875 46.921875 20.515625 
Q 46.921875 27.09375 42.890625 30.859375 
Q 38.875 34.625 31.78125 34.625 
z
M 21.921875 38.8125 
Q 15.578125 40.375 12.03125 44.71875 
Q 8.5 49.078125 8.5 55.328125 
Q 8.5 64.0625 14.71875 69.140625 
Q 20.953125 74.21875 31.78125 74.21875 
Q 42.671875 74.21875 48.875 69.140625 
Q 55.078125 64.0625 55.078125 55.328125 
Q 55.078125 49.078125 51.53125 44.71875 
Q 48 40.375 41.703125 38.8125 
Q 48.828125 37.15625 52.796875 32.3125 
Q 56.78125 27.484375 56.78125 20.515625 
Q 56.78125 9.90625 50.3125 4.234375 
Q 43.84375 -1.421875 31.78125 -1.421875 
Q 19.734375 -1.421875 13.25 4.234375 
Q 6.78125 9.90625 6.78125 20.515625 
Q 6.78125 27.484375 10.78125 32.3125 
Q 14.796875 37.15625 21.921875 38.8125 
z
M 18.3125 54.390625 
Q 18.3125 48.734375 21.84375 45.5625 
Q 25.390625 42.390625 31.78125 42.390625 
Q 38.140625 42.390625 41.71875 45.5625 
Q 45.3125 48.734375 45.3125 54.390625 
Q 45.3125 60.0625 41.71875 63.234375 
Q 38.140625 66.40625 31.78125 66.40625 
Q 25.390625 66.40625 21.84375 63.234375 
Q 18.3125 60.0625 18.3125 54.390625 
z
" id="DejaVuSans-38"/>
     <path d="M 33.015625 40.375 
Q 26.375 40.375 22.484375 35.828125 
Q 18.609375 31.296875 18.609375 23.390625 
Q 18.609375 15.53125 22.484375 10.953125 
Q 26.375 6.390625 33.015625 6.390625 
Q 39.65625 6.390625 43.53125 10.953125 
Q 47.40625 15.53125 47.40625 23.390625 
Q 47.40625 31.296875 43.53125 35.828125 
Q 39.65625 40.375 33.015625 40.375 
z
M 52.59375 71.296875 
L 52.59375 62.3125 
Q 48.875 64.0625 45.09375 64.984375 
Q 41.3125 65.921875 37.59375 65.921875 
Q 27.828125 65.921875 22.671875 59.328125 
Q 17.53125 52.734375 16.796875 39.40625 
Q 19.671875 43.65625 24.015625 45.921875 
Q 28.375 48.1875 33.59375 48.1875 
Q 44.578125 48.1875 50.953125 41.515625 
Q 57.328125 34.859375 57.328125 23.390625 
Q 57.328125 12.15625 50.6875 5.359375 
Q 44.046875 -1.421875 33.015625 -1.421875 
Q 20.359375 -1.421875 13.671875 8.265625 
Q 6.984375 17.96875 6.984375 36.375 
Q 6.984375 53.65625 15.1875 63.9375 
Q 23.390625 74.21875 37.203125 74.21875 
Q 40.921875 74.21875 44.703125 73.484375 
Q 48.484375 72.75 52.59375 71.296875 
z
" id="DejaVuSans-36"/>
     <path d="M 40.578125 39.3125 
Q 47.65625 37.796875 51.625 33 
Q 55.609375 28.21875 55.609375 21.1875 
Q 55.609375 10.40625 48.1875 4.484375 
Q 40.765625 -1.421875 27.09375 -1.421875 
Q 22.515625 -1.421875 17.65625 -0.515625 
Q 12.796875 0.390625 7.625 2.203125 
L 7.625 11.71875 
Q 11.71875 9.328125 16.59375 8.109375 
Q 21.484375 6.890625 26.8125 6.890625 
Q 36.078125 6.890625 40.9375 10.546875 
Q 45.796875 14.203125 45.796875 21.1875 
Q 45.796875 27.640625 41.28125 31.265625 
Q 36.765625 34.90625 28.71875 34.90625 
L 20.21875 34.90625 
L 20.21875 43.015625 
L 29.109375 43.015625 
Q 36.375 43.015625 40.234375 45.921875 
Q 44.09375 48.828125 44.09375 54.296875 
Q 44.09375 59.90625 40.109375 62.90625 
Q 36.140625 65.921875 28.71875 65.921875 
Q 24.65625 65.921875 20.015625 65.03125 
Q 15.375 64.15625 9.8125 62.3125 
L 9.8125 71.09375 
Q 15.4375 72.65625 20.34375 73.4375 
Q 25.25 74.21875 29.59375 74.21875 
Q 40.828125 74.21875 47.359375 69.109375 
Q 53.90625 64.015625 53.90625 55.328125 
Q 53.90625 49.265625 50.4375 45.09375 
Q 46.96875 40.921875 40.578125 39.3125 
z
" id="DejaVuSans-33"/>
     <path d="M 10.984375 1.515625 
L 10.984375 10.5 
Q 14.703125 8.734375 18.5 7.8125 
Q 22.3125 6.890625 25.984375 6.890625 
Q 35.75 6.890625 40.890625 13.453125 
Q 46.046875 20.015625 46.78125 33.40625 
Q 43.953125 29.203125 39.59375 26.953125 
Q 35.25 24.703125 29.984375 24.703125 
Q 19.046875 24.703125 12.671875 31.3125 
Q 6.296875 37.9375 6.296875 49.421875 
Q 6.296875 60.640625 12.9375 67.421875 
Q 19.578125 74.21875 30.609375 74.21875 
Q 43.265625 74.21875 49.921875 64.515625 
Q 56.59375 54.828125 56.59375 36.375 
Q 56.59375 19.140625 48.40625 8.859375 
Q 40.234375 -1.421875 26.421875 -1.421875 
Q 22.703125 -1.421875 18.890625 -0.6875 
Q 15.09375 0.046875 10.984375 1.515625 
z
M 30.609375 32.421875 
Q 37.25 32.421875 41.125 36.953125 
Q 45.015625 41.5 45.015625 49.421875 
Q 45.015625 57.28125 41.125 61.84375 
Q 37.25 66.40625 30.609375 66.40625 
Q 23.96875 66.40625 20.09375 61.84375 
Q 16.21875 57.28125 16.21875 49.421875 
Q 16.21875 41.5 20.09375 36.953125 
Q 23.96875 32.421875 30.609375 32.421875 
z
" id="DejaVuSans-39"/>
     <path d="M 8.203125 72.90625 
L 55.078125 72.90625 
L 55.078125 68.703125 
L 28.609375 0 
L 18.3125 0 
L 43.21875 64.59375 
L 8.203125 64.59375 
z
" id="DejaVuSans-37"/>
     <path d="M 30.421875 75.984375 
L 30.421875 -13.1875 
L 9.71875 -13.1875 
L 9.71875 -6.203125 
L 21.390625 -6.203125 
L 21.390625 69 
L 9.71875 69 
L 9.71875 75.984375 
z
" id="DejaVuSans-5d"/>
    </defs>
    <g transform="translate(-406.770938 35.472)scale(0.12 -0.12)">
     <use xlink:href="#DejaVuSans-47"/>
     <use x="77.490234" xlink:href="#DejaVuSans-72"/>
     <use x="118.603516" xlink:href="#DejaVuSans-61"/>
     <use x="179.882812" xlink:href="#DejaVuSans-66"/>
     <use x="215.087891" xlink:href="#DejaVuSans-69"/>
     <use x="242.871094" xlink:href="#DejaVuSans-63"/>
     <use x="297.851562" xlink:href="#DejaVuSans-61"/>
     <use x="359.130859" xlink:href="#DejaVuSans-20"/>
     <use x="390.917969" xlink:href="#DejaVuSans-64"/>
     <use x="454.394531" xlink:href="#DejaVuSans-65"/>
     <use x="515.917969" xlink:href="#DejaVuSans-20"/>
     <use x="547.705078" xlink:href="#DejaVuSans-6c"/>
     <use x="575.488281" xlink:href="#DejaVuSans-61"/>
     <use x="636.767578" xlink:href="#DejaVuSans-20"/>
     <use x="668.554688" xlink:href="#DejaVuSans-72"/>
     <use x="709.667969" xlink:href="#DejaVuSans-75"/>
     <use x="773.046875" xlink:href="#DejaVuSans-74"/>
     <use x="812.255859" xlink:href="#DejaVuSans-61"/>
     <use x="873.535156" xlink:href="#DejaVuSans-20"/>
     <use x="905.322266" xlink:href="#DejaVuSans-5b"/>
     <use x="944.335938" xlink:href="#DejaVuSans-31"/>
     <use x="1007.958984" xlink:href="#DejaVuSans-2c"/>
     <use x="1039.746094" xlink:href="#DejaVuSans-20"/>
     <use x="1071.533203" xlink:href="#DejaVuSans-38"/>
     <use x="1135.15625" xlink:href="#DejaVuSans-31"/>
     <use x="1198.779297" xlink:href="#DejaVuSans-35"/>
     <use x="1262.402344" xlink:href="#DejaVuSans-2c"/>
     <use x="1294.189453" xlink:href="#DejaVuSans-20"/>
     <use x="1325.976562" xlink:href="#DejaVuSans-36"/>
     <use x="1389.599609" xlink:href="#DejaVuSans-35"/>
     <use x="1453.222656" xlink:href="#DejaVuSans-33"/>
     <use x="1516.845703" xlink:href="#DejaVuSans-2c"/>
     <use x="1548.632812" xlink:href="#DejaVuSans-20"/>
     <use x="1580.419922" xlink:href="#DejaVuSans-34"/>
     <use x="1644.042969" xlink:href="#DejaVuSans-39"/>
     <use x="1707.666016" xlink:href="#DejaVuSans-30"/>
     <use x="1771.289062" xlink:href="#DejaVuSans-2c"/>
     <use x="1803.076172" xlink:href="#DejaVuSans-20"/>
     <use x="1834.863281" xlink:href="#DejaVuSans-36"/>
     <use x="1898.486328" xlink:href="#DejaVuSans-35"/>
     <use x="1962.109375" xlink:href="#DejaVuSans-34"/>
     <use x="2025.732422" xlink:href="#DejaVuSans-2c"/>
     <use x="2057.519531" xlink:href="#DejaVuSans-20"/>
     <use x="2089.306641" xlink:href="#DejaVuSans-38"/>
     <use x="2152.929688" xlink:href="#DejaVuSans-31"/>
     <use x="2216.552734" xlink:href="#DejaVuSans-36"/>
     <use x="2280.175781" xlink:href="#DejaVuSans-2c"/>
     <use x="2311.962891" xlink:href="#DejaVuSans-20"/>
     <use x="2343.75" xlink:href="#DejaVuSans-32"/>
     <use x="2407.373047" xlink:href="#DejaVuSans-2c"/>
     <use x="2439.160156" xlink:href="#DejaVuSans-20"/>
     <use x="2470.947266" xlink:href="#DejaVuSans-31"/>
     <use x="2534.570312" xlink:href="#DejaVuSans-36"/>
     <use x="2598.193359" xlink:href="#DejaVuSans-33"/>
     <use x="2661.816406" xlink:href="#DejaVuSans-2c"/>
     <use x="2693.603516" xlink:href="#DejaVuSans-20"/>
     <use x="2725.390625" xlink:href="#DejaVuSans-33"/>
     <use x="2789.013672" xlink:href="#DejaVuSans-32"/>
     <use x="2852.636719" xlink:href="#DejaVuSans-39"/>
     <use x="2916.259766" xlink:href="#DejaVuSans-2c"/>
     <use x="2948.046875" xlink:href="#DejaVuSans-20"/>
     <use x="2979.833984" xlink:href="#DejaVuSans-34"/>
     <use x="3043.457031" xlink:href="#DejaVuSans-39"/>
     <use x="3107.080078" xlink:href="#DejaVuSans-33"/>
     <use x="3170.703125" xlink:href="#DejaVuSans-2c"/>
     <use x="3202.490234" xlink:href="#DejaVuSans-20"/>
     <use x="3234.277344" xlink:href="#DejaVuSans-39"/>
     <use x="3297.900391" xlink:href="#DejaVuSans-37"/>
     <use x="3361.523438" xlink:href="#DejaVuSans-39"/>
     <use x="3425.146484" xlink:href="#DejaVuSans-2c"/>
     <use x="3456.933594" xlink:href="#DejaVuSans-20"/>
     <use x="3488.720703" xlink:href="#DejaVuSans-31"/>
     <use x="3552.34375" xlink:href="#DejaVuSans-36"/>
     <use x="3615.966797" xlink:href="#DejaVuSans-35"/>
     <use x="3679.589844" xlink:href="#DejaVuSans-2c"/>
     <use x="3711.376953" xlink:href="#DejaVuSans-20"/>
     <use x="3743.164062" xlink:href="#DejaVuSans-33"/>
     <use x="3806.787109" xlink:href="#DejaVuSans-2c"/>
     <use x="3838.574219" xlink:href="#DejaVuSans-20"/>
     <use x="3870.361328" xlink:href="#DejaVuSans-39"/>
     <use x="3933.984375" xlink:href="#DejaVuSans-38"/>
     <use x="3997.607422" xlink:href="#DejaVuSans-31"/>
     <use x="4061.230469" xlink:href="#DejaVuSans-2c"/>
     <use x="4093.017578" xlink:href="#DejaVuSans-20"/>
     <use x="4124.804688" xlink:href="#DejaVuSans-39"/>
     <use x="4188.427734" xlink:href="#DejaVuSans-37"/>
     <use x="4252.050781" xlink:href="#DejaVuSans-38"/>
     <use x="4315.673828" xlink:href="#DejaVuSans-2c"/>
     <use x="4347.460938" xlink:href="#DejaVuSans-20"/>
     <use x="4379.248047" xlink:href="#DejaVuSans-38"/>
     <use x="4442.871094" xlink:href="#DejaVuSans-31"/>
     <use x="4506.494141" xlink:href="#DejaVuSans-37"/>
     <use x="4570.117188" xlink:href="#DejaVuSans-2c"/>
     <use x="4601.904297" xlink:href="#DejaVuSans-20"/>
     <use x="4633.691406" xlink:href="#DejaVuSans-34"/>
     <use x="4697.314453" xlink:href="#DejaVuSans-38"/>
     <use x="4760.9375" xlink:href="#DejaVuSans-39"/>
     <use x="4824.560547" xlink:href="#DejaVuSans-2c"/>
     <use x="4856.347656" xlink:href="#DejaVuSans-20"/>
     <use x="4888.134766" xlink:href="#DejaVuSans-34"/>
     <use x="4951.757812" xlink:href="#DejaVuSans-39"/>
     <use x="5015.380859" xlink:href="#DejaVuSans-32"/>
     <use x="5079.003906" xlink:href="#DejaVuSans-2c"/>
     <use x="5110.791016" xlink:href="#DejaVuSans-20"/>
     <use x="5142.578125" xlink:href="#DejaVuSans-34"/>
     <use x="5206.201172" xlink:href="#DejaVuSans-39"/>
     <use x="5269.824219" xlink:href="#DejaVuSans-31"/>
     <use x="5333.447266" xlink:href="#DejaVuSans-2c"/>
     <use x="5365.234375" xlink:href="#DejaVuSans-20"/>
     <use x="5397.021484" xlink:href="#DejaVuSans-31"/>
     <use x="5460.644531" xlink:href="#DejaVuSans-36"/>
     <use x="5524.267578" xlink:href="#DejaVuSans-34"/>
     <use x="5587.890625" xlink:href="#DejaVuSans-2c"/>
     <use x="5619.677734" xlink:href="#DejaVuSans-20"/>
     <use x="5651.464844" xlink:href="#DejaVuSans-33"/>
     <use x="5715.087891" xlink:href="#DejaVuSans-32"/>
     <use x="5778.710938" xlink:href="#DejaVuSans-37"/>
     <use x="5842.333984" xlink:href="#DejaVuSans-2c"/>
     <use x="5874.121094" xlink:href="#DejaVuSans-20"/>
     <use x="5905.908203" xlink:href="#DejaVuSans-39"/>
     <use x="5969.53125" xlink:href="#DejaVuSans-38"/>
     <use x="6033.154297" xlink:href="#DejaVuSans-30"/>
     <use x="6096.777344" xlink:href="#DejaVuSans-2c"/>
     <use x="6128.564453" xlink:href="#DejaVuSans-20"/>
     <use x="6160.351562" xlink:href="#DejaVuSans-37"/>
     <use x="6223.974609" xlink:href="#DejaVuSans-34"/>
     <use x="6287.597656" xlink:href="#DejaVuSans-2c"/>
     <use x="6319.384766" xlink:href="#DejaVuSans-20"/>
     <use x="6351.171875" xlink:href="#DejaVuSans-31"/>
     <use x="6414.794922" xlink:href="#DejaVuSans-36"/>
     <use x="6478.417969" xlink:href="#DejaVuSans-36"/>
     <use x="6542.041016" xlink:href="#DejaVuSans-2c"/>
     <use x="6573.828125" xlink:href="#DejaVuSans-20"/>
     <use x="6605.615234" xlink:href="#DejaVuSans-36"/>
     <use x="6669.238281" xlink:href="#DejaVuSans-35"/>
     <use x="6732.861328" xlink:href="#DejaVuSans-38"/>
     <use x="6796.484375" xlink:href="#DejaVuSans-2c"/>
     <use x="6828.271484" xlink:href="#DejaVuSans-20"/>
     <use x="6860.058594" xlink:href="#DejaVuSans-36"/>
     <use x="6923.681641" xlink:href="#DejaVuSans-36"/>
     <use x="6987.304688" xlink:href="#DejaVuSans-36"/>
     <use x="7050.927734" xlink:href="#DejaVuSans-2c"/>
     <use x="7082.714844" xlink:href="#DejaVuSans-20"/>
     <use x="7114.501953" xlink:href="#DejaVuSans-38"/>
     <use x="7178.125" xlink:href="#DejaVuSans-31"/>
     <use x="7241.748047" xlink:href="#DejaVuSans-38"/>
     <use x="7305.371094" xlink:href="#DejaVuSans-2c"/>
     <use x="7337.158203" xlink:href="#DejaVuSans-20"/>
     <use x="7368.945312" xlink:href="#DejaVuSans-36"/>
     <use x="7432.568359" xlink:href="#DejaVuSans-35"/>
     <use x="7496.191406" xlink:href="#DejaVuSans-35"/>
     <use x="7559.814453" xlink:href="#DejaVuSans-2c"/>
     <use x="7591.601562" xlink:href="#DejaVuSans-20"/>
     <use x="7623.388672" xlink:href="#DejaVuSans-38"/>
     <use x="7687.011719" xlink:href="#DejaVuSans-31"/>
     <use x="7750.634766" xlink:href="#DejaVuSans-39"/>
     <use x="7814.257812" xlink:href="#DejaVuSans-2c"/>
     <use x="7846.044922" xlink:href="#DejaVuSans-20"/>
     <use x="7877.832031" xlink:href="#DejaVuSans-32"/>
     <use x="7941.455078" xlink:href="#DejaVuSans-38"/>
     <use x="8005.078125" xlink:href="#DejaVuSans-2c"/>
     <use x="8036.865234" xlink:href="#DejaVuSans-20"/>
     <use x="8068.652344" xlink:href="#DejaVuSans-33"/>
     <use x="8132.275391" xlink:href="#DejaVuSans-33"/>
     <use x="8195.898438" xlink:href="#DejaVuSans-30"/>
     <use x="8259.521484" xlink:href="#DejaVuSans-2c"/>
     <use x="8291.308594" xlink:href="#DejaVuSans-20"/>
     <use x="8323.095703" xlink:href="#DejaVuSans-31"/>
     <use x="8386.71875" xlink:href="#DejaVuSans-30"/>
     <use x="8450.341797" xlink:href="#DejaVuSans-37"/>
     <use x="8513.964844" xlink:href="#DejaVuSans-33"/>
     <use x="8577.587891" xlink:href="#DejaVuSans-2c"/>
     <use x="8609.375" xlink:href="#DejaVuSans-20"/>
     <use x="8641.162109" xlink:href="#DejaVuSans-31"/>
     <use x="8704.785156" xlink:href="#DejaVuSans-36"/>
     <use x="8768.408203" xlink:href="#DejaVuSans-39"/>
     <use x="8832.03125" xlink:href="#DejaVuSans-2c"/>
     <use x="8863.818359" xlink:href="#DejaVuSans-20"/>
     <use x="8895.605469" xlink:href="#DejaVuSans-31"/>
     <use x="8959.228516" xlink:href="#DejaVuSans-30"/>
     <use x="9022.851562" xlink:href="#DejaVuSans-33"/>
     <use x="9086.474609" xlink:href="#DejaVuSans-37"/>
     <use x="9150.097656" xlink:href="#DejaVuSans-2c"/>
     <use x="9181.884766" xlink:href="#DejaVuSans-20"/>
     <use x="9213.671875" xlink:href="#DejaVuSans-38"/>
     <use x="9277.294922" xlink:href="#DejaVuSans-31"/>
     <use x="9340.917969" xlink:href="#DejaVuSans-34"/>
     <use x="9404.541016" xlink:href="#DejaVuSans-2c"/>
     <use x="9436.328125" xlink:href="#DejaVuSans-20"/>
     <use x="9468.115234" xlink:href="#DejaVuSans-33"/>
     <use x="9531.738281" xlink:href="#DejaVuSans-32"/>
     <use x="9595.361328" xlink:href="#DejaVuSans-36"/>
     <use x="9658.984375" xlink:href="#DejaVuSans-2c"/>
     <use x="9690.771484" xlink:href="#DejaVuSans-20"/>
     <use x="9722.558594" xlink:href="#DejaVuSans-33"/>
     <use x="9786.181641" xlink:href="#DejaVuSans-32"/>
     <use x="9849.804688" xlink:href="#DejaVuSans-38"/>
     <use x="9913.427734" xlink:href="#DejaVuSans-2c"/>
     <use x="9945.214844" xlink:href="#DejaVuSans-20"/>
     <use x="9977.001953" xlink:href="#DejaVuSans-31"/>
     <use x="10040.625" xlink:href="#DejaVuSans-36"/>
     <use x="10104.248047" xlink:href="#DejaVuSans-37"/>
     <use x="10167.871094" xlink:href="#DejaVuSans-2c"/>
     <use x="10199.658203" xlink:href="#DejaVuSans-20"/>
     <use x="10231.445312" xlink:href="#DejaVuSans-34"/>
     <use x="10295.068359" xlink:href="#DejaVuSans-39"/>
     <use x="10358.691406" xlink:href="#DejaVuSans-35"/>
     <use x="10422.314453" xlink:href="#DejaVuSans-2c"/>
     <use x="10454.101562" xlink:href="#DejaVuSans-20"/>
     <use x="10485.888672" xlink:href="#DejaVuSans-34"/>
     <use x="10549.511719" xlink:href="#DejaVuSans-39"/>
     <use x="10613.134766" xlink:href="#DejaVuSans-34"/>
     <use x="10676.757812" xlink:href="#DejaVuSans-5d"/>
    </g>
   </g>
  </g>
 </g>
 <defs>
  <clipPath id="pb6547f27da">
   <rect height="266.112" width="357.12" x="57.6" y="41.472"/>
  </clipPath>
 </defs>
</svg>
